SplineFontDB: 3.2
FontName: SeriousShanns
FullName: Serious Shanns
FamilyName: Serious Shanns
Weight: Book
Copyright: https://github.com/kaBeech/serious-shanns/blob/main/LICENSE
Version: 6.0.0
ItalicAngle: 0
UnderlinePosition: 0
UnderlineWidth: 0
Ascent: 800
Descent: 200
InvalidEm: 0
sfntRevision: 0x00003333
LayerCount: 2
Layer: 0 0 "Back" 1
Layer: 1 0 "Fore" 0
XUID: [1021 45 630387186 12505762]
StyleMap: 0x0040
FSType: 4
OS2Version: 3
OS2_WeightWidthSlopeOnly: 0
OS2_UseTypoMetrics: 0
CreationTime: 1532631502
ModificationTime: 315532800
PfmFamily: 81
TTFWeight: 400
TTFWidth: 5
LineGap: 0
VLineGap: 0
Panose: 0 0 0 0 0 0 0 0 0 0
OS2TypoAscent: 613
OS2TypoAOffset: 0
OS2TypoDescent: -188
OS2TypoDOffset: 0
OS2TypoLinegap: 98
OS2WinAscent: 778
OS2WinAOffset: 0
OS2WinDescent: 308
OS2WinDOffset: 0
HheadAscent: 796
HheadAOffset: 0
HheadDescent: -317
HheadDOffset: 0
OS2SubXSize: 317
OS2SubYSize: 293
OS2SubXOff: 0
OS2SubYOff: 37
OS2SupXSize: 317
OS2SupYSize: 293
OS2SupXOff: 0
OS2SupYOff: 171
OS2StrikeYSize: 0
OS2StrikeYPos: 132
OS2CapHeight: 576
OS2XHeight: 485
OS2Vendor: 'NONE'
OS2CodePages: 00000001.00000000
OS2UnicodeRanges: 00000001.00000000.00000000.00000000
MarkAttachClasses: 1
DEI: 91125
LangName: 1033 "" "" "Normal" "FontForge 2.0 : Serious Shanns : 11-6-2024" "" "Version 0.2.0"
Encoding: UnicodeBmp
Compacted: 1
UnicodeInterp: none
NameList: AGL For New Fonts
DisplaySize: -48
AntiAlias: 1
FitToEm: 0
WinInfo: 0 16 11
BeginPrivate: 8
BlueValues 32 [-40 -6 502 523 708 718 765 769]
OtherBlues 11 [-297 -287]
BlueScale 9 0.0291667
BlueShift 1 2
StdHW 4 [85]
StdVW 4 [96]
StemSnapH 7 [65 85]
StemSnapV 4 [96]
EndPrivate
BeginChars: 65537 97

StartChar: .notdef
Encoding: 65536 -1 0
Width: 620
GlyphClass: 1
Flags: W
HStem: -268 54<149 470> 695 54<149 470>
VStem: 96 53<-214 695> 470 54<-214 695>
LayerCount: 2
Fore
SplineSet
96 -268 m 1
 96 749 l 1
 524 749 l 1
 524 -268 l 1
 96 -268 l 1
149 -214 m 1
 470 -214 l 1
 470 695 l 1
 149 695 l 1
 149 -214 l 1
EndSplineSet
EndChar

StartChar: exclam
Encoding: 33 33 1
Width: 620
GlyphClass: 2
Flags: HMW
HStem: -24.5727 153.613
VStem: 227.999 164.001 268.999 92.3857
LayerCount: 2
Fore
SplineSet
369.002929688 738 m 0xa0
 369.002929688 732 367.500976562 688.16796875 364.500976562 606.500976562 c 0
 362.423828125 549.961914062 361.385742188 500.692382812 361.385742188 458.692382812 c 0
 361.385742188 440.026367188 361.590820312 422.795898438 362.000976562 407.000976562 c 0
 362.666992188 382.000976562 362.999023438 362.04296875 362.999023438 347.125976562 c 0
 362.999023438 332.208984375 362.666992188 322.333984375 361.999023438 317.5 c 0
 361.111328125 311.056640625 360.666992188 302.022460938 360.666992188 290.397460938 c 0
 360.666992188 284.580078125 360.778320312 278.114257812 361.000976562 271 c 0
 359.666992188 256.333007812 354.000976562 244.833007812 344.000976562 236.5 c 0
 334.741210938 228.784179688 323.768554688 224.926757812 311.081054688 224.926757812 c 0
 310.065429688 224.926757812 309.038085938 224.951171875 308.001953125 225.000976562 c 0
 294.668945312 225.000976562 283.668945312 229.333984375 275.001953125 238.000976562 c 0
 267.490234375 245.512695312 263.733398438 256.029296875 263.733398438 269.55078125 c 0
 263.733398438 271.629882812 263.823242188 273.780273438 264.000976562 276.001953125 c 0
 264.666992188 286.001953125 265.666992188 295.668945312 267.000976562 305.001953125 c 0
 268.333984375 314.334960938 269.166992188 322.16796875 269.499023438 328.500976562 c 0
 269.833007812 334.833984375 270.333007812 349.833984375 270.999023438 373.500976562 c 0
 271.166992188 379.41796875 271.249023438 385.762695312 271.249023438 392.534179688 c 0
 271.249023438 412.846679688 270.499023438 437.001953125 268.999023438 465.000976562 c 0
 268.333007812 491.000976562 267.833007812 518.500976562 267.499023438 547.500976562 c 0
 267.388671875 557.158203125 267.333007812 566.279296875 267.333007812 574.864257812 c 0
 267.333007812 592.059570312 267.555664062 607.10546875 268.000976562 620 c 0
 268.666992188 639.333007812 269.334960938 661.333007812 270.001953125 686 c 0
 270.668945312 710.666992188 271.001953125 727 271.001953125 735 c 0
 271.668945312 753 276.834960938 766.666992188 286.502929688 776 c 0
 296.169921875 785.333007812 308.002929688 790 322.002929688 790 c 0
 323.002929688 790.047851562 323.989257812 790.071289062 324.962890625 790.071289062 c 0
 337.608398438 790.071289062 347.955078125 786.047851562 356.002929688 778 c 0
 364.669921875 769.333007812 369.002929688 756 369.002929688 738 c 0xa0
312.000976562 -23.9990234375 m 0
 308.475585938 -24.3798828125 305.041992188 -24.5703125 301.700195312 -24.5703125 c 0
 281.661132812 -24.5703125 264.927734375 -17.7158203125 251.499023438 -4.0029296875 c 0
 235.833007812 11.9970703125 227.999023438 31.330078125 227.999023438 53.9970703125 c 0
 227.999023438 73.9970703125 236.833007812 91.330078125 254.499023438 105.997070312 c 0
 272.166992188 120.6640625 291.333984375 128.331054688 312.000976562 128.998046875 c 0
 313.038085938 129.02734375 314.067382812 129.041992188 315.088867188 129.041992188 c 0
 337.030273438 129.041992188 355.166992188 122.194335938 369.500976562 108.499023438 c 0
 384.500976562 94.166015625 392.000976562 76.3330078125 392.000976562 55 c 0xc0
 392.000976562 33.6669921875 384.666992188 15.833984375 370.000976562 1.5009765625 c 0
 355.333984375 -12.83203125 336.000976562 -21.33203125 312.000976562 -23.9990234375 c 0
EndSplineSet
EndChar

StartChar: quotedbl
Encoding: 34 34 2
Width: 620
GlyphClass: 2
Flags: HMW
VStem: 180.483 101.426 338.435 103.475
LayerCount: 2
Fore
SplineSet
282.912109375 738 m 0
 283.133789062 728.908203125 283.244140625 717.880859375 283.244140625 704.916015625 c 0
 283.244140625 678.904296875 282.797851562 645.09765625 281.908203125 603.498046875 c 0
 280.575195312 541.165039062 278.2421875 498.33203125 274.909179688 474.999023438 c 0
 272.909179688 461.666015625 267.2421875 451.666015625 257.909179688 444.999023438 c 0
 249.424804688 438.938476562 240.114257812 435.908203125 229.977539062 435.908203125 c 0
 228.963867188 435.908203125 227.94140625 435.938476562 226.911132812 435.999023438 c 0
 213.578125 436.666015625 201.745117188 440.833007812 191.412109375 448.5 c 0
 182.259765625 455.291015625 177.68359375 464.565429688 177.68359375 476.32421875 c 0
 177.68359375 480.546875 180.483398438 511.731445312 180.483398438 589.744140625 c 0
 180.483398438 596.965820312 180.459960938 604.383789062 180.412109375 611.999023438 c 0
 180.079101562 665.33203125 178.912109375 709.33203125 176.912109375 743.999023438 c 0
 176.245117188 751.999023438 177.745117188 758.83203125 181.412109375 764.499023438 c 0
 185.079101562 770.166015625 189.912109375 774.333007812 195.912109375 777 c 0
 201.912109375 779.666992188 208.079101562 781.5 214.412109375 782.5 c 0
 220.745117188 783.5 226.912109375 783.666992188 232.912109375 783 c 0
 238.912109375 783 244.579101562 782.333007812 249.912109375 781 c 0
 255.245117188 779.666992188 260.412109375 777.5 265.412109375 774.5 c 0
 270.412109375 771.5 274.579101562 766.833007812 277.912109375 760.5 c 0
 281.245117188 754.166992188 282.912109375 746.666992188 282.912109375 738 c 0
442.908203125 737.997070312 m 0
 443.130859375 728.875976562 443.241210938 717.805664062 443.241210938 704.786132812 c 0
 443.241210938 678.791015625 442.797851562 645.026367188 441.91015625 603.495117188 c 0
 440.577148438 541.162109375 438.577148438 498.329101562 435.91015625 474.99609375 c 0
 433.91015625 461.663085938 428.077148438 451.663085938 418.41015625 444.99609375 c 0
 409.622070312 438.935546875 400.420898438 435.905273438 390.806640625 435.905273438 c 0
 389.844726562 435.905273438 388.87890625 435.935546875 387.909179688 435.99609375 c 0
 374.576171875 436.663085938 362.576171875 440.830078125 351.909179688 448.497070312 c 0
 342.926757812 454.953125 338.435546875 463.654296875 338.435546875 474.6015625 c 0
 338.435546875 476.654296875 338.59375 478.786132812 338.909179688 480.997070312 c 0
 340.409179688 506.49609375 341.159179688 537.432617188 341.159179688 573.805664062 c 0
 341.159179688 585.931640625 341.076171875 598.662109375 340.909179688 611.99609375 c 0
 340.2421875 665.329101562 338.909179688 709.329101562 336.909179688 743.99609375 c 0
 336.909179688 751.99609375 338.7421875 758.829101562 342.409179688 764.49609375 c 0
 346.076171875 770.163085938 350.909179688 774.330078125 356.909179688 776.997070312 c 0
 362.909179688 779.6640625 368.909179688 781.497070312 374.909179688 782.497070312 c 0
 380.909179688 783.497070312 386.909179688 783.6640625 392.909179688 782.997070312 c 0
 398.909179688 782.997070312 404.576171875 782.330078125 409.909179688 780.997070312 c 0
 415.2421875 779.6640625 420.575195312 777.497070312 425.908203125 774.497070312 c 0
 431.241210938 771.497070312 435.408203125 766.830078125 438.408203125 760.497070312 c 0
 441.408203125 754.1640625 442.908203125 746.6640625 442.908203125 737.997070312 c 0
EndSplineSet
EndChar

StartChar: numbersign
Encoding: 35 35 3
Width: 620
GlyphClass: 2
Flags: HMW
HStem: 192 82 445 84 697.667 20G
LayerCount: 2
Fore
SplineSet
196.041015625 42 m 0
 191.374023438 28 181.706054688 16.4990234375 167.0390625 7.4990234375 c 0
 156.884765625 1.2685546875 147.209960938 -1.8466796875 138.014648438 -1.8466796875 c 0
 133.927734375 -1.8466796875 129.935546875 -1.2314453125 126.038085938 -0.0009765625 c 0
 113.37109375 2.666015625 104.038085938 11.166015625 98.0380859375 25.4990234375 c 0
 94.861328125 33.0869140625 93.2734375 41.095703125 93.2734375 49.5244140625 c 0
 93.2734375 57.0166015625 94.5283203125 64.8408203125 97.0380859375 72.998046875 c 0
 102.37109375 90.998046875 111.704101562 129.665039062 125.037109375 188.998046875 c 1
 95.037109375 188.998046875 l 2
 78.3701171875 188.998046875 65.703125 192.331054688 57.0361328125 198.998046875 c 0
 44.291015625 208.801757812 43.958984375 221.170898438 43.958984375 228.732421875 c 0
 43.958984375 239.524414062 47.6513671875 248.61328125 55.0361328125 255.998046875 c 0
 63.0361328125 263.998046875 75.703125 268.665039062 93.0361328125 269.998046875 c 0
 98.369140625 269.998046875 106.536132812 270.165039062 117.536132812 270.498046875 c 0
 128.536132812 270.831054688 136.703125 270.998046875 142.036132812 270.998046875 c 1
 176.036132812 443.998046875 l 1
 170.703125 443.998046875 163.370117188 443.831054688 154.037109375 443.498046875 c 0
 144.704101562 443.165039062 138.37109375 442.998046875 135.038085938 442.998046875 c 0
 133.704101562 442.944335938 132.39453125 442.91796875 131.109375 442.91796875 c 0
 116.340820312 442.91796875 104.817382812 446.444335938 96.5380859375 453.498046875 c 0
 83.28125 464.791015625 82.9658203125 477.244140625 82.9658203125 484.541992188 c 0
 82.9658203125 495.44140625 86.9892578125 504.759765625 95.037109375 512.497070312 c 0
 103.704101562 520.830078125 116.704101562 525.330078125 134.037109375 525.997070312 c 0
 146.704101562 526.6640625 166.037109375 526.997070312 192.037109375 526.997070312 c 1
 210.704101562 627.6640625 220.37109375 679.6640625 221.038085938 682.997070312 c 0
 226.37109375 699.6640625 234.704101562 711.331054688 246.037109375 717.998046875 c 0
 253.592773438 722.443359375 261.296875 724.666015625 269.149414062 724.666015625 c 0
 273.075195312 724.666015625 277.038085938 724.110351562 281.038085938 722.999023438 c 0
 295.038085938 720.33203125 305.87109375 713.665039062 313.538085938 702.998046875 c 0
 318.881835938 695.563476562 321.553710938 686.509765625 321.553710938 675.836914062 c 0
 321.553710938 671.197265625 321.048828125 666.250976562 320.0390625 660.999023438 c 2
 293.0390625 528.999023438 l 1
 406.0390625 528.999023438 l 1
 433.0390625 674.999023438 l 2
 438.372070312 692.33203125 446.5390625 704.33203125 457.5390625 710.999023438 c 0
 464.873046875 715.444335938 472.725585938 717.666992188 481.096679688 717.666992188 c 0
 485.28125 717.666992188 489.595703125 717.111328125 494.040039062 716 c 0
 508.70703125 713.333007812 519.70703125 706.666015625 527.040039062 695.999023438 c 0
 531.78515625 689.096679688 534.158203125 680.798828125 534.158203125 671.10546875 c 0
 534.158203125 665.818359375 533.452148438 660.116210938 532.040039062 653.999023438 c 0
 524.70703125 625.999023438 516.374023438 584.999023438 507.041015625 530.999023438 c 1
 518.041015625 530.999023438 l 2
 534.041015625 530.999023438 547.541015625 526.499023438 558.541015625 517.499023438 c 0
 569.541015625 508.499023438 575.374023438 498.999023438 576.041015625 488.999023438 c 0
 576.041015625 476.999023438 572.041015625 466.83203125 564.041015625 458.499023438 c 0
 556.041015625 450.166015625 543.708007812 445.666015625 527.041015625 444.999023438 c 2
 491.041015625 444.999023438 l 1
 462.041015625 273.999023438 l 1
 503.041015625 273.999023438 l 2
 518.374023438 273.999023438 529.041015625 270.499023438 535.041015625 263.499023438 c 0
 541.041015625 256.499023438 544.374023438 247.33203125 545.041015625 235.999023438 c 0
 545.041015625 206.666015625 531.041015625 191.999023438 503.041015625 191.999023438 c 2
 447.041015625 191.999023438 l 1
 433.708007812 115.999023438 424.041015625 64.666015625 418.041015625 37.9990234375 c 0
 412.708007812 23.9990234375 403.208007812 13.166015625 389.541015625 5.4990234375 c 0
 380.559570312 0.4609375 371.650390625 -2.0576171875 362.813476562 -2.0576171875 c 0
 358.203125 -2.0576171875 353.612304688 -1.3720703125 349.041015625 -0.0009765625 c 0
 336.374023438 2.666015625 327.041015625 10.4990234375 321.041015625 23.4990234375 c 0
 317.864257812 30.380859375 316.276367188 37.77734375 316.276367188 45.6875 c 0
 316.276367188 52.71875 317.53125 60.15625 320.041015625 68 c 0
 326.708007812 94.6669921875 335.375 135.666992188 346.041992188 191 c 1
 332.041992188 191 311.708984375 190.833007812 285.041992188 190.5 c 0
 258.375 190.166992188 238.708007812 190 226.041015625 190 c 1
 212.041015625 118 202.041015625 68.6669921875 196.041015625 42 c 0
277.040039062 444.999023438 m 1
 242.041015625 273.998046875 l 1
 269.374023438 274.665039062 308.70703125 274.998046875 360.040039062 274.998046875 c 1
 370.70703125 329.665039062 381.040039062 386.33203125 391.040039062 444.999023438 c 1
 277.040039062 444.999023438 l 1
EndSplineSet
EndChar

StartChar: dollar
Encoding: 36 36 4
Width: 620
GlyphClass: 2
Flags: HMW
HStem: -28.9932 84.9932 642.998 79.002
VStem: 83.4995 92.001 271.499 87.001 461.501 92.999
LayerCount: 2
Fore
SplineSet
351.5 -99 m 0
 350.16796875 -113.666992188 344.5 -124.993164062 334.5 -132.993164062 c 0
 324.5 -140.993164062 312.833007812 -144.993164062 299.5 -144.993164062 c 0
 286.833007812 -144.993164062 277.333007812 -140.493164062 271 -131.493164062 c 0
 265.76953125 -124.05859375 263.15234375 -114.0078125 263.15234375 -101.340820312 c 0
 263.15234375 -98.6748046875 263.26953125 -95.892578125 263.5 -92.994140625 c 0
 264.388671875 -82.330078125 264.833007812 -69.296875 264.833007812 -53.89453125 c 0
 264.833007812 -46.1875 264.72265625 -37.8876953125 264.5 -28.994140625 c 1
 261.5 -28.994140625 l 2
 237.5 -28.994140625 215 -25.994140625 194 -19.994140625 c 0
 173 -13.994140625 155 -5.994140625 140 4.005859375 c 0
 125 14.005859375 112 24.6728515625 101 36.005859375 c 0
 90 47.3388671875 81.166015625 59.671875 74.5 73.0048828125 c 0
 68.5 86.5048828125 65.5 98.1298828125 65.5 107.879882812 c 0
 65.5 111.129882812 65.83203125 114.171875 66.5 117.004882812 c 0
 69.166015625 128.337890625 76.166015625 136.670898438 87.5 142.00390625 c 0
 95.5 145.336914062 101.83203125 147.669921875 106.5 149.002929688 c 0
 111.166015625 150.3359375 116.333007812 150.668945312 122 150.001953125 c 0
 127.66796875 149.334960938 133.16796875 146.66796875 138.5 142.000976562 c 0
 143.833007812 137.333984375 149.5 130.666992188 155.5 122 c 0
 168.833007812 101.333007812 184.166015625 85.166015625 201.5 73.4990234375 c 0
 218.83203125 61.83203125 239.83203125 55.9990234375 264.5 55.9990234375 c 2
 268.5 55.9990234375 l 1
 269.83203125 167.33203125 270.5 266.665039062 270.5 353.998046875 c 1
 267.166015625 353.998046875 261.333007812 354.665039062 253 355.998046875 c 0
 244.66796875 357.331054688 238.5 357.998046875 234.5 357.998046875 c 0
 210.5 360.665039062 188.5 366.998046875 168.5 376.998046875 c 0
 148.5 386.998046875 132.66796875 399.165039062 121 413.498046875 c 0
 109.333984375 427.831054688 100.166015625 442.831054688 93.5 458.498046875 c 0
 86.83203125 474.165039062 83.5 489.998046875 83.5 505.998046875 c 0
 83.5 529.998046875 87.166015625 552.998046875 94.5 574.998046875 c 0
 101.83203125 596.998046875 113 617.498046875 128 636.498046875 c 0
 143 655.498046875 162.5 671.831054688 186.5 685.498046875 c 0
 210.5 699.165039062 238.83203125 708.665039062 271.5 713.998046875 c 1
 272.166015625 729.998046875 272.5 749.331054688 272.5 771.998046875 c 0
 273.166015625 808.665039062 286.833007812 826.998046875 313.5 826.998046875 c 0
 314.055664062 827.010742188 314.606445312 827.016601562 315.15234375 827.016601562 c 0
 344.05078125 827.016601562 358.5 809.677734375 358.5 774.999023438 c 2
 358.5 721.999023438 l 1
 373.16796875 721.33203125 393.66796875 717.999023438 420 711.999023438 c 0
 446.333007812 705.999023438 465.833007812 700.33203125 478.5 694.999023438 c 0
 491.16796875 690.33203125 500.16796875 682.999023438 505.5 672.999023438 c 0
 509.766601562 664.999023438 511.899414062 656.572265625 511.899414062 647.71875 c 0
 511.899414062 645.505859375 511.766601562 643.266601562 511.5 641 c 0
 510.833007812 633 508.333007812 626.833007812 504 622.5 c 0
 499.66796875 618.166992188 494.333984375 615.5 488.000976562 614.5 c 0
 481.66796875 613.5 475.66796875 613.333007812 470.000976562 614 c 0
 464.333984375 614.666992188 458.16796875 615.666992188 451.5 617 c 0
 445.5 618.333007812 438 621.166015625 429 625.499023438 c 0
 420 629.83203125 409.833007812 633.665039062 398.5 636.998046875 c 0
 387.16796875 640.331054688 373.5 642.331054688 357.5 642.998046875 c 1
 356.833007812 589.665039062 355.5 518.998046875 353.5 430.998046875 c 1
 384.16796875 426.998046875 411.5 419.831054688 435.5 409.498046875 c 0
 459.5 399.165039062 478.66796875 387.33203125 493 373.999023438 c 0
 507.333007812 360.666015625 519.5 345.333007812 529.5 328 c 0
 539.5 310.666992188 546.16796875 293.666992188 549.5 277 c 0
 552.833007812 260.333007812 554.5 243 554.5 225 c 0
 554.5 194.333007812 549.333007812 165.333007812 539 138 c 0
 528.66796875 110.666992188 514.16796875 87 495.5 67 c 0
 476.833007812 47 455.166015625 29.6669921875 430.5 15 c 0
 405.83203125 0.3330078125 378.83203125 -10.6669921875 349.5 -18 c 1
 350.166015625 -58 350.833007812 -85 351.5 -99 c 0
175.5 531.006835938 m 0
 175.5 509.673828125 184.000976562 491.006835938 201.000976562 475.006835938 c 0
 218.000976562 459.006835938 241.16796875 447.673828125 270.500976562 441.006835938 c 1
 271.16796875 487.006835938 271.500976562 551.006835938 271.500976562 633.006835938 c 1
 242.833984375 624.33984375 219.66796875 611.33984375 202 594.006835938 c 0
 184.333007812 576.673828125 175.5 555.673828125 175.5 531.006835938 c 0
461.500976562 208.006835938 m 0
 461.500976562 220.673828125 459.83203125 232.340820312 456.5 243.0078125 c 0
 453.166015625 253.674804688 447.833007812 264.841796875 440.5 276.508789062 c 0
 433.16796875 288.17578125 422.16796875 299.008789062 407.5 309.008789062 c 0
 392.833007812 319.008789062 374.5 327.67578125 352.5 335.008789062 c 1
 352.5 305.67578125 352.333007812 261.508789062 352 202.508789062 c 0
 351.66796875 143.508789062 350.833984375 100.67578125 349.500976562 74.0087890625 c 1
 381.500976562 87.341796875 408.16796875 105.674804688 429.500976562 129.0078125 c 0
 450.833984375 152.340820312 461.500976562 178.673828125 461.500976562 208.006835938 c 0
EndSplineSet
EndChar

StartChar: percent
Encoding: 37 37 5
Width: 620
GlyphClass: 2
Flags: HMW
HStem: -28.0313 75.9731 170.999 74 432 75<178.126 186.459 178.126 189.125> 632 73
VStem: 51.1255 71.919 231.188 70.301 319.056 71.992 438.124 88.8789 497.143 71.7321
LayerCount: 2
Fore
SplineSet
167.125 432 m 0xfe
 143.791992188 432 122.958984375 438.5 104.625 451.5 c 0
 86.29296875 464.5 72.79296875 480.833007812 64.125 500.5 c 0
 55.458984375 520.166992188 51.125 541.333984375 51.125 564.000976562 c 0
 51.125 605.333984375 62.625 639.166992188 85.625 665.5 c 0
 108.625 691.833007812 141.125 705 183.125 705 c 0
 199.79296875 705 215.29296875 702.166992188 229.625 696.5 c 0
 243.958984375 690.833007812 256.791992188 682.333007812 268.125 671 c 0
 279.45703125 659.666992188 288.125 644.166992188 294.125 624.5 c 0
 299.034179688 608.408203125 301.48828125 590.197265625 301.48828125 569.866210938 c 0
 301.48828125 565.348632812 301.3671875 560.7265625 301.125 556 c 0
 299.125 515.333007812 287.291992188 484.5 265.625 463.5 c 0
 243.95703125 442.5 211.125 432 167.125 432 c 0xfe
76.125 19 m 0
 90.125 47.6669921875 123.29296875 107.833984375 175.625 199.500976562 c 0
 227.958984375 291.16796875 280.291992188 383.66796875 332.625 477.000976562 c 0
 384.95703125 570.333984375 420.125 637.000976562 438.125 677.000976562 c 0
 446.125 689.000976562 456.625 696.500976562 469.625 699.500976562 c 0
 473.659179688 700.431640625 477.61328125 700.897460938 481.487304688 700.897460938 c 0
 490.095703125 700.897460938 498.30859375 698.598632812 506.124023438 694.000976562 c 0
 512.794921875 691.036132812 527.002929688 683.4609375 527.002929688 665.655273438 c 0xff
 527.002929688 656.331054688 523.04296875 645.446289062 515.125 633.001953125 c 0
 490.45703125 592.334960938 431.625 488.66796875 338.625 322.000976562 c 0
 245.625 155.333984375 184.125 42.6669921875 154.125 -16 c 0
 141.32421875 -39.630859375 126.889648438 -51.4462890625 110.818359375 -51.4462890625 c 0
 105.125 -51.4462890625 99.228515625 -49.9638671875 93.125 -47 c 0
 76.193359375 -38.95703125 67.728515625 -27.15234375 67.728515625 -11.5849609375 c 0
 67.728515625 -2.6337890625 70.52734375 7.5615234375 76.125 19 c 0
178.125 507 m 0
 194.79296875 507 207.291992188 512.333007812 215.625 523 c 0
 228.095703125 538.962890625 231.1875 561.026367188 231.1875 570.180664062 c 0
 231.1875 590.727539062 226.5 606.000976562 217.125 616.000976562 c 0
 207.125 626.66796875 193.125 632.000976562 175.125 632.000976562 c 0
 159.125 632.000976562 146.79296875 626.16796875 138.125 614.500976562 c 0
 135.20703125 610.572265625 123.045898438 592.4140625 123.045898438 562.6015625 c 0
 123.045898438 546.06640625 126.572265625 533.19921875 133.625 524 c 0
 141.29296875 514 156.125 508.333007812 178.125 507 c 0
434.125 -28 m 0
 410.791992188 -28 390.125 -21.5 372.125 -8.5 c 0
 354.125 4.5 340.625 20.8330078125 331.625 40.5 c 0
 323.24609375 58.810546875 319.0546875 78.4208984375 319.0546875 99.3310546875 c 0
 319.0546875 122.313476562 320.23046875 167.287109375 353.125 205.5 c 0
 375.791992188 231.833007812 408.125 245 450.125 245 c 0
 466.791992188 245 482.291992188 242.333007812 496.625 237 c 0
 510.95703125 231.666992188 523.95703125 223.166992188 535.625 211.5 c 0
 547.291992188 199.833007812 556.125 184.166015625 562.125 164.499023438 c 0
 566.625 149.749023438 568.875 133.217773438 568.875 114.905273438 c 0xfe80
 568.875 108.80078125 568.625 102.499023438 568.125 95.9990234375 c 0
 566.125 55.33203125 554.291992188 24.33203125 532.625 2.9990234375 c 0
 511.615234375 -17.6875 480.10546875 -28.0302734375 438.095703125 -28.0302734375 c 0
 436.78125 -28.0302734375 435.458984375 -28.0205078125 434.125 -28 c 0
445.125 48 m 0
 446.0390625 47.9619140625 446.94140625 47.9443359375 447.83203125 47.9443359375 c 0
 462.522460938 47.9443359375 473.953125 53.1298828125 482.125 63.5009765625 c 0
 483.499023438 65.2451171875 497.142578125 83.193359375 497.142578125 108.302734375 c 0
 497.142578125 150.1015625 479.13671875 171.000976562 443.125 171.000976562 c 0
 427.791992188 171.000976562 415.625 165.16796875 406.625 153.500976562 c 0
 403.4765625 149.418945312 391.046875 131.494140625 391.046875 102.913085938 c 0
 391.046875 86.8427734375 394.740234375 74.0380859375 402.125 64.5 c 0
 410.125 54.1669921875 424.45703125 48.6669921875 445.125 48 c 0
EndSplineSet
EndChar

StartChar: ampersand
Encoding: 38 38 6
Width: 620
GlyphClass: 2
Flags: HMW
HStem: -41.998 93.998 -40.3768 21G 645.001 79
VStem: 51.3799 100.997 138.379 95.998 372.377 83.002
LayerCount: 2
Fore
SplineSet
535.376953125 -35 m 0xac
 529.510742188 -38.5849609375 523.287109375 -40.3779296875 516.704101562 -40.3779296875 c 0x6c
 509.8203125 -40.3779296875 502.544921875 -38.41796875 494.876953125 -34.4990234375 c 0
 479.876953125 -26.83203125 466.709960938 -13.6650390625 455.376953125 5.001953125 c 0
 454.043945312 8.3349609375 450.2109375 18.3349609375 443.877929688 35.001953125 c 0
 437.544921875 51.6689453125 432.711914062 63.6689453125 429.37890625 71.001953125 c 1
 427.37890625 68.3349609375 423.045898438 62.66796875 416.37890625 54.0009765625 c 0
 409.711914062 45.333984375 404.711914062 39.0009765625 401.37890625 35.0009765625 c 0
 398.045898438 31.0009765625 392.712890625 25.0009765625 385.379882812 17.0009765625 c 0
 378.046875 9.0009765625 371.546875 2.833984375 365.879882812 -1.4990234375 c 0
 360.212890625 -5.83203125 352.879882812 -10.9990234375 343.879882812 -16.9990234375 c 0
 334.879882812 -22.9990234375 326.212890625 -27.4990234375 317.879882812 -30.4990234375 c 0
 309.546875 -33.4990234375 299.546875 -36.166015625 287.879882812 -38.4990234375 c 0
 276.212890625 -40.83203125 264.379882812 -41.9990234375 252.379882812 -41.9990234375 c 0
 215.046875 -41.9990234375 180.879882812 -32.33203125 149.879882812 -12.9990234375 c 0
 118.879882812 6.333984375 94.712890625 31.6669921875 77.3798828125 63 c 0
 60.046875 94.3330078125 51.3798828125 128.333007812 51.3798828125 165 c 0xb4
 51.3798828125 291 103.379882812 376.666992188 207.379882812 422 c 1
 201.379882812 432 194.212890625 444 185.879882812 458 c 0
 177.546875 472 171.379882812 481.833007812 167.379882812 487.5 c 0
 163.379882812 493.166992188 159.046875 500.5 154.379882812 509.5 c 0
 149.712890625 518.5 146.545898438 526.333007812 144.87890625 533 c 0
 143.211914062 539.666992188 141.711914062 547.833984375 140.37890625 557.500976562 c 0
 139.045898438 567.16796875 138.37890625 577.66796875 138.37890625 589.000976562 c 0
 138.37890625 601.000976562 139.87890625 612.833984375 142.87890625 624.500976562 c 0
 145.87890625 636.16796875 151.545898438 648.16796875 159.87890625 660.500976562 c 0
 168.211914062 672.833984375 177.87890625 683.666992188 188.87890625 693 c 0
 199.87890625 702.333007812 214.87890625 709.833007812 233.87890625 715.5 c 0
 252.87890625 721.166992188 274.37890625 724 298.37890625 724 c 0
 317.711914062 724 336.711914062 721 355.37890625 715 c 0
 374.045898438 709 390.87890625 700.166992188 405.87890625 688.5 c 0
 420.87890625 676.833007812 432.87890625 661.5 441.87890625 642.5 c 0
 450.87890625 623.5 455.37890625 602.333007812 455.37890625 579 c 0
 455.37890625 557.666992188 452.711914062 537.833984375 447.37890625 519.500976562 c 0
 442.045898438 501.16796875 435.212890625 485.834960938 426.879882812 473.501953125 c 0
 418.546875 461.168945312 408.046875 449.3359375 395.379882812 438.002929688 c 0
 382.712890625 426.669921875 371.045898438 417.669921875 360.37890625 411.002929688 c 0
 349.711914062 404.3359375 337.37890625 397.668945312 323.37890625 391.001953125 c 1
 335.37890625 370.334960938 355.711914062 339.66796875 384.37890625 299.000976562 c 0
 413.045898438 258.333984375 431.37890625 231.333984375 439.37890625 218.000976562 c 1
 444.045898438 227.333984375 449.37890625 238.166992188 455.37890625 250.5 c 0
 461.37890625 262.833007812 465.87890625 272.833007812 468.87890625 280.5 c 0
 471.87890625 288.166992188 474.711914062 293.666992188 477.37890625 297 c 0
 489.37890625 314.333007812 500.87890625 325.166015625 511.87890625 329.499023438 c 0
 516.211914062 331.206054688 520.673828125 332.059570312 525.265625 332.059570312 c 0
 532.330078125 332.059570312 539.701171875 330.0390625 547.37890625 325.998046875 c 0
 558.711914062 320.665039062 565.544921875 310.83203125 567.877929688 296.499023438 c 0
 568.373046875 293.458984375 568.620117188 290.336914062 568.620117188 287.131835938 c 0
 568.620117188 275.225585938 565.206054688 262.181640625 558.376953125 247.999023438 c 0
 555.043945312 241.999023438 545.043945312 228.666015625 528.376953125 207.999023438 c 0
 511.709960938 187.33203125 498.376953125 168.33203125 488.376953125 150.999023438 c 1
 495.709960938 138.33203125 505.876953125 120.165039062 518.876953125 96.498046875 c 0
 531.876953125 72.8310546875 539.709960938 58.998046875 542.376953125 54.998046875 c 0
 550.485351562 42.025390625 554.5390625 27.9560546875 554.5390625 12.7919921875 c 0
 554.5390625 9.25390625 554.318359375 5.65625 553.876953125 1.9990234375 c 0
 551.543945312 -17.333984375 545.376953125 -29.6669921875 535.376953125 -35 c 0xac
234.377929688 572 m 0
 234.377929688 555.333007812 238.7109375 537 247.377929688 517 c 0
 256.044921875 497 266.711914062 479.333007812 279.37890625 464 c 1
 294.045898438 468.666992188 306.545898438 473.5 316.87890625 478.5 c 0
 327.211914062 483.5 337.044921875 490 346.377929688 498 c 0
 355.7109375 506 362.377929688 515.833007812 366.377929688 527.5 c 0
 370.377929688 539.166992188 372.377929688 553 372.377929688 569 c 0
 372.377929688 593.666992188 364.877929688 612.5 349.877929688 625.5 c 0
 334.877929688 638.5 316.7109375 645 295.377929688 645 c 0
 254.7109375 645 234.377929688 620.666992188 234.377929688 572 c 0
152.377929688 174 m 0xb4
 152.377929688 139.333007812 161.708984375 110.33203125 180.375976562 86.9990234375 c 0
 199.04296875 63.666015625 223.375976562 51.9990234375 253.375976562 51.9990234375 c 0
 262.708984375 51.9990234375 271.875976562 52.9990234375 280.875976562 54.9990234375 c 0
 289.875976562 56.9990234375 297.54296875 58.9990234375 303.875976562 60.9990234375 c 0
 310.208984375 62.9990234375 316.875976562 66.33203125 323.875976562 70.9990234375 c 0
 330.875976562 75.666015625 336.375976562 79.4990234375 340.375976562 82.4990234375 c 0
 344.375976562 85.4990234375 349.208984375 90.166015625 354.875976562 96.4990234375 c 0
 360.54296875 102.83203125 364.209960938 107.33203125 365.876953125 109.999023438 c 0
 367.543945312 112.666015625 371.043945312 117.499023438 376.376953125 124.499023438 c 0
 381.709960938 131.499023438 384.709960938 135.666015625 385.376953125 136.999023438 c 0
 373.376953125 162.999023438 363.376953125 183.33203125 355.376953125 197.999023438 c 0
 347.376953125 213.33203125 331.209960938 238.33203125 306.876953125 272.999023438 c 0
 282.543945312 307.666015625 265.376953125 333.333007812 255.376953125 350 c 1
 235.376953125 341.333007812 218.209960938 330.5 203.876953125 317.5 c 0
 189.543945312 304.5 178.7109375 290.166992188 171.377929688 274.5 c 0
 164.044921875 258.833007812 159.044921875 243 156.377929688 227 c 0
 153.7109375 211 152.377929688 193.333007812 152.377929688 174 c 0xb4
EndSplineSet
EndChar

StartChar: quotesingle
Encoding: 39 39 7
Width: 620
GlyphClass: 2
Flags: HMW
HStem: 445.91 325.59
VStem: 256.834 106.332
LayerCount: 2
Fore
SplineSet
362.83203125 728 m 0
 363.0546875 719.106445312 363.166015625 708.600585938 363.166015625 696.482421875 c 0
 363.166015625 672.263671875 362.721679688 641.603515625 361.833007812 604.500976562 c 0
 360.5 548.833984375 358.166992188 509.333984375 354.833984375 486.000976562 c 0
 352.833984375 472.000976562 347.000976562 461.66796875 337.333984375 455.000976562 c 0
 328.545898438 448.940429688 319.344726562 445.91015625 309.73046875 445.91015625 c 0
 308.768554688 445.91015625 307.802734375 445.940429688 306.833007812 446.000976562 c 0
 293.5 446.66796875 281.666992188 451.000976562 271.333984375 459.000976562 c 0
 262.181640625 466.086914062 257.60546875 475.526367188 257.60546875 487.319335938 c 0
 257.60546875 490.916015625 260.083984375 520.942382812 260.083984375 578.998046875 c 0
 260.083984375 589.666015625 260.000976562 600.666992188 259.833984375 612.000976562 c 0
 259.166992188 657.333984375 258.166992188 697.666992188 256.833984375 733 c 0
 256.833984375 741 258.333984375 748 261.333984375 754 c 0
 264.333984375 760 269.000976562 764.166992188 275.333984375 766.5 c 0
 281.666992188 768.833007812 287.833984375 770.5 293.833984375 771.5 c 0
 299.833984375 772.5 305.833984375 772.666992188 311.833984375 772 c 0
 317.833984375 772 323.500976562 771.333007812 328.833984375 770 c 0
 334.166992188 768.666992188 339.5 766.5 344.833007812 763.5 c 0
 350.166015625 760.5 354.499023438 756 357.83203125 750 c 0
 361.165039062 744 362.83203125 736.666992188 362.83203125 728 c 0
EndSplineSet
EndChar

StartChar: parenleft
Encoding: 40 40 8
Width: 620
GlyphClass: 2
Flags: HMW
HStem: -130.998 83.998 733.002 81
VStem: 160.548 97.3819
LayerCount: 2
Fore
SplineSet
458.4296875 -93 m 0
 458.4296875 -103.666992188 454.09765625 -112.6640625 445.430664062 -119.997070312 c 0
 436.763671875 -127.330078125 427.763671875 -130.997070312 418.430664062 -130.997070312 c 0
 373.763671875 -130.997070312 333.263671875 -114.997070312 296.930664062 -82.9970703125 c 0
 260.59765625 -50.9970703125 230.930664062 -6.6640625 207.930664062 50.0029296875 c 0
 184.930664062 106.669921875 170.09765625 172.002929688 163.430664062 246.002929688 c 0
 161.508789062 266.04296875 160.547851562 288.569335938 160.547851562 313.58203125 c 0
 160.547851562 349.314453125 162.508789062 390.12109375 166.430664062 436.002929688 c 0
 173.09765625 514.002929688 186.09765625 578.3359375 205.430664062 629.002929688 c 0
 214.09765625 651.002929688 225.59765625 672.8359375 239.930664062 694.502929688 c 0
 254.263671875 716.169921875 270.596679688 736.002929688 288.9296875 754.002929688 c 0
 307.262695312 772.002929688 327.9296875 786.502929688 350.9296875 797.502929688 c 0
 373.9296875 808.502929688 396.762695312 814.002929688 419.4296875 814.002929688 c 0
 446.111328125 814.002929688 459.452148438 800.979492188 459.452148438 774.93359375 c 0
 459.452148438 767.493164062 459.306640625 751.90625 447.428710938 742.502929688 c 0
 439.428710938 736.169921875 429.428710938 733.002929688 417.428710938 733.002929688 c 0
 400.095703125 733.002929688 383.928710938 728.002929688 368.928710938 718.002929688 c 0
 353.928710938 708.002929688 340.76171875 694.3359375 329.428710938 677.002929688 c 0
 318.095703125 659.669921875 308.262695312 640.669921875 299.9296875 620.002929688 c 0
 291.596679688 599.3359375 284.4296875 577.002929688 278.4296875 553.002929688 c 0
 269.762695312 518.3359375 263.762695312 470.668945312 260.4296875 410.001953125 c 0
 258.763671875 379.66796875 257.930664062 352.16796875 257.930664062 327.500976562 c 0
 257.930664062 302.833984375 258.763671875 281.000976562 260.4296875 262.000976562 c 0
 263.762695312 221.333984375 270.9296875 181.833984375 281.9296875 143.500976562 c 0
 292.9296875 105.16796875 305.762695312 72.16796875 320.4296875 44.5009765625 c 0
 335.096679688 16.833984375 351.096679688 -5.3330078125 368.4296875 -22 c 0
 385.762695312 -38.6669921875 402.4296875 -47 418.4296875 -47 c 0
 431.762695312 -47 441.762695312 -50.3330078125 448.4296875 -57 c 0
 455.096679688 -63.6669921875 458.4296875 -75.6669921875 458.4296875 -93 c 0
EndSplineSet
EndChar

StartChar: parenright
Encoding: 41 41 9
Width: 620
GlyphClass: 2
Flags: HMW
HStem: -131.005 84 732.998 81.002
VStem: 360.192 99.2482
LayerCount: 2
Fore
SplineSet
456.55859375 246 m 0
 449.225585938 172 434.0625 106.662109375 411.0625 49.9951171875 c 0
 388.0625 -6.671875 358.5625 -51.0048828125 322.5625 -83.0048828125 c 0
 286.5625 -115.004882812 246.229492188 -131.004882812 201.5625 -131.004882812 c 0
 192.229492188 -131.004882812 183.229492188 -127.337890625 174.5625 -120.004882812 c 0
 165.89453125 -112.671875 161.5625 -103.671875 161.5625 -93.0048828125 c 0
 161.5625 -75.671875 165.0625 -63.671875 172.0625 -57.0048828125 c 0
 179.0625 -50.337890625 188.89453125 -47.0048828125 201.5625 -47.0048828125 c 0
 216.89453125 -47.0048828125 233.0625 -38.671875 250.0625 -22.0048828125 c 0
 267.0625 -5.337890625 282.89453125 16.8291015625 297.5625 44.49609375 c 0
 312.229492188 72.1630859375 325.229492188 105.330078125 336.5625 143.997070312 c 0
 347.89453125 182.6640625 354.89453125 221.997070312 357.5625 261.997070312 c 0
 359.31640625 281.998046875 360.193359375 305.137695312 360.193359375 331.416992188 c 0
 360.193359375 355.067382812 359.482421875 381.260742188 358.061523438 409.997070312 c 0
 355.061523438 470.6640625 348.89453125 518.331054688 339.561523438 552.998046875 c 0
 334.228515625 576.998046875 327.561523438 599.331054688 319.561523438 619.998046875 c 0
 311.561523438 640.665039062 301.728515625 659.665039062 290.061523438 676.998046875 c 0
 278.39453125 694.331054688 265.2265625 707.998046875 250.560546875 717.998046875 c 0
 235.893554688 727.998046875 220.2265625 732.998046875 203.55859375 732.998046875 c 0
 190.892578125 732.998046875 180.55859375 736.165039062 172.55859375 742.498046875 c 0
 164.55859375 748.831054688 160.55859375 758.998046875 160.55859375 772.998046875 c 0
 160.55859375 781.665039062 161.55859375 788.83203125 163.55859375 794.499023438 c 0
 165.55859375 800.166015625 169.05859375 804.333007812 174.05859375 807 c 0
 179.05859375 809.666992188 183.392578125 811.5 187.05859375 812.5 c 0
 190.7265625 813.5 195.2265625 814 200.55859375 814 c 0
 223.2265625 814 246.05859375 808.5 269.05859375 797.5 c 0
 292.05859375 786.5 312.55859375 772 330.55859375 754 c 0
 348.55859375 736 364.7265625 716.166992188 379.05859375 694.5 c 0
 393.392578125 672.833007812 405.225585938 651 414.55859375 629 c 0
 433.890625 578.333007812 446.890625 514 453.55859375 436 c 0
 457.48046875 390.118164062 459.44140625 349.311523438 459.44140625 313.579101562 c 0
 459.44140625 288.56640625 458.48046875 266.040039062 456.55859375 246 c 0
EndSplineSet
EndChar

StartChar: asterisk
Encoding: 42 42 10
Width: 620
GlyphClass: 2
Flags: HMW
HStem: 292.998 103.999 306.499 76.5001
LayerCount: 2
Fore
SplineSet
257.001953125 139 m 0x40
 254.333984375 131 249.83203125 124.999023438 243.498046875 120.999023438 c 0
 237.166015625 116.999023438 230.166015625 114.666015625 222.498046875 113.999023438 c 0
 214.83203125 113.33203125 207.498046875 113.83203125 200.498046875 115.499023438 c 0
 193.498046875 117.166015625 187.33203125 119.333007812 181.998046875 122 c 0
 175.998046875 125.333007812 170.998046875 130.166015625 166.998046875 136.499023438 c 0
 162.998046875 142.83203125 160.33203125 150.665039062 158.998046875 159.998046875 c 0
 157.666015625 169.331054688 159.666015625 178.998046875 164.998046875 188.998046875 c 2
 231.998046875 297.998046875 l 1
 177.33203125 294.665039062 136.998046875 292.998046875 110.998046875 292.998046875 c 0
 94.998046875 292.998046875 82.33203125 298.331054688 72.998046875 308.998046875 c 0
 63.666015625 319.665039062 58.998046875 330.998046875 58.998046875 342.998046875 c 0
 58.998046875 348.998046875 59.83203125 355.165039062 61.498046875 361.498046875 c 0
 63.166015625 367.831054688 65.666015625 373.831054688 68.998046875 379.498046875 c 0
 72.33203125 385.165039062 77.498046875 389.665039062 84.498046875 392.998046875 c 0
 91.498046875 396.331054688 99.33203125 397.6640625 107.998046875 396.997070312 c 0x80
 138.666015625 394.330078125 183.998046875 390.997070312 243.998046875 386.997070312 c 1
 215.33203125 435.6640625 191.665039062 472.997070312 172.998046875 498.997070312 c 0
 165.079101562 512.006835938 161.119140625 524.776367188 161.119140625 537.306640625 c 0
 161.119140625 539.544921875 161.24609375 541.775390625 161.498046875 543.998046875 c 0
 163.166015625 558.665039062 169.333007812 568.33203125 180 572.999023438 c 0
 186 576.999023438 193.5 579.166015625 202.5 579.499023438 c 0
 211.5 579.83203125 220.666015625 577.33203125 230 571.999023438 c 0
 239.333007812 566.666015625 246.666015625 558.666015625 251.998046875 547.999023438 c 0
 259.33203125 531.999023438 278.998046875 493.666015625 310.998046875 432.999023438 c 1
 337.666015625 478.33203125 357.666015625 516.33203125 370.998046875 546.999023438 c 0
 375.666015625 557.666015625 382.498046875 565.666015625 391.498046875 570.999023438 c 0
 400.498046875 576.33203125 409.166015625 578.83203125 417.498046875 578.499023438 c 0
 425.83203125 578.166015625 432.998046875 575.666015625 438.998046875 570.999023438 c 0
 445.666015625 567.666015625 451.166015625 562.333007812 455.498046875 555 c 0
 459.83203125 547.666992188 461.998046875 539 461.998046875 529 c 0
 461.998046875 519 458.666015625 509.333007812 451.998046875 500 c 0
 430.666015625 468.666992188 407.333007812 429.666992188 382 383 c 1
 440 383 481.333007812 386.666992188 506 394 c 0
 510.666015625 395.485351562 515.130859375 396.227539062 519.392578125 396.227539062 c 0
 528.525390625 396.227539062 536.728515625 392.818359375 544.000976562 386 c 0
 554.66796875 376 560.333984375 365.333007812 561.001953125 354 c 0
 561.001953125 348 560.333984375 342 559.001953125 336 c 0
 557.668945312 330 555.3359375 324 552.001953125 318 c 0
 548.669921875 312 544.001953125 307.333007812 538.001953125 304 c 0
 532.001953125 300.666992188 524.669921875 300 516.001953125 302 c 0
 499.001953125 305 469.813476562 306.5 428.4375 306.5 c 0
 414.646484375 306.5 399.500976562 306.333007812 383.001953125 306 c 1
 450.001953125 190 l 2
 455.9765625 177.506835938 458.962890625 166.23046875 458.962890625 156.170898438 c 0
 458.962890625 153.883789062 458.809570312 151.66015625 458.500976562 149.499023438 c 0
 456.833984375 137.83203125 452.000976562 129.33203125 444.000976562 123.999023438 c 0
 437.333984375 119.999023438 428.833984375 117.666015625 418.500976562 116.999023438 c 0
 417.208984375 116.916015625 415.916015625 116.874023438 414.625 116.874023438 c 2
 387.501953125 122.999023438 l 2
 377.168945312 127.666015625 370.668945312 135.333007812 368.001953125 146 c 0
 359.333984375 172.666992188 341.66796875 211 315.000976562 261 c 1
 283.66796875 199.666992188 264.333984375 159 257.001953125 139 c 0x40
EndSplineSet
EndChar

StartChar: plus
Encoding: 43 43 11
Width: 620
GlyphClass: 2
Flags: HMW
HStem: 359.8 79.1992
VStem: 268.04 80.9971
LayerCount: 2
Fore
SplineSet
349.037109375 250 m 0
 349.037109375 234.666992188 345.708007812 223.833007812 339.041015625 217.5 c 0
 332.374023438 211.166992188 323.041015625 208 311.041015625 208 c 0
 282.374023438 208 268.041015625 222 268.041015625 250 c 2
 268.041015625 357 l 1
 254.708007812 357 236.708007812 356.833007812 214.041015625 356.5 c 0
 191.374023438 356.166992188 175.70703125 356 167.040039062 356 c 0
 150.373046875 356 138.040039062 360.166992188 130.040039062 368.5 c 0
 118.399414062 380.625 117.962890625 393.616210938 117.962890625 401.888671875 c 0
 117.962890625 413.296875 121.655273438 423.000976562 129.040039062 431.000976562 c 0
 136.46875 439.048828125 147.6328125 443.072265625 162.533203125 443.072265625 c 0
 163.6796875 443.072265625 164.848632812 443.048828125 166.040039062 443.000976562 c 0
 212.70703125 441.66796875 246.70703125 441.000976562 268.040039062 441.000976562 c 1
 268.040039062 499.8203125 265.955078125 548.575195312 265.955078125 552.581054688 c 0
 265.955078125 578.860351562 280.31640625 592 309.040039062 592 c 0
 310.374023438 592.06640625 311.682617188 592.099609375 312.965820312 592.099609375 c 0
 324.514648438 592.099609375 334.0390625 589.399414062 341.538085938 584 c 0
 348.721679688 578.827148438 352.313476562 569.69140625 352.313476562 556.590820312 c 0
 352.313476562 554.495117188 352.221679688 552.297851562 352.038085938 549.999023438 c 0
 350.038085938 511.33203125 349.038085938 474.33203125 349.038085938 438.999023438 c 1
 459.038085938 438.999023438 l 2
 474.37109375 438.999023438 485.204101562 435.666015625 491.537109375 428.999023438 c 0
 497.870117188 422.33203125 501.370117188 413.33203125 502.037109375 401.999023438 c 0
 502.037109375 395.999023438 501.370117188 390.499023438 500.037109375 385.499023438 c 0
 498.704101562 380.499023438 496.704101562 375.666015625 494.037109375 370.999023438 c 0
 491.370117188 366.33203125 487.037109375 362.83203125 481.037109375 360.499023438 c 0
 475.037109375 358.166015625 467.704101562 357.333007812 459.037109375 358 c 0
 448.637695312 359.200195312 431.158203125 359.799804688 406.598632812 359.799804688 c 0
 390.224609375 359.799804688 370.704101562 359.533203125 348.037109375 359 c 1
 348.037109375 341 348.204101562 319.666992188 348.537109375 295 c 0
 348.870117188 270.333007812 349.037109375 255.333007812 349.037109375 250 c 0
EndSplineSet
EndChar

StartChar: comma
Encoding: 44 44 12
Width: 620
GlyphClass: 2
Flags: HMW
VStem: 207.51 204.501
LayerCount: 2
Fore
SplineSet
412.010742188 96 m 0
 405.34375 63.3330078125 391.010742188 12.9990234375 369.010742188 -55.0009765625 c 0
 347.010742188 -123.000976562 330.010742188 -165.000976562 318.010742188 -181.000976562 c 0
 307.34375 -195.000976562 293.84375 -205.000976562 277.510742188 -211.000976562 c 0
 267.7109375 -214.600585938 258.811523438 -216.400390625 250.811523438 -216.400390625 c 0
 245.478515625 -216.400390625 240.544921875 -215.600585938 236.01171875 -214.000976562 c 0
 229.344726562 -212.000976562 223.177734375 -208.000976562 217.510742188 -202.000976562 c 0
 211.84375 -196.000976562 208.510742188 -188.66796875 207.510742188 -180.000976562 c 0
 206.510742188 -171.333984375 209.010742188 -162.333984375 215.010742188 -153.000976562 c 0
 229.010742188 -133.000976562 248.34375 -89.0009765625 273.010742188 -21.0009765625 c 0
 297.677734375 46.9990234375 312.677734375 94.33203125 318.010742188 120.999023438 c 0
 320.010742188 130.33203125 324.677734375 137.665039062 332.010742188 142.998046875 c 0
 339.34375 148.331054688 347.010742188 150.998046875 355.010742188 150.998046875 c 0
 363.010742188 150.998046875 371.010742188 150.331054688 379.010742188 148.998046875 c 0
 389.677734375 145.665039062 398.344726562 139.33203125 405.01171875 129.999023438 c 0
 410.139648438 122.8203125 412.703125 114.458007812 412.703125 104.912109375 c 0
 412.703125 102.047851562 412.47265625 99.0771484375 412.010742188 96 c 0
EndSplineSet
EndChar

StartChar: hyphen
Encoding: 45 45 13
Width: 620
GlyphClass: 2
Flags: HMW
HStem: 243 87<184.763 210.429> 251 82<418.097 428.763 418.097 435.429>
VStem: 155.905 308.191
LayerCount: 2
Fore
SplineSet
197.095703125 330 m 0xa0
 235.095703125 330 280.4296875 330.5 333.096679688 331.5 c 0
 385.763671875 332.5 415.096679688 333 421.096679688 333 c 0
 436.4296875 333 447.262695312 329.5 453.595703125 322.5 c 0
 459.928710938 315.5 463.428710938 306.333007812 464.095703125 295 c 0
 464.095703125 265.666992188 449.762695312 251 421.095703125 251 c 0x60
 412.428710938 251 378.928710938 249.666992188 320.595703125 247 c 0
 262.262695312 244.333007812 221.762695312 243 199.095703125 243 c 0
 170.428710938 243 156.095703125 257.333007812 156.095703125 286 c 0
 155.967773438 287.872070312 155.904296875 289.684570312 155.904296875 291.4375 c 0
 155.904296875 317.145507812 169.634765625 330 197.095703125 330 c 0xa0
EndSplineSet
EndChar

StartChar: period
Encoding: 46 46 14
Width: 620
GlyphClass: 2
Flags: HMW
HStem: -14.5617 154.604
VStem: 227.999 164.001
LayerCount: 2
Fore
SplineSet
312 -14 m 0
 308.536132812 -14.3740234375 305.161132812 -14.5615234375 301.875 -14.5615234375 c 0
 281.7578125 -14.5615234375 264.965820312 -7.5439453125 251.5 6.49609375 c 0
 235.83203125 22.8291015625 228 41.99609375 228 63.99609375 c 0
 228 84.6630859375 236.83203125 102.330078125 254.5 116.997070312 c 0
 272.166015625 131.6640625 291.333007812 139.331054688 312 139.998046875 c 0
 313.037109375 140.02734375 314.06640625 140.041992188 315.087890625 140.041992188 c 0
 337.029296875 140.041992188 355.16796875 133.194335938 369.5 119.499023438 c 0
 384.5 105.166015625 392 86.9990234375 392 64.9990234375 c 0
 392 43.666015625 384.66796875 25.8330078125 370 11.5 c 0
 355.333007812 -2.8330078125 336 -11.3330078125 312 -14 c 0
EndSplineSet
EndChar

StartChar: slash
Encoding: 47 47 15
Width: 620
GlyphClass: 2
Flags: W
LayerCount: 2
Fore
SplineSet
551.029296875 676 m 0
 533.696289062 642 485.029296875 558.49609375 405.029296875 425.49609375 c 0
 325.029296875 292.49609375 276.362304688 209.99609375 259.029296875 177.99609375 c 0
 248.362304688 157.329101562 231.029296875 122.329101562 207.029296875 72.99609375 c 0
 183.029296875 23.6630859375 168.029296875 -6.3369140625 162.029296875 -17.00390625 c 0
 151.362304688 -35.6708984375 137.862304688 -48.6708984375 121.529296875 -56.00390625 c 0
 113.362304688 -59.669921875 105.737304688 -61.5029296875 98.654296875 -61.5029296875 c 0
 91.5712890625 -61.5029296875 85.029296875 -59.669921875 79.029296875 -56.0029296875 c 0
 69.029296875 -50.669921875 63.029296875 -38.3369140625 61.029296875 -19.00390625 c 0
 60.6767578125 -15.5927734375 60.5 -12.2333984375 60.5 -8.92578125 c 0
 60.5 6.51171875 64.34375 20.8193359375 72.0302734375 33.99609375 c 0
 169.36328125 193.99609375 252.696289062 336.329101562 322.029296875 460.99609375 c 0
 365.362304688 537.663085938 411.362304688 624.330078125 460.029296875 720.997070312 c 0
 465.362304688 731.6640625 472.6953125 739.831054688 482.028320312 745.498046875 c 0
 491.361328125 751.165039062 500.361328125 753.83203125 509.028320312 753.499023438 c 0
 517.6953125 753.166015625 526.362304688 751.333007812 535.029296875 748 c 0
 547.029296875 742 554.696289062 732.666992188 558.029296875 720 c 0
 559.009765625 716.274414062 559.5 712.375976562 559.5 708.3046875 c 0
 559.5 698.533203125 556.676757812 687.764648438 551.029296875 676 c 0
EndSplineSet
EndChar

StartChar: zero
Encoding: 48 48 16
Width: 620
GlyphClass: 2
Flags: HMW
HStem: -24 83.999 636.999 81.001
VStem: 74.0782 95.502 449.082 96.8403
LayerCount: 2
Fore
SplineSet
288.076171875 -24 m 0
 256.743164062 -24 227.912109375 -18.33203125 201.579101562 -6.9990234375 c 0
 175.24609375 4.333984375 152.74609375 20.0009765625 134.079101562 40.0009765625 c 0
 115.412109375 60.0009765625 100.745117188 85.0009765625 90.078125 115.000976562 c 0
 80.0390625 143.235351562 75.01953125 174.126953125 75.01953125 207.67578125 c 0
 75.01953125 209.7734375 75.0390625 211.881835938 75.078125 214 c 0
 75.078125 220.666992188 74.9111328125 237.166992188 74.578125 263.5 c 0
 74.2451171875 289.833007812 74.078125 310.833007812 74.078125 326.5 c 0
 74.078125 342.166992188 74.578125 363.833984375 75.578125 391.500976562 c 0
 76.578125 419.16796875 78.4111328125 443.000976562 81.078125 463.000976562 c 0
 83.7451171875 483.000976562 87.2451171875 504.500976562 91.578125 527.500976562 c 0
 95.9111328125 550.500976562 101.744140625 570.66796875 109.077148438 588.000976562 c 0
 125.077148438 630.000976562 152.077148438 662.16796875 190.077148438 684.500976562 c 0
 228.077148438 706.833984375 274.41015625 718.000976562 329.077148438 718.000976562 c 0
 356.41015625 718.000976562 382.077148438 713.333984375 406.077148438 704.000976562 c 0
 430.077148438 694.66796875 451.41015625 681.000976562 470.077148438 663.000976562 c 0
 488.744140625 645.000976562 504.244140625 621.66796875 516.577148438 593.000976562 c 0
 528.91015625 564.333984375 536.743164062 531.333984375 540.076171875 494.000976562 c 0
 542.743164062 460.66796875 544.576171875 422.834960938 545.576171875 380.501953125 c 0
 545.806640625 370.733398438 545.921875 360.947265625 545.921875 351.143554688 c 0
 545.921875 318.459960938 544.639648438 285.579101562 542.076171875 252.500976562 c 0
 538.743164062 209.500976562 534.076171875 176.66796875 528.076171875 154.000976562 c 0
 522.076171875 131.333984375 515.409179688 111.333984375 508.076171875 94.0009765625 c 0
 500.743164062 76.66796875 492.91015625 61.66796875 484.577148438 49.0009765625 c 0
 476.244140625 36.333984375 466.911132812 25.6669921875 456.578125 17 c 0
 446.245117188 8.3330078125 435.245117188 1.3330078125 423.578125 -4 c 0
 411.911132812 -9.3330078125 398.744140625 -13.5 384.077148438 -16.5 c 0
 369.41015625 -19.5 354.743164062 -21.5 340.076171875 -22.5 c 0
 325.409179688 -23.5 308.076171875 -24 288.076171875 -24 c 0
173.078125 230.000976562 m 0
 173.078125 227.333984375 173.249023438 223.333984375 173.58203125 218.000976562 c 0
 173.915039062 212.66796875 174.08203125 209.000976562 174.08203125 207.000976562 c 1
 263.415039062 329.000976562 343.748046875 454.333984375 415.081054688 583.000976562 c 1
 403.081054688 600.333984375 388.4140625 613.666992188 371.081054688 623 c 0
 353.748046875 632.333007812 335.081054688 637 315.081054688 637 c 0
 277.748046875 637 248.581054688 626.666992188 227.581054688 606 c 0
 206.581054688 585.333007812 190.748046875 552 180.081054688 506 c 0
 176.081054688 489.333007812 173.248046875 469.833007812 171.581054688 447.5 c 0
 170.19140625 428.885742188 169.497070312 407.029296875 169.497070312 381.930664062 c 0
 169.497070312 376.916992188 169.524414062 371.7734375 169.580078125 366.500976562 c 0
 169.913085938 334.833984375 170.24609375 312.500976562 170.579101562 299.500976562 c 0
 170.912109375 286.500976562 171.745117188 263.333984375 173.078125 230.000976562 c 0
434.08203125 168.000976562 m 0
 436.749023438 176.000976562 439.58203125 198 442.58203125 234 c 0
 445.58203125 270 447.749023438 311.166992188 449.08203125 357.5 c 0
 449.462890625 370.736328125 449.653320312 383.823242188 449.653320312 396.760742188 c 0
 449.653320312 429.109375 448.462890625 460.522460938 446.08203125 491 c 1
 374.749023438 344.333007812 290.749023438 221.333007812 194.08203125 122 c 1
 212.08203125 80.6669921875 243.415039062 60 288.08203125 60 c 0
 306.08203125 60 322.249023438 61.5 336.58203125 64.5 c 0
 350.915039062 67.5 364.58203125 72.8330078125 377.58203125 80.5 c 0
 390.58203125 88.1669921875 401.58203125 99.333984375 410.58203125 114.000976562 c 0
 419.58203125 128.66796875 427.415039062 146.66796875 434.08203125 168.000976562 c 0
EndSplineSet
EndChar

StartChar: one
Encoding: 49 49 17
Width: 620
GlyphClass: 2
Flags: HMW
HStem: -9 85.5 -5 89<103.004 126.004 103.004 126.004> 511.539 21G
VStem: 262.337 96.6644 272.003 91.498
LayerCount: 2
Fore
SplineSet
553.08203125 34.8388671875 m 0xb0
 553.08203125 22.892578125 549.556640625 12.779296875 542.50390625 4.5 c 0
 534.837890625 -4.5 521.337890625 -9 502.00390625 -9 c 0xb0
 493.337890625 -9 433.837890625 -8.3330078125 323.50390625 -7 c 0
 213.170898438 -5.6669921875 142.00390625 -5 110.00390625 -5 c 0
 95.337890625 -5 84.50390625 -1 77.50390625 7 c 0
 70.50390625 15 67.00390625 25.3330078125 67.00390625 38 c 0
 66.947265625 39.16015625 66.91796875 40.302734375 66.91796875 41.4267578125 c 0
 66.91796875 53.2294921875 70.11328125 63.0869140625 76.50390625 71 c 0
 83.50390625 79.6669921875 95.00390625 84 111.00390625 84 c 0
 141.00390625 84 192.00390625 83.6669921875 264.00390625 83 c 1
 264.00390625 109.666992188 263.670898438 131 263.00390625 147 c 0
 262.55859375 150.556640625 262.3359375 159.600585938 262.3359375 174.131835938 c 0x70
 262.3359375 181.38671875 262.392578125 190.009765625 262.502929688 200 c 0
 262.8359375 230 263.002929688 251.666992188 263.002929688 265 c 0
 263.002929688 278.333007812 263.669921875 303 265.002929688 339 c 0
 266.3359375 375 267.3359375 401.833007812 268.002929688 419.5 c 0
 268.669921875 437.166992188 270.002929688 465.166992188 272.002929688 503.5 c 0
 274.002929688 541.833007812 275.3359375 570 276.002929688 588 c 1
 226.669921875 546.666992188 190.669921875 522 168.002929688 514 c 0
 163.900390625 512.359375 159.783203125 511.5390625 155.6484375 511.5390625 c 0
 146.346679688 511.5390625 136.96484375 515.692382812 127.502929688 524 c 0
 114.47265625 535.44140625 107.95703125 546.8828125 107.95703125 558.32421875 c 0
 107.95703125 558.8828125 107.97265625 559.44140625 108.00390625 560 c 0
 108.00390625 570.666992188 110.3359375 580.166992188 115.002929688 588.5 c 0
 119.669921875 596.833007812 128.002929688 605.333007812 140.002929688 614 c 0
 159.3359375 628.666992188 179.669921875 644.833984375 201.001953125 662.500976562 c 0
 222.334960938 680.16796875 237.66796875 693.000976562 247.001953125 701.000976562 c 0
 256.333984375 709.000976562 266.001953125 715.833984375 276.001953125 721.500976562 c 0
 286.001953125 727.16796875 294.66796875 730.000976562 302.001953125 730.000976562 c 0
 316.001953125 730.000976562 330.66796875 724.000976562 346.001953125 712.000976562 c 0
 361.333984375 700.000976562 369.001953125 690.000976562 369.001953125 682.000976562 c 0
 369.001953125 666.66796875 367.16796875 612.16796875 363.501953125 518.500976562 c 0x68
 359.833984375 424.833984375 358.001953125 370.000976562 358.001953125 354.000976562 c 0
 358.001953125 287.333984375 358.333984375 231.666992188 359.001953125 187 c 0
 359.001953125 162.333007812 359.66796875 126.333007812 361.001953125 79 c 1
 380.333984375 79 400.666992188 78.6669921875 422 78 c 0
 443.333984375 77.3330078125 460.833984375 76.8330078125 474.5 76.5 c 0
 488.166992188 76.1669921875 498 76 504 76 c 0
 522.666992188 76 535.333984375 72.5 542.001953125 65.5 c 0
 547.42578125 59.8046875 553.08203125 50.1865234375 553.08203125 34.8388671875 c 0xb0
EndSplineSet
EndChar

StartChar: two
Encoding: 50 50 18
Width: 620
GlyphClass: 2
Flags: HMW
HStem: -18.0049 84.0049 -14.0059 91.0059 637.997 83.999
VStem: 76.8344 99.9971 429.833 98.9971
LayerCount: 2
Fore
SplineSet
509.83203125 -12 m 0x78
 481.83203125 -12 447.001953125 -12.6728515625 405.334960938 -14.005859375 c 0x78
 363.66796875 -15.3388671875 326.834960938 -16.671875 294.834960938 -18.0048828125 c 0
 262.834960938 -19.337890625 230.001953125 -20.0048828125 196.334960938 -20.0048828125 c 0
 162.66796875 -20.0048828125 136.500976562 -18.671875 117.833984375 -16.0048828125 c 0
 103.166992188 -14.671875 92.6669921875 -5.671875 86.333984375 10.9951171875 c 0
 80.0009765625 27.662109375 76.833984375 51.662109375 76.833984375 82.9951171875 c 0
 76.833984375 111.662109375 83.0009765625 141.829101562 95.333984375 173.49609375 c 0
 107.666992188 205.163085938 125.833984375 235.49609375 149.833984375 264.49609375 c 0
 173.833984375 293.49609375 201.833984375 316.99609375 233.833984375 334.99609375 c 0
 305.166992188 374.99609375 351.166992188 402.99609375 371.833984375 418.99609375 c 0
 399.166992188 440.329101562 416.5 462.99609375 423.833007812 486.99609375 c 0
 427.833007812 500.99609375 429.833007812 518.329101562 429.833007812 538.99609375 c 0
 429.833007812 573.663085938 419.666015625 598.830078125 399.333007812 614.497070312 c 0
 379 630.1640625 350.166992188 637.997070312 312.833984375 637.997070312 c 0
 286.833984375 637.997070312 262.000976562 629.997070312 238.333984375 613.997070312 c 0
 214.666992188 597.997070312 196.5 580.330078125 183.833007812 560.997070312 c 0
 177.833007812 552.330078125 172.166015625 545.497070312 166.833007812 540.497070312 c 0
 161.5 535.497070312 155.833007812 532.6640625 149.833007812 531.997070312 c 0
 143.833007812 531.330078125 138.5 531.663085938 133.833007812 532.99609375 c 0
 129.166015625 534.329101562 122.833007812 536.662109375 114.833007812 539.995117188 c 0
 103.5 545.995117188 96.5 554.662109375 93.8330078125 565.995117188 c 0
 93.166015625 568.828125 92.8330078125 571.870117188 92.8330078125 575.120117188 c 0
 92.8330078125 584.870117188 95.8330078125 596.495117188 101.833007812 609.995117188 c 0
 108.5 622.662109375 118.5 635.329101562 131.833007812 647.99609375 c 0
 145.166015625 660.663085938 160.499023438 672.663085938 177.83203125 683.99609375 c 0
 195.165039062 695.329101562 215.498046875 704.49609375 238.831054688 711.49609375 c 0
 262.1640625 718.49609375 285.497070312 721.99609375 308.830078125 721.99609375 c 0
 380.830078125 721.99609375 435.497070312 705.329101562 472.830078125 671.99609375 c 0
 510.163085938 638.663085938 528.830078125 588.663085938 528.830078125 521.99609375 c 0
 528.830078125 466.663085938 514.830078125 422.330078125 486.830078125 388.997070312 c 0
 466.163085938 364.330078125 428.830078125 336.997070312 374.830078125 306.997070312 c 0
 361.497070312 298.997070312 338.497070312 286.6640625 305.830078125 269.997070312 c 0
 277.163085938 254.6640625 253.163085938 235.831054688 233.830078125 213.498046875 c 0
 214.497070312 191.165039062 200.6640625 168.33203125 192.331054688 144.999023438 c 0
 183.998046875 121.666015625 178.831054688 96.3330078125 176.831054688 69 c 1
 214.1640625 67 250.1640625 66 284.831054688 66 c 0xb8
 319.498046875 66 346.498046875 66.5 365.831054688 67.5 c 0
 385.1640625 68.5 407.497070312 70 432.830078125 72 c 0
 458.163085938 74 474.830078125 75.3330078125 482.830078125 76 c 0
 483.497070312 76 486.6640625 76.1669921875 492.331054688 76.5 c 0
 497.998046875 76.8330078125 501.831054688 77 503.831054688 77 c 2
 513.831054688 77 l 2
 518.498046875 77 521.998046875 76.3330078125 524.331054688 75 c 0
 526.6640625 73.6669921875 529.331054688 72 532.331054688 70 c 0
 535.331054688 68 537.6640625 65.3330078125 539.331054688 62 c 0
 540.998046875 58.6669921875 542.165039062 54.6669921875 542.83203125 50 c 0
 543.499023438 42 543.166015625 33.5 541.833007812 24.5 c 0
 540.5 15.5 537 7.1669921875 531.333007812 -0.5 c 0
 525.666015625 -8.1669921875 518.499023438 -12 509.83203125 -12 c 0x78
EndSplineSet
EndChar

StartChar: three
Encoding: 51 51 19
Width: 620
GlyphClass: 2
Flags: HMW
HStem: -23.9941 84 318.006 100 638.006 83.998
VStem: 417.02 99.0491 439.002 99.998
LayerCount: 2
Fore
SplineSet
539 199 m 0xe8
 539 130.333007812 517.830078125 76.0078125 475.497070312 36.0078125 c 0
 433.1640625 -3.9921875 373.6640625 -23.9921875 296.997070312 -23.9921875 c 0
 273.6640625 -23.9921875 250.33203125 -20.4921875 226.998046875 -13.4921875 c 0
 203.665039062 -6.4921875 183.498046875 2.5078125 166.498046875 13.5078125 c 0
 149.498046875 24.5078125 134.33203125 36.5078125 120.998046875 49.5078125 c 0
 107.666015625 62.5078125 97.33203125 75.3408203125 90 88.0078125 c 0
 84 99.5078125 81 110.2578125 81 120.2578125 c 0
 81 123.590820312 81.33203125 126.840820312 82 130.0078125 c 0
 84.666015625 142.674804688 92 151.674804688 104 157.0078125 c 0
 113.1953125 161.60546875 121.755859375 163.904296875 129.68359375 163.904296875 c 0
 133.25 163.904296875 136.689453125 163.438476562 140 162.5078125 c 0
 150.66796875 159.5078125 161.333984375 151.0078125 172.000976562 137.0078125 c 0
 186.66796875 117.0078125 205.3359375 99.1748046875 228.001953125 83.5078125 c 0
 250.668945312 67.8408203125 275.001953125 60.0078125 301.001953125 60.0078125 c 0
 341.001953125 60.0078125 374.001953125 71.3408203125 400.001953125 94.0078125 c 0
 426.001953125 116.674804688 439.001953125 146.0078125 439.001953125 182.0078125 c 0xe8
 439.001953125 204.0078125 435.668945312 223.0078125 429.001953125 239.0078125 c 0
 422.3359375 255.0078125 411.66796875 269.0078125 397.000976562 281.0078125 c 0
 382.333984375 293.0078125 362.16796875 302.174804688 336.5 308.5078125 c 0
 310.833007812 314.840820312 281 318.0078125 247 318.0078125 c 0
 233 318.0078125 220.833007812 323.5078125 210.5 334.5078125 c 0
 200.16796875 345.5078125 195 357.674804688 195 371.0078125 c 0
 195 385.0078125 198.66796875 396.340820312 206 405.0078125 c 0
 213.333007812 413.674804688 224 418.0078125 238 418.0078125 c 0
 294 418.0078125 338 429.174804688 370 451.5078125 c 0
 401.34765625 473.384765625 417.020507812 505.017578125 417.020507812 546.407226562 c 0
 417.020507812 547.26953125 417.013671875 548.13671875 417 549.0078125 c 0
 417.01953125 549.903320312 417.029296875 550.791992188 417.029296875 551.673828125 c 0
 417.029296875 580.333984375 406.51953125 601.778320312 385.5 616.006835938 c 0
 363.833007812 630.673828125 332.666015625 638.006835938 292 638.006835938 c 0
 284 638.006835938 276.166015625 637.173828125 268.5 635.506835938 c 0
 260.83203125 633.83984375 254.665039062 632.172851562 249.998046875 630.505859375 c 0
 245.33203125 628.838867188 240.33203125 626.005859375 234.998046875 622.005859375 c 0
 229.665039062 618.005859375 225.165039062 614.672851562 221.498046875 612.005859375 c 0
 217.83203125 609.338867188 213.83203125 605.005859375 209.498046875 599.005859375 c 0
 205.165039062 593.005859375 201.83203125 588.838867188 199.5 586.505859375 c 0
 197.166015625 584.172851562 194 579.33984375 190 572.006835938 c 0
 179.33203125 557.33984375 168.5 548.672851562 157.5 546.005859375 c 0
 154.356445312 545.244140625 151.118164062 544.86328125 147.78515625 544.86328125 c 0
 139.451171875 544.86328125 130.5234375 547.244140625 121 552.005859375 c 0
 109.666015625 557.338867188 102.833984375 566.171875 100.5 578.504882812 c 0
 99.896484375 581.702148438 99.59375 585.044921875 99.59375 588.533203125 c 0
 99.59375 598.500976562 102.0625 609.658203125 107.001953125 622.004882812 c 0
 113.66796875 635.337890625 122.3359375 647.504882812 133.001953125 658.504882812 c 0
 143.668945312 669.504882812 156.001953125 680.004882812 170.001953125 690.004882812 c 0
 184.001953125 700.004882812 201.168945312 707.837890625 221.501953125 713.504882812 c 0
 241.8359375 719.171875 263.66796875 722.004882812 287.000976562 722.004882812 c 0
 363.66796875 722.004882812 421.3359375 706.004882812 460.001953125 674.004882812 c 0
 497.379882812 643.071289062 516.0703125 597.809570312 516.0703125 538.21875 c 0xf0
 516.0703125 536.1640625 516.046875 534.092773438 516.00390625 532.00390625 c 0
 516.00390625 512.670898438 513.50390625 495.170898438 508.50390625 479.50390625 c 0
 503.50390625 463.836914062 496.669921875 450.50390625 488.00390625 439.50390625 c 0
 479.3359375 428.50390625 468.668945312 418.836914062 456.001953125 410.50390625 c 0
 443.3359375 402.170898438 430.501953125 395.670898438 417.501953125 391.00390625 c 0
 404.501953125 386.336914062 390.668945312 382.669921875 376.001953125 380.002929688 c 1
 403.3359375 374.002929688 426.66796875 366.669921875 446.000976562 358.002929688 c 0
 465.333984375 349.3359375 482.16796875 338.168945312 496.5 324.501953125 c 0
 510.833007812 310.834960938 521.5 293.66796875 528.5 273.000976562 c 0
 535.5 252.333984375 539 227.666992188 539 199 c 0xe8
EndSplineSet
EndChar

StartChar: four
Encoding: 52 52 20
Width: 620
GlyphClass: 2
Flags: HMW
HStem: -23.001 21G 224.234 80.335
VStem: 377.003 87.4971 384.002 88.998 384.002 97.0561
LayerCount: 2
Fore
SplineSet
479 55 m 0xd0
 480.372070312 47.68359375 481.057617188 40.71875 481.057617188 34.107421875 c 0
 481.057617188 21.4423828125 478.540039062 10.072265625 473.502929688 -0.001953125 c 0
 465.8359375 -15.3349609375 454.668945312 -23.001953125 440.001953125 -23.001953125 c 0
 427.334960938 -23.001953125 415.001953125 -18.1689453125 403.001953125 -8.501953125 c 0
 391.001953125 1.1650390625 384.668945312 10.998046875 384.001953125 20.998046875 c 2
 384.001953125 59.998046875 l 1
 384.001953125 137.498046875 l 1xc8
 384.001953125 223.998046875 l 1xd0
 369.729492188 224.155273438 355.973632812 224.233398438 342.734375 224.233398438 c 0
 243.423828125 224.233398438 173.1796875 219.822265625 132.001953125 210.999023438 c 0
 121.334960938 208.999023438 111.66796875 209.33203125 103.000976562 211.999023438 c 0
 94.333984375 214.666015625 87.5009765625 219.333007812 82.5009765625 226 c 0
 77.5009765625 232.666992188 73.66796875 240.333984375 71.0009765625 249.000976562 c 0
 68.333984375 257.66796875 67.0009765625 266.66796875 67.0009765625 276.000976562 c 0
 67.0009765625 285.333984375 68.66796875 294.333984375 72.0009765625 303.000976562 c 0
 78.66796875 321.66796875 96.5009765625 352.16796875 125.500976562 394.500976562 c 0
 154.500976562 436.833984375 192.16796875 489.166992188 238.500976562 551.5 c 0
 284.833984375 613.833007812 317.666992188 659 337 687 c 0
 345.666992188 699.666992188 355.5 709.166992188 366.5 715.5 c 0
 377.5 721.833007812 388 725 398 725 c 0
 400.423828125 725.2421875 402.809570312 725.36328125 405.15625 725.36328125 c 0
 415.71875 725.36328125 425.5 722.909179688 434.5 718 c 0
 445.5 712 452.333007812 701.666992188 455 687 c 0
 459 663.666992188 462.166992188 627.666992188 464.5 579 c 0xe0
 466.833007812 530.333007812 468.333007812 489.166015625 469 455.499023438 c 0
 469.666992188 421.83203125 470.666992188 370.999023438 472 302.999023438 c 1
 483.333007812 302.33203125 496 301.999023438 510 301.999023438 c 0
 525.333007812 301.999023438 536.166015625 298.499023438 542.499023438 291.499023438 c 0
 548.83203125 284.499023438 552.33203125 275.33203125 552.999023438 263.999023438 c 0
 552.999023438 234.666015625 538.666015625 219.999023438 509.999023438 219.999023438 c 0
 496.666015625 219.999023438 484.333007812 220.33203125 473 220.999023438 c 1
 474.333007812 123.666015625 476.333007812 68.3330078125 479 55 c 0xd0
377.001953125 601.997070312 m 1xe0
 278.334960938 472.6640625 211.334960938 372.330078125 176.001953125 300.997070312 c 1
 213.146484375 303.377929688 259.134765625 304.568359375 313.967773438 304.568359375 c 0
 335.897460938 304.568359375 359.2421875 304.377929688 384.001953125 303.997070312 c 1
 384.001953125 428.6640625 381.668945312 527.997070312 377.001953125 601.997070312 c 1xe0
EndSplineSet
EndChar

StartChar: five
Encoding: 53 53 21
Width: 620
GlyphClass: 2
Flags: HMW
HStem: -18.001 83.998 419.997 89.0029 619 88.998 630 79.998
VStem: 82.5984 93.405 89.9984 88.0029 447.996 100.006
LayerCount: 2
Fore
SplineSet
548.001953125 296 m 0xda
 548.001953125 246.666992188 541.827148438 202.166015625 529.494140625 162.499023438 c 0
 517.162109375 122.83203125 499.828125 89.83203125 477.495117188 63.4990234375 c 0
 455.162109375 37.166015625 428.330078125 16.9990234375 396.99609375 2.9990234375 c 0
 365.663085938 -11.0009765625 331.330078125 -18.0009765625 293.998046875 -18.0009765625 c 0
 264.6640625 -18.0009765625 237.6640625 -15.0009765625 212.998046875 -9.0009765625 c 0
 188.330078125 -3.0009765625 167.663085938 5.33203125 150.99609375 15.9990234375 c 0
 134.330078125 26.666015625 120.330078125 37.8330078125 108.99609375 49.5 c 0
 97.6640625 61.1669921875 88.330078125 73.333984375 80.998046875 86.0009765625 c 0
 74.998046875 99.5009765625 71.998046875 111.125976562 71.998046875 120.875976562 c 0
 71.998046875 124.125976562 72.330078125 127.16796875 72.998046875 130.000976562 c 0
 75.6640625 141.333984375 82.6640625 150.000976562 93.998046875 156.000976562 c 0
 101.330078125 159.333984375 107.498046875 161.666992188 112.498046875 163 c 0
 117.498046875 164.333007812 122.998046875 164.666015625 128.998046875 163.999023438 c 0
 134.998046875 163.33203125 140.6640625 160.665039062 145.998046875 155.998046875 c 0
 151.330078125 151.331054688 156.998046875 144.6640625 162.998046875 135.997070312 c 0
 192.998046875 89.9970703125 233.6640625 66.6640625 284.998046875 65.9970703125 c 0
 334.998046875 65.9970703125 374.6640625 85.830078125 403.998046875 125.497070312 c 0
 433.330078125 165.1640625 447.998046875 218.331054688 447.998046875 284.998046875 c 0
 447.998046875 326.331054688 438.830078125 359.1640625 420.498046875 383.497070312 c 0
 402.1640625 407.830078125 373.998046875 419.997070312 335.998046875 419.997070312 c 0
 325.998046875 419.997070312 316.330078125 419.497070312 306.998046875 418.497070312 c 0
 297.6640625 417.497070312 289.6640625 416.1640625 282.998046875 414.497070312 c 0
 276.330078125 412.830078125 269.330078125 410.330078125 261.998046875 406.997070312 c 0
 254.6640625 403.6640625 248.831054688 400.997070312 244.498046875 398.997070312 c 0
 240.166015625 396.997070312 234.83203125 393.330078125 228.499023438 387.997070312 c 0
 222.166015625 382.6640625 217.999023438 378.997070312 215.999023438 376.997070312 c 0
 213.999023438 374.997070312 209.666015625 370.830078125 202.999023438 364.497070312 c 0
 196.33203125 358.1640625 192.33203125 354.331054688 190.999023438 352.998046875 c 0
 185.666015625 348.331054688 179.166015625 344.331054688 171.499023438 340.998046875 c 0
 163.83203125 337.665039062 155.33203125 335.498046875 145.999023438 334.498046875 c 0
 136.666015625 333.498046875 127.333984375 334.998046875 118 338.998046875 c 0
 106.66796875 343.665039062 98.16796875 353.998046875 92.5 369.998046875 c 0
 86.833984375 385.998046875 83.666015625 405.665039062 83 428.998046875 c 0
 82.732421875 438.331054688 82.599609375 447.530273438 82.599609375 456.596679688 c 0xda
 82.599609375 470.197265625 82.8984375 483.498046875 83.498046875 496.499023438 c 0
 84.498046875 518.166015625 85.83203125 541.499023438 87.498046875 566.499023438 c 0
 89.166015625 591.499023438 89.998046875 608.666015625 89.998046875 617.999023438 c 1
 84.666015625 626.666015625 81.33203125 636.499023438 80 647.499023438 c 0
 78.666015625 658.499023438 79.166015625 668.666015625 81.5 677.999023438 c 0
 83.83203125 687.33203125 88.5 695.33203125 95.5 701.999023438 c 0
 102.5 708.666015625 110.666015625 711.999023438 119.999023438 711.999023438 c 0
 144.666015625 711.999023438 202.833984375 711.33203125 294.5 709.999023438 c 0xd6
 386.166992188 708.666015625 456 707.999023438 504 707.999023438 c 0
 512.666992188 707.999023438 519.833984375 704.33203125 525.501953125 696.999023438 c 0
 531.16796875 689.666015625 534.834960938 681.333007812 536.501953125 672 c 0
 538.169921875 662.666992188 538.3359375 654 537.002929688 646 c 0
 536.3359375 641.333007812 535.169921875 637.333007812 533.501953125 634 c 0
 531.834960938 630.666992188 529.501953125 628.166992188 526.501953125 626.5 c 0
 523.501953125 624.833007812 520.834960938 623.333007812 518.501953125 622 c 0
 516.169921875 620.666992188 512.669921875 619.833984375 508.001953125 619.500976562 c 0
 503.334960938 619.16796875 500.001953125 619.000976562 498.001953125 619.000976562 c 0xe6
 496.001953125 619.000976562 492.169921875 619.333984375 486.501953125 620.000976562 c 0
 480.834960938 620.66796875 477.66796875 621.000976562 477.001953125 621.000976562 c 0
 467.66796875 621.000976562 451.001953125 622.000976562 427.001953125 624.000976562 c 0
 403.001953125 626.000976562 381.66796875 627.500976562 363.001953125 628.500976562 c 0
 344.333984375 629.500976562 318.333984375 630.000976562 285.001953125 630.000976562 c 0
 251.66796875 630.000976562 216.66796875 629.000976562 180.001953125 627.000976562 c 1
 180.001953125 620.333984375 179.333984375 601.000976562 178.001953125 569.000976562 c 0xd6
 176.66796875 537.000976562 175.834960938 513.833984375 175.501953125 499.500976562 c 0
 175.390625 494.727539062 175.334960938 489.270507812 175.334960938 483.129882812 c 0
 175.334960938 470.830078125 175.557617188 455.787109375 176.002929688 438 c 1
 194.669921875 458.666992188 220.002929688 475.666992188 252.002929688 489 c 0
 284.002929688 502.333007812 320.669921875 509 362.002929688 509 c 0
 391.3359375 509 417.8359375 503.5 441.502929688 492.5 c 0
 465.169921875 481.5 484.669921875 466.333007812 500.002929688 447 c 0
 515.3359375 427.666992188 527.169921875 405.166992188 535.501953125 379.5 c 0
 543.834960938 353.833007812 548.001953125 326 548.001953125 296 c 0xda
EndSplineSet
EndChar

StartChar: six
Encoding: 54 54 22
Width: 620
GlyphClass: 2
Flags: HMW
HStem: -21.9971 84.0049 393.004 87.9961
VStem: 69.9672 91.0658 452.033 98<227.333 249.672>
LayerCount: 2
Fore
SplineSet
550.033203125 246 m 0
 550.033203125 208.666992188 543.866210938 173.502929688 531.533203125 140.502929688 c 0
 519.200195312 107.502929688 502.3671875 79.169921875 481.034179688 55.5029296875 c 0
 459.701171875 31.8359375 434.201171875 13.0029296875 404.534179688 -0.9970703125 c 0
 374.8671875 -14.9970703125 343.3671875 -21.9970703125 310.034179688 -21.9970703125 c 0
 268.701171875 -21.9970703125 232.701171875 -14.1640625 202.034179688 1.5029296875 c 0
 171.3671875 17.169921875 146.200195312 39.8369140625 126.533203125 69.50390625 c 0
 106.866210938 99.1708984375 92.3662109375 134.670898438 83.033203125 176.00390625 c 0
 74.322265625 214.580078125 69.966796875 257.51171875 69.966796875 304.798828125 c 0
 69.966796875 308.177734375 69.9892578125 311.579101562 70.0341796875 315.002929688 c 0
 70.701171875 372.3359375 76.3681640625 424.002929688 87.03515625 470.002929688 c 0
 97.7021484375 516.002929688 112.53515625 554.669921875 131.53515625 586.002929688 c 0
 150.53515625 617.3359375 174.03515625 643.8359375 202.03515625 665.502929688 c 0
 230.03515625 687.169921875 260.202148438 703.669921875 292.53515625 715.002929688 c 0
 324.868164062 726.3359375 360.701171875 733.668945312 400.034179688 737.001953125 c 0
 402.954101562 737.255859375 405.807617188 737.3828125 408.594726562 737.3828125 c 0
 420.442382812 737.3828125 431.088867188 735.088867188 440.534179688 730.500976562 c 0
 452.201171875 724.833984375 458.701171875 715.666992188 460.034179688 703 c 0
 460.701171875 695 456.701171875 686.166992188 448.034179688 676.5 c 0
 439.3671875 666.833007812 429.700195312 660.333007812 419.033203125 657 c 0
 411.700195312 655 400.533203125 652.333007812 385.533203125 649 c 0
 370.533203125 645.666992188 357.700195312 642.5 347.033203125 639.5 c 0
 336.366210938 636.5 323.69921875 632 309.032226562 626 c 0
 294.365234375 620 279.865234375 611.333007812 265.532226562 600 c 0
 251.19921875 588.666992188 237.032226562 575 223.032226562 559 c 0
 208.365234375 541.666992188 194.865234375 518 182.532226562 488 c 0
 170.19921875 458 162.366210938 431.333007812 159.033203125 408 c 1
 179.700195312 432.666992188 206.700195312 451 240.033203125 463 c 0
 273.366210938 475 310.366210938 481 351.033203125 481 c 0
 381.700195312 481 409.033203125 476.666992188 433.033203125 468 c 0
 457.033203125 459.333007812 477.866210938 445.666015625 495.533203125 426.999023438 c 0
 513.200195312 408.33203125 526.700195312 383.83203125 536.033203125 353.499023438 c 0
 545.366210938 323.166015625 550.033203125 287.333007812 550.033203125 246 c 0
161.033203125 230.002929688 m 0
 162.366210938 215.3359375 165.3671875 200.506835938 170.034179688 185.506835938 c 0
 174.701171875 170.506835938 181.201171875 155.33984375 189.534179688 140.006835938 c 0
 197.8671875 124.673828125 207.700195312 111.340820312 219.033203125 100.0078125 c 0
 230.366210938 88.6748046875 244.033203125 79.5078125 260.033203125 72.5078125 c 0
 276.033203125 65.5078125 293.033203125 62.0078125 311.033203125 62.0078125 c 0
 335.700195312 62.0078125 359.033203125 70.6748046875 381.033203125 88.0078125 c 0
 403.033203125 105.340820312 420.366210938 127.173828125 433.033203125 153.506835938 c 0
 445.700195312 179.83984375 452.033203125 206.672851562 452.033203125 234.005859375 c 0
 452.033203125 265.338867188 449.366210938 291.671875 444.033203125 313.004882812 c 0
 438.700195312 334.337890625 430.200195312 350.670898438 418.533203125 362.00390625 c 0
 406.866210938 373.336914062 393.69921875 381.336914062 379.032226562 386.00390625 c 0
 364.365234375 390.670898438 346.365234375 393.00390625 325.032226562 393.00390625 c 0
 291.69921875 393.00390625 260.366210938 384.336914062 231.033203125 367.00390625 c 0
 201.700195312 349.670898438 177.700195312 327.670898438 159.033203125 301.00390625 c 1
 159.033203125 272.336914062 159.700195312 248.669921875 161.033203125 230.002929688 c 0
EndSplineSet
EndChar

StartChar: seven
Encoding: 55 55 23
Width: 620
GlyphClass: 2
Flags: HMW
HStem: -22.9443 21G 622.497 90.5
LayerCount: 2
Fore
SplineSet
209.741210938 26 m 0
 201.741210938 8.6669921875 191.236328125 -4.3349609375 178.236328125 -13.001953125 c 0
 168.294921875 -19.6298828125 158.451171875 -22.943359375 148.705078125 -22.943359375 c 0
 145.706054688 -22.943359375 142.715820312 -22.6298828125 139.735351562 -22.001953125 c 0
 125.735351562 -18.6689453125 115.90234375 -10.6689453125 110.235351562 1.998046875 c 0
 107.631835938 7.818359375 106.330078125 13.919921875 106.330078125 20.302734375 c 0
 106.330078125 27.8115234375 108.131835938 35.7099609375 111.735351562 43.998046875 c 0
 145.735351562 112.665039062 182.235351562 180.998046875 221.235351562 248.998046875 c 0
 260.235351562 316.998046875 292.568359375 371.165039062 318.235351562 411.498046875 c 0
 343.90234375 451.831054688 367.569335938 490.998046875 389.236328125 528.998046875 c 0
 410.903320312 566.998046875 425.403320312 597.998046875 432.736328125 621.998046875 c 1
 401.098632812 623.088867188 368.370117188 623.634765625 334.55078125 623.634765625 c 0
 306.370117188 623.634765625 277.431640625 623.255859375 247.736328125 622.498046875 c 0
 182.403320312 620.831054688 139.736328125 617.331054688 119.736328125 611.998046875 c 0
 111.736328125 609.998046875 104.569335938 610.331054688 98.236328125 612.998046875 c 0
 91.9033203125 615.665039062 86.736328125 619.665039062 82.736328125 624.998046875 c 0
 78.736328125 630.331054688 75.736328125 635.998046875 73.736328125 641.998046875 c 0
 71.736328125 647.998046875 70.736328125 653.998046875 70.736328125 659.998046875 c 0
 70.736328125 671.998046875 73.736328125 681.498046875 79.736328125 688.498046875 c 0
 85.736328125 695.498046875 96.736328125 700.665039062 112.736328125 703.998046875 c 0
 137.403320312 708.665039062 171.5703125 711.665039062 215.237304688 712.998046875 c 0
 237.071289062 713.6640625 258.030273438 713.997070312 278.114257812 713.997070312 c 0
 298.198242188 713.997070312 317.407226562 713.6640625 335.740234375 712.998046875 c 0
 372.407226562 711.665039062 408.407226562 710.33203125 443.740234375 708.999023438 c 0
 479.073242188 707.666015625 498.073242188 706.999023438 500.740234375 706.999023438 c 0
 507.407226562 706.999023438 514.240234375 705.499023438 521.240234375 702.499023438 c 0
 528.240234375 699.499023438 534.573242188 694.666015625 540.240234375 687.999023438 c 0
 544.575195312 682.8984375 549.263671875 674.20703125 549.263671875 660.463867188 c 0
 549.263671875 650.153320312 546.088867188 638.331054688 539.739257812 624.997070312 c 0
 530.40625 604.997070312 513.573242188 574.830078125 489.240234375 534.497070312 c 0
 464.907226562 494.1640625 439.57421875 452.831054688 413.241210938 410.498046875 c 0
 386.908203125 368.165039062 354.908203125 311.83203125 317.241210938 241.499023438 c 0
 279.57421875 171.166015625 243.741210938 99.3330078125 209.741210938 26 c 0
EndSplineSet
EndChar

StartChar: eight
Encoding: 56 56 24
Width: 620
GlyphClass: 2
Flags: W
HStem: -27.9922 85.9971<216.679 391.527> 646.004 72.001<232.915 366.632>
VStem: 63.998 85.998<120.066 256.492> 90.999 93.998<487.944 598.703> 421.997 90.002<483.938 592.01> 462.996 93.0059<121.363 264.134>
LayerCount: 2
Fore
SplineSet
556.001953125 204 m 0xc4
 556.001953125 182.666992188 553.1640625 161.338867188 547.497070312 140.005859375 c 0
 541.830078125 118.672851562 532.330078125 97.83984375 518.997070312 77.5068359375 c 0
 505.6640625 57.173828125 489.331054688 39.3408203125 469.998046875 24.0078125 c 0
 450.665039062 8.6748046875 425.998046875 -3.8251953125 395.998046875 -13.4921875 c 0
 365.998046875 -23.1591796875 332.665039062 -27.9921875 295.998046875 -27.9921875 c 0
 262.665039062 -27.9921875 232.33203125 -23.3251953125 204.999023438 -13.9921875 c 0
 177.666015625 -4.6591796875 155.499023438 7.173828125 138.499023438 21.5068359375 c 0
 121.499023438 35.83984375 107.166015625 53.0068359375 95.4990234375 73.0068359375 c 0
 83.83203125 93.0068359375 75.6650390625 113.173828125 70.998046875 133.506835938 c 0
 66.3310546875 153.83984375 63.998046875 174.672851562 63.998046875 196.005859375 c 0xe4
 63.998046875 218.672851562 69.6650390625 243.005859375 80.998046875 269.005859375 c 0
 92.3310546875 295.005859375 108.831054688 319.005859375 130.498046875 341.005859375 c 0
 152.165039062 363.005859375 176.33203125 378.338867188 202.999023438 387.005859375 c 1
 167.666015625 403.672851562 140.166015625 425.505859375 120.499023438 452.505859375 c 0
 100.83203125 479.505859375 90.9990234375 507.005859375 90.9990234375 535.005859375 c 0
 90.9990234375 543.005859375 91.666015625 551.505859375 92.9990234375 560.505859375 c 0
 94.33203125 569.505859375 96.83203125 580.172851562 100.499023438 592.505859375 c 0
 104.166015625 604.838867188 109.166015625 616.671875 115.499023438 628.004882812 c 0
 121.83203125 639.337890625 130.499023438 650.504882812 141.499023438 661.504882812 c 0
 152.499023438 672.504882812 164.999023438 682.171875 178.999023438 690.504882812 c 0
 192.999023438 698.837890625 210.499023438 705.504882812 231.499023438 710.504882812 c 0
 252.499023438 715.504882812 275.33203125 718.004882812 299.999023438 718.004882812 c 0
 325.999023438 718.004882812 349.499023438 715.504882812 370.499023438 710.504882812 c 0
 391.499023438 705.504882812 409.166015625 698.837890625 423.499023438 690.504882812 c 0
 437.83203125 682.171875 450.499023438 672.504882812 461.499023438 661.504882812 c 0
 472.499023438 650.504882812 480.999023438 639.337890625 486.999023438 628.004882812 c 0
 492.999023438 616.671875 497.999023438 604.671875 501.999023438 592.004882812 c 0
 505.999023438 579.337890625 508.666015625 568.170898438 509.999023438 558.50390625 c 0
 511.33203125 548.836914062 511.999023438 539.669921875 511.999023438 531.002929688 c 0xd8
 511.999023438 523.002929688 510.999023438 515.002929688 508.999023438 507.002929688 c 0
 506.999023438 499.002929688 504.33203125 492.002929688 500.999023438 486.002929688 c 0
 497.666015625 480.002929688 493.333007812 473.669921875 488 467.002929688 c 0
 482.666992188 460.3359375 477.666992188 454.668945312 473 450.001953125 c 0
 468.333007812 445.334960938 462.333007812 440.001953125 455 434.001953125 c 0
 447.666992188 428.001953125 441.833984375 423.501953125 437.500976562 420.501953125 c 0
 433.16796875 417.501953125 427.000976562 413.334960938 419.000976562 408.001953125 c 0
 411.000976562 402.668945312 405.66796875 399.001953125 403.000976562 397.001953125 c 1
 427.66796875 386.334960938 449.334960938 374.334960938 468.001953125 361.001953125 c 0
 486.668945312 347.668945312 501.501953125 334.501953125 512.501953125 321.501953125 c 0
 523.501953125 308.501953125 532.334960938 294.668945312 539.001953125 280.001953125 c 0
 545.668945312 265.334960938 550.168945312 252.16796875 552.501953125 240.500976562 c 0
 554.834960938 228.833984375 556.001953125 216.666992188 556.001953125 204 c 0xc4
184.997070312 538.004882812 m 0xd8
 184.997070312 516.004882812 195.1640625 496.504882812 215.497070312 479.504882812 c 0
 235.830078125 462.504882812 269.330078125 445.337890625 315.997070312 428.004882812 c 1
 343.997070312 439.337890625 368.6640625 454.670898438 389.997070312 474.00390625 c 0
 411.330078125 493.336914062 421.997070312 511.336914062 421.997070312 528.00390625 c 0
 421.997070312 546.670898438 416.6640625 565.00390625 405.997070312 583.00390625 c 0
 395.330078125 601.00390625 380.497070312 616.00390625 361.497070312 628.00390625 c 0
 342.497070312 640.00390625 321.997070312 646.00390625 299.997070312 646.00390625 c 0
 268.6640625 646.00390625 241.6640625 634.836914062 218.997070312 612.50390625 c 0
 196.330078125 590.170898438 184.997070312 565.337890625 184.997070312 538.004882812 c 0xd8
299.997070312 58.0048828125 m 0
 319.330078125 58.0048828125 338.662109375 60.8330078125 357.995117188 66.5 c 0
 377.328125 72.1669921875 394.828125 80.333984375 410.495117188 91.0009765625 c 0
 426.162109375 101.66796875 438.829101562 115.66796875 448.49609375 133.000976562 c 0
 458.163085938 150.333984375 462.99609375 168.666992188 462.99609375 188 c 0
 462.99609375 198.666992188 461.99609375 208.833984375 459.99609375 218.500976562 c 0
 457.99609375 228.16796875 453.99609375 239.334960938 447.99609375 252.001953125 c 0
 441.99609375 264.668945312 433.663085938 276.3359375 422.99609375 287.002929688 c 0
 412.329101562 297.669921875 397.49609375 308.836914062 378.49609375 320.50390625 c 0
 359.49609375 332.170898438 337.329101562 342.670898438 311.99609375 352.00390625 c 1
 263.99609375 339.336914062 224.99609375 317.336914062 194.99609375 286.00390625 c 0
 164.99609375 254.670898438 149.99609375 221.337890625 149.99609375 186.004882812 c 0xe4
 149.99609375 161.337890625 157.49609375 139.004882812 172.49609375 119.004882812 c 0
 187.49609375 99.0048828125 206.329101562 83.837890625 228.99609375 73.5048828125 c 0
 251.663085938 63.171875 275.330078125 58.0048828125 299.997070312 58.0048828125 c 0
EndSplineSet
EndChar

StartChar: nine
Encoding: 57 57 25
Width: 620
GlyphClass: 2
Flags: HMW
HStem: -22.3812 21G 234.998 89 654.995 84.0049
VStem: 69.4688 98.0049 462.639 87.8928
LayerCount: 2
Fore
SplineSet
196.466796875 -22 m 0
 193.543945312 -22.25390625 190.686523438 -22.3828125 187.897460938 -22.3828125 c 0
 176.0546875 -22.3828125 165.416015625 -20.091796875 155.973632812 -15.5048828125 c 0
 144.306640625 -9.837890625 137.806640625 -0.6708984375 136.473632812 11.99609375 c 0
 135.806640625 20.6630859375 139.639648438 29.6630859375 147.97265625 38.99609375 c 0
 156.305664062 48.3291015625 166.138671875 54.662109375 177.471679688 57.9951171875 c 0
 184.8046875 59.9951171875 196.637695312 62.662109375 212.970703125 65.9951171875 c 0
 229.303710938 69.328125 243.970703125 72.828125 256.970703125 76.4951171875 c 0
 269.970703125 80.162109375 284.637695312 84.9951171875 300.970703125 90.9951171875 c 0
 317.303710938 96.9951171875 333.13671875 105.328125 348.469726562 115.995117188 c 0
 363.802734375 126.662109375 377.802734375 139.329101562 390.469726562 153.99609375 c 0
 407.13671875 173.329101562 421.969726562 195.829101562 434.969726562 221.49609375 c 0
 447.969726562 247.163085938 457.13671875 270.330078125 462.469726562 290.997070312 c 1
 443.802734375 269.6640625 419.802734375 254.997070312 390.469726562 246.997070312 c 0
 361.13671875 238.997070312 325.13671875 234.997070312 282.469726562 234.997070312 c 0
 253.13671875 234.997070312 225.13671875 241.830078125 198.469726562 255.497070312 c 0
 171.802734375 269.1640625 149.135742188 287.331054688 130.46875 309.998046875 c 0
 111.801757812 332.665039062 96.96875 358.83203125 85.96875 388.499023438 c 0
 74.96875 418.166015625 69.46875 448.333007812 69.46875 479 c 0
 69.46875 516.333007812 75.8017578125 551.166015625 88.46875 583.499023438 c 0
 101.135742188 615.83203125 118.135742188 643.33203125 139.46875 665.999023438 c 0
 160.801757812 688.666015625 186.134765625 706.499023438 215.467773438 719.499023438 c 0
 244.80078125 732.499023438 276.133789062 738.999023438 309.466796875 738.999023438 c 0
 391.466796875 738.999023438 452.466796875 707.999023438 492.466796875 645.999023438 c 0
 531.176757812 585.999023438 550.53125 500.711914062 550.53125 390.138671875 c 0
 550.53125 386.454101562 550.509765625 382.741210938 550.466796875 379 c 0
 549.799804688 325.666992188 543.1328125 277.5 530.465820312 234.5 c 0
 517.798828125 191.5 500.798828125 155 479.465820312 125 c 0
 458.1328125 95 432.6328125 69.3330078125 402.965820312 48 c 0
 373.298828125 26.6669921875 341.298828125 10.5 306.965820312 -0.5 c 0
 272.6328125 -11.5 235.799804688 -18.6669921875 196.466796875 -22 c 0
167.47265625 490.993164062 m 0
 167.47265625 436.326171875 179.302734375 394.829101562 202.969726562 366.49609375 c 0
 226.63671875 338.163085938 261.803710938 323.99609375 308.470703125 323.99609375 c 0
 337.803710938 323.99609375 366.470703125 330.663085938 394.470703125 343.99609375 c 0
 422.470703125 357.329101562 445.137695312 375.662109375 462.470703125 398.995117188 c 0
 462.58203125 402.21875 462.637695312 405.720703125 462.637695312 409.500976562 c 0
 462.637695312 428.388671875 461.249023438 454.219726562 458.471679688 486.994140625 c 0
 457.138671875 501.661132812 454.305664062 516.494140625 449.97265625 531.494140625 c 0
 445.639648438 546.494140625 439.139648438 561.661132812 430.47265625 576.994140625 c 0
 421.805664062 592.327148438 411.805664062 605.66015625 400.47265625 616.993164062 c 0
 389.139648438 628.326171875 375.47265625 637.493164062 359.47265625 644.493164062 c 0
 343.47265625 651.493164062 326.47265625 654.993164062 308.47265625 654.993164062 c 0
 283.805664062 654.993164062 260.47265625 646.993164062 238.47265625 630.993164062 c 0
 216.47265625 614.993164062 199.139648438 594.493164062 186.47265625 569.493164062 c 0
 173.805664062 544.493164062 167.47265625 518.326171875 167.47265625 490.993164062 c 0
EndSplineSet
EndChar

StartChar: colon
Encoding: 58 58 26
Width: 620
GlyphClass: 2
Flags: HMW
HStem: 39.8998 155.096 306.91 155.09
VStem: 244.71 127.695
LayerCount: 2
Fore
SplineSet
372.041015625 417 m 0
 372.283203125 413 372.404296875 408.956054688 372.404296875 404.868164062 c 0
 372.404296875 386.470703125 369.951171875 367.1796875 365.041015625 346.997070312 c 0
 361.708984375 333.6640625 354.375 323.497070312 343.041992188 316.497070312 c 0
 332.694335938 310.106445312 322.625 306.91015625 312.833984375 306.91015625 c 0
 311.900390625 306.91015625 310.970703125 306.939453125 310.041992188 306.997070312 c 0
 270.041992188 308.997070312 248.708984375 324.330078125 246.041992188 352.997070312 c 0
 245.154296875 364.994140625 244.708984375 379.211914062 244.708984375 395.651367188 c 0
 244.708984375 403.876953125 244.8203125 412.659179688 245.04296875 421.997070312 c 0
 245.04296875 430.6640625 247.54296875 437.831054688 252.54296875 443.498046875 c 0
 257.54296875 449.165039062 263.709960938 453.33203125 271.04296875 455.999023438 c 0
 278.376953125 458.666015625 285.376953125 460.333007812 292.04296875 461 c 0
 298.709960938 461.666992188 305.04296875 462 311.04296875 462 c 0
 317.04296875 462 323.209960938 461.333007812 329.54296875 460 c 0
 335.876953125 458.666992188 342.208984375 456.5 348.541992188 453.5 c 0
 354.875 450.5 360.208984375 445.833007812 364.541015625 439.5 c 0
 368.874023438 433.166992188 371.374023438 425.666992188 372.041015625 417 c 0
373.041015625 149.997070312 m 0
 374.541015625 141.249023438 375.291015625 132.40625 375.291015625 123.469726562 c 0
 375.291015625 108.571289062 373.206054688 93.412109375 369.0390625 77.9931640625 c 0
 365.706054688 64.66015625 357.373046875 54.8271484375 344.041015625 48.494140625 c 0
 331.978515625 42.7646484375 320.733398438 39.8994140625 310.307617188 39.8994140625 c 0
 309.209960938 39.8994140625 308.12109375 39.931640625 307.041015625 39.9951171875 c 0
 293.708984375 40.662109375 280.708984375 44.8291015625 268.041015625 52.49609375 c 0
 255.374023438 60.1630859375 248.374023438 70.99609375 247.041015625 84.99609375 c 0
 246.374023438 98.99609375 245.874023438 107.829101562 245.541015625 111.49609375 c 0
 245.208984375 115.163085938 245.541015625 121.99609375 246.541015625 131.99609375 c 0
 247.541015625 141.99609375 248.041015625 149.663085938 248.041015625 154.99609375 c 0
 248.041015625 162.99609375 250.374023438 169.99609375 255.041015625 175.99609375 c 0
 259.708984375 181.99609375 265.541015625 186.163085938 272.541015625 188.49609375 c 0
 279.541015625 190.829101562 286.374023438 192.49609375 293.041015625 193.49609375 c 0
 299.708984375 194.49609375 306.041015625 194.99609375 312.041015625 194.99609375 c 0
 320.041015625 194.99609375 328.041015625 193.829101562 336.041015625 191.49609375 c 0
 344.041015625 189.163085938 351.708984375 184.330078125 359.041015625 176.997070312 c 0
 366.374023438 169.6640625 371.041015625 160.6640625 373.041015625 149.997070312 c 0
EndSplineSet
EndChar

StartChar: semicolon
Encoding: 59 59 27
Width: 620
GlyphClass: 2
Flags: HMW
HStem: 264.912 155.087
VStem: 275.098 127.698
LayerCount: 2
Fore
SplineSet
402.432617188 375 m 0
 402.674804688 371.000976562 402.795898438 366.958984375 402.795898438 362.872070312 c 0
 402.795898438 344.473632812 400.340820312 325.182617188 395.431640625 304.999023438 c 0
 392.098632812 291.666015625 384.931640625 281.499023438 373.931640625 274.499023438 c 0
 363.888671875 268.108398438 353.706054688 264.912109375 343.384765625 264.912109375 c 0
 342.401367188 264.912109375 341.416992188 264.94140625 340.431640625 264.999023438 c 0
 331.764648438 265.666015625 322.931640625 267.499023438 313.931640625 270.499023438 c 0
 304.931640625 273.499023438 296.598632812 278.666015625 288.931640625 285.999023438 c 0
 281.264648438 293.33203125 277.09765625 301.999023438 276.430664062 311.999023438 c 0
 275.541992188 323.99609375 275.09765625 338.213867188 275.09765625 354.653320312 c 0
 275.09765625 362.87890625 275.208984375 371.661132812 275.431640625 380.999023438 c 0
 275.431640625 388.999023438 277.764648438 395.999023438 282.431640625 401.999023438 c 0
 287.098632812 407.999023438 293.265625 412.166015625 300.932617188 414.499023438 c 0
 308.599609375 416.83203125 315.932617188 418.499023438 322.932617188 419.499023438 c 0
 329.932617188 420.499023438 336.099609375 420.666015625 341.432617188 419.999023438 c 0
 347.432617188 419.999023438 353.432617188 419.499023438 359.432617188 418.499023438 c 0
 365.432617188 417.499023438 371.765625 415.33203125 378.432617188 411.999023438 c 0
 385.099609375 408.666015625 390.599609375 403.833007812 394.932617188 397.5 c 0
 399.265625 391.166992188 401.765625 383.666992188 402.432617188 375 c 0
383.431640625 74 m 0
 382.098632812 52.6669921875 360.431640625 -34.333984375 318.431640625 -187.000976562 c 0
 315.098632812 -201.000976562 308.265625 -211.16796875 297.932617188 -217.500976562 c 0
 288.583984375 -223.23046875 279.098632812 -226.095703125 269.4765625 -226.095703125 c 0
 268.462890625 -226.095703125 267.448242188 -226.063476562 266.431640625 -226 c 0
 253.098632812 -225.333007812 241.265625 -221 230.932617188 -213 c 0
 221.780273438 -205.9140625 217.204101562 -196.474609375 217.204101562 -184.681640625 c 0
 217.204101562 -172.114257812 225.10546875 -128.228515625 238.431640625 -63 c 0
 251.098632812 -1 261.098632812 46.3330078125 268.431640625 79 c 0
 270.431640625 89 273.431640625 97 277.431640625 103 c 0
 281.431640625 109 285.931640625 113 290.931640625 115 c 0
 295.931640625 117 301.264648438 118.333007812 306.931640625 119 c 0
 312.598632812 119.666992188 317.431640625 119.666992188 321.431640625 119 c 0
 327.431640625 119 333.931640625 118.166992188 340.931640625 116.5 c 0
 347.931640625 114.833007812 354.931640625 112.5 361.931640625 109.5 c 0
 368.931640625 106.5 374.431640625 102 378.431640625 96 c 0
 382.431640625 90 384.098632812 82.6669921875 383.431640625 74 c 0
EndSplineSet
EndChar

StartChar: less
Encoding: 60 60 28
Width: 620
GlyphClass: 2
Flags: HMW
HStem: -12.3989 21G
LayerCount: 2
Fore
SplineSet
555.041015625 14 m 0
 551.708007812 7.3330078125 546.708007812 1.6689453125 540.041015625 -2.998046875 c 0
 533.374023438 -7.6650390625 524.541015625 -10.6650390625 513.541015625 -11.998046875 c 0
 511.341796875 -12.2646484375 509.041992188 -12.3974609375 506.642578125 -12.3974609375 c 0
 497.041992188 -12.3974609375 485.841796875 -10.2646484375 473.041015625 -5.998046875 c 0
 456.374023438 -0.6650390625 435.874023438 11.001953125 411.541015625 29.001953125 c 0
 387.208007812 47.001953125 360.875 68.501953125 332.541992188 93.501953125 c 0
 304.208984375 118.501953125 276.041992188 144.001953125 248.041992188 170.001953125 c 0
 220.041992188 196.001953125 190.541992188 222.834960938 159.541992188 250.501953125 c 0
 128.541992188 278.168945312 102.375 299.668945312 81.0419921875 315.001953125 c 0
 72.375 321.001953125 66.7080078125 330.001953125 64.041015625 342.001953125 c 0
 62.7861328125 347.6484375 62.158203125 353.184570312 62.158203125 358.610351562 c 0
 62.158203125 364.713867188 62.9521484375 370.677734375 64.5400390625 376.500976562 c 0
 67.5400390625 387.500976562 73.373046875 395.333984375 82.0400390625 400.000976562 c 0
 120.040039062 428.000976562 164.540039062 463.16796875 215.540039062 505.500976562 c 0
 266.540039062 547.833984375 313.20703125 586.166992188 355.540039062 620.5 c 0
 397.873046875 654.833007812 435.373046875 682 468.040039062 702 c 0
 478.70703125 708.666992188 488.540039062 712.166992188 497.540039062 712.5 c 0
 506.540039062 712.833007812 514.373046875 711.166015625 521.040039062 707.499023438 c 0
 527.70703125 703.83203125 533.540039062 699.33203125 538.540039062 693.999023438 c 0
 543.540039062 688.666015625 547.373046875 682.999023438 550.040039062 676.999023438 c 0
 552.673828125 672.0234375 553.991210938 667.015625 553.991210938 661.975585938 c 0
 553.991210938 655.536132812 551.840820312 649.043945312 547.540039062 642.499023438 c 0
 539.873046875 630.83203125 525.040039062 616.999023438 503.040039062 600.999023438 c 0
 465.70703125 574.999023438 408.874023438 532.33203125 332.541015625 472.999023438 c 0
 256.208007812 413.666015625 208.041015625 375.999023438 188.041015625 359.999023438 c 1
 214.041015625 339.999023438 242.708007812 315.83203125 274.041015625 287.499023438 c 0
 305.374023438 259.166015625 333.374023438 233.499023438 358.041015625 210.499023438 c 0
 382.708007812 187.499023438 409.041015625 163.999023438 437.041015625 139.999023438 c 0
 465.041015625 115.999023438 489.041015625 96.9990234375 509.041015625 82.9990234375 c 0
 530.374023438 68.9990234375 544.541015625 56.83203125 551.541015625 46.4990234375 c 0
 555.741210938 40.298828125 557.841796875 33.9189453125 557.841796875 27.359375 c 0
 557.841796875 22.986328125 556.908203125 18.533203125 555.041015625 14 c 0
EndSplineSet
EndChar

StartChar: equal
Encoding: 61 61 29
Width: 620
GlyphClass: 2
Flags: HMW
HStem: 246.996 83 442.999 85.0725
LayerCount: 2
Fore
SplineSet
166.038085938 528 m 0
 204.038085938 526.666992188 243.206054688 525.99609375 283.540039062 525.99609375 c 0
 323.873046875 525.99609375 361.540039062 526.329101562 396.540039062 526.99609375 c 0
 431.540039062 527.663085938 452.373046875 527.99609375 459.040039062 527.99609375 c 0
 474.373046875 527.99609375 485.206054688 524.663085938 491.538085938 517.99609375 c 0
 497.872070312 511.329101562 501.372070312 502.329101562 502.038085938 490.99609375 c 0
 502.038085938 484.99609375 501.372070312 479.49609375 500.038085938 474.49609375 c 0
 498.706054688 469.49609375 496.706054688 464.663085938 494.038085938 459.99609375 c 0
 491.372070312 455.329101562 487.038085938 451.829101562 481.038085938 449.49609375 c 0
 475.038085938 447.163085938 467.706054688 446.330078125 459.038085938 446.997070312 c 0
 443.030273438 447.442382812 426.502929688 447.665039062 409.458007812 447.665039062 c 0
 400.947265625 447.665039062 392.307617188 447.609375 383.538085938 447.498046875 c 0
 357.205078125 447.165039062 320.705078125 446.33203125 274.038085938 444.999023438 c 0
 227.370117188 443.666015625 193.038085938 442.999023438 171.038085938 442.999023438 c 0
 154.370117188 442.999023438 141.370117188 446.999023438 132.038085938 454.999023438 c 0
 118.095703125 466.950195312 117.959960938 479.587890625 117.959960938 486.887695312 c 0
 117.959960938 498.295898438 121.653320312 508 129.038085938 516 c 0
 136.466796875 524.047851562 147.630859375 528.071289062 162.530273438 528.071289062 c 0
 163.677734375 528.071289062 164.846679688 528.047851562 166.038085938 528 c 0
169.040039062 329.99609375 m 0
 186.626953125 329.7734375 205.180664062 329.662109375 224.700195312 329.662109375 c 0
 263.635742188 329.662109375 306.416015625 330.10546875 353.041015625 330.993164062 c 0
 423.041015625 332.326171875 458.374023438 332.993164062 459.041015625 332.993164062 c 0
 474.374023438 332.993164062 485.206054688 329.493164062 491.540039062 322.493164062 c 0
 497.873046875 315.493164062 501.373046875 306.326171875 502.040039062 294.993164062 c 0
 502.040039062 288.993164062 501.373046875 283.493164062 500.040039062 278.493164062 c 0
 498.706054688 273.493164062 496.706054688 268.66015625 494.040039062 263.993164062 c 0
 491.373046875 259.326171875 487.040039062 255.826171875 481.040039062 253.493164062 c 0
 475.040039062 251.16015625 467.706054688 250.327148438 459.040039062 250.994140625 c 0
 443.032226562 251.439453125 426.357421875 251.662109375 409.014648438 251.662109375 c 0
 400.356445312 251.662109375 391.530273438 251.606445312 382.540039062 251.495117188 c 0
 355.540039062 251.162109375 318.373046875 250.329101562 271.040039062 248.99609375 c 0
 223.706054688 247.663085938 189.040039062 246.99609375 167.040039062 246.99609375 c 0
 150.373046875 246.99609375 138.040039062 251.163085938 130.040039062 259.49609375 c 0
 118.663085938 271.346679688 117.967773438 284.059570312 117.967773438 292.397460938 c 0
 117.967773438 302.677734375 121.991210938 311.376953125 130.040039062 318.49609375 c 0
 138.706054688 326.163085938 151.706054688 329.99609375 169.040039062 329.99609375 c 0
EndSplineSet
EndChar

StartChar: greater
Encoding: 62 62 30
Width: 620
GlyphClass: 2
Flags: W
LayerCount: 2
Fore
SplineSet
151.842773438 5 m 0
 141.842773438 -1 132.174804688 -4.33203125 122.840820312 -4.9990234375 c 0
 113.5078125 -5.666015625 105.5078125 -4.166015625 98.8408203125 -0.4990234375 c 0
 92.173828125 3.16796875 86.5068359375 7.66796875 81.83984375 13.0009765625 c 0
 77.1728515625 18.333984375 73.505859375 24.0009765625 70.8388671875 30.0009765625 c 0
 68.138671875 35.1005859375 66.7890625 40.234375 66.7890625 45.4013671875 c 0
 66.7890625 51.716796875 68.8056640625 58.0830078125 72.8388671875 64.5 c 0
 80.171875 76.1669921875 95.171875 90 117.838867188 106 c 0
 155.171875 132 211.838867188 174.666992188 287.838867188 234 c 0
 363.838867188 293.333007812 412.506835938 331 433.838867188 347 c 1
 407.838867188 367 378.671875 391.166992188 346.338867188 419.5 c 0
 314.006835938 447.833007812 285.838867188 473.5 261.838867188 496.5 c 0
 237.838867188 519.5 211.838867188 543 183.838867188 567 c 0
 155.838867188 591 131.171875 610 109.838867188 624 c 0
 88.505859375 638 74.3388671875 650.166992188 67.3388671875 660.5 c 0
 63.3662109375 666.364257812 61.3798828125 672.389648438 61.3798828125 678.576171875 c 0
 61.3798828125 683.290039062 62.533203125 688.09765625 64.83984375 692.998046875 c 0
 68.1728515625 699.665039062 73.005859375 705.33203125 79.3388671875 709.999023438 c 0
 85.671875 714.666015625 94.671875 717.666015625 106.338867188 718.999023438 c 0
 108.671875 719.265625 111.078125 719.3984375 113.557617188 719.3984375 c 0
 123.479492188 719.3984375 134.573242188 717.265625 146.838867188 712.999023438 c 0
 163.506835938 707.666015625 184.172851562 696.166015625 208.83984375 678.499023438 c 0
 233.506835938 660.83203125 260.006835938 639.33203125 288.33984375 613.999023438 c 0
 316.672851562 588.666015625 344.83984375 562.999023438 372.83984375 536.999023438 c 0
 400.83984375 510.999023438 430.172851562 484.33203125 460.83984375 456.999023438 c 0
 491.506835938 429.666015625 518.174804688 407.999023438 540.840820312 391.999023438 c 0
 548.840820312 385.999023438 554.174804688 376.999023438 556.840820312 364.999023438 c 0
 558.026367188 359.665039062 558.620117188 354.4296875 558.620117188 349.29296875 c 0
 558.620117188 342.874023438 557.694335938 336.609375 555.842773438 330.499023438 c 0
 552.508789062 319.499023438 546.842773438 311.666015625 538.842773438 306.999023438 c 0
 500.842773438 278.999023438 456.342773438 243.83203125 405.342773438 201.499023438 c 0
 354.342773438 159.166015625 307.674804688 120.833007812 265.342773438 86.5 c 0
 223.008789062 52.1669921875 185.17578125 25 151.842773438 5 c 0
EndSplineSet
EndChar

StartChar: question
Encoding: 63 63 31
Width: 620
GlyphClass: 2
Flags: HMW
HStem: -14.5656 154.604 637.999 84.001
VStem: 206.326 163 418.328 99
LayerCount: 2
Fore
SplineSet
341.328125 262 m 0
 338.661132812 244.666992188 332.490234375 231.330078125 322.82421875 221.997070312 c 0
 316.37890625 215.775390625 308.083007812 212.6640625 297.935546875 212.6640625 c 0
 292.861328125 212.6640625 287.32421875 213.442382812 281.32421875 214.998046875 c 0
 262.657226562 219.665039062 250.32421875 228.33203125 244.32421875 240.999023438 c 0
 241.1484375 247.705078125 239.559570312 255.625 239.559570312 264.759765625 c 0
 239.559570312 272.879882812 240.814453125 281.959960938 243.32421875 291.999023438 c 0
 247.9921875 309.999023438 254.82421875 326.999023438 263.82421875 342.999023438 c 0
 272.82421875 358.999023438 282.657226562 372.666015625 293.32421875 383.999023438 c 0
 303.9921875 395.33203125 315.158203125 406.165039062 326.825195312 416.498046875 c 0
 338.4921875 426.831054688 349.66015625 436.498046875 360.326171875 445.498046875 c 0
 370.993164062 454.498046875 380.66015625 463.665039062 389.328125 472.998046875 c 0
 397.994140625 482.331054688 404.994140625 492.498046875 410.328125 503.498046875 c 0
 415.66015625 514.498046875 418.328125 526.331054688 418.328125 538.998046875 c 0
 418.328125 573.665039062 408.16015625 598.83203125 387.828125 614.499023438 c 0
 367.494140625 630.166015625 338.661132812 637.999023438 301.328125 637.999023438 c 0
 291.99609375 637.999023438 282.662109375 635.83203125 273.329101562 631.499023438 c 0
 263.99609375 627.166015625 255.829101562 622.333007812 248.829101562 617 c 0
 241.829101562 611.666992188 234.49609375 604.5 226.829101562 595.5 c 0
 219.162109375 586.5 213.162109375 578.833007812 208.829101562 572.5 c 0
 204.49609375 566.166992188 199.329101562 558.666992188 193.329101562 550 c 0
 187.329101562 541.333007812 181.662109375 534.5 176.329101562 529.5 c 0
 170.99609375 524.5 165.329101562 521.833007812 159.329101562 521.5 c 0
 153.329101562 521.166992188 147.99609375 521.5 143.329101562 522.5 c 0
 138.662109375 523.5 132.662109375 525.666992188 125.329101562 529 c 0
 113.99609375 535 106.829101562 543.666992188 103.829101562 555 c 0
 103.057617188 557.9140625 102.671875 561.048828125 102.671875 564.404296875 c 0
 102.671875 574.096679688 105.890625 585.62890625 112.329101562 599 c 0
 119.662109375 613 128.49609375 626.5 138.828125 639.5 c 0
 149.161132812 652.5 161.994140625 665.5 177.328125 678.5 c 0
 192.66015625 691.5 210.828125 702 231.828125 710 c 0
 252.828125 718 274.66015625 722 297.328125 722 c 0
 369.328125 722 423.994140625 705.333007812 461.328125 672 c 0
 498.66015625 638.666992188 517.328125 588.666992188 517.328125 522 c 0
 517.328125 504 514.494140625 487.666992188 508.828125 473 c 0
 503.16015625 458.333007812 495.66015625 445.666015625 486.328125 434.999023438 c 0
 476.994140625 424.33203125 466.494140625 414.33203125 454.828125 404.999023438 c 0
 443.16015625 395.666015625 431.16015625 386.333007812 418.828125 377 c 0
 406.494140625 367.666992188 395.161132812 358 384.828125 348 c 0
 374.49609375 338 365.328125 325.5 357.328125 310.5 c 0
 349.328125 295.5 343.99609375 279.333007812 341.328125 262 c 0
290.32421875 -14.00390625 m 0
 286.861328125 -14.3779296875 283.486328125 -14.5654296875 280.200195312 -14.5654296875 c 0
 260.083007812 -14.5654296875 243.291015625 -7.5478515625 229.82421875 6.4921875 c 0
 214.157226562 22.8251953125 206.32421875 41.9921875 206.32421875 63.9921875 c 0
 206.32421875 84.6591796875 214.82421875 102.326171875 231.82421875 116.993164062 c 0
 248.82421875 131.66015625 268.32421875 139.327148438 290.32421875 139.994140625 c 0
 291.361328125 140.0234375 292.390625 140.038085938 293.411132812 140.038085938 c 0
 315.33984375 140.038085938 333.309570312 133.190429688 347.32421875 119.495117188 c 0
 361.9921875 105.162109375 369.32421875 86.9951171875 369.32421875 64.9951171875 c 0
 369.32421875 43.662109375 362.157226562 25.8291015625 347.82421875 11.49609375 c 0
 333.4921875 -2.8369140625 314.32421875 -11.3369140625 290.32421875 -14.00390625 c 0
EndSplineSet
EndChar

StartChar: at
Encoding: 64 64 32
Width: 620
GlyphClass: 2
Flags: HMW
HStem: -129.182 85.178 102.002 77.9951 118.002 79.9941 381 77.1335 612.994 90.0078
VStem: 52.0004 87.0029 175.001 76.999 356.999 80.002 495.003 72.998
LayerCount: 2
Fore
SplineSet
517.005859375 5 m 0xdf80
 513.673828125 -4.3330078125 510.166015625 -12.5009765625 506.499023438 -19.5009765625 c 0
 502.83203125 -26.5009765625 497.83203125 -35.16796875 491.499023438 -45.5009765625 c 0
 485.166015625 -55.833984375 478.499023438 -64.6669921875 471.499023438 -72 c 0
 464.499023438 -79.3330078125 455.33203125 -86.8330078125 443.999023438 -94.5 c 0
 432.666015625 -102.166992188 420.499023438 -108.5 407.499023438 -113.5 c 0
 394.499023438 -118.5 378.999023438 -122.5 360.999023438 -125.5 c 0
 346.272460938 -127.954101562 330.654296875 -129.181640625 314.142578125 -129.181640625 c 0
 310.471679688 -129.181640625 306.7578125 -129.12109375 302.999023438 -129 c 0
 267.666015625 -129 234.666015625 -120.333007812 203.999023438 -103 c 0
 173.33203125 -85.6669921875 146.83203125 -61.5 124.499023438 -30.5 c 0
 102.166015625 0.5 84.5 38.1669921875 71.5 82.5 c 0
 58.5 126.833007812 52 175.333007812 52 228 c 0
 52 286.666992188 56.5 341.333984375 65.5 392.000976562 c 0
 74.5 442.66796875 87.33203125 486.834960938 104 524.501953125 c 0
 120.666015625 562.168945312 140.333984375 594.501953125 163 621.501953125 c 0
 185.666992188 648.501953125 210.666992188 668.834960938 238 682.501953125 c 0
 265.333984375 696.168945312 294 703.001953125 324 703.001953125 c 0
 346.666992188 703.001953125 367 701.168945312 385 697.501953125 c 0
 403 693.834960938 420.5 687.834960938 437.5 679.501953125 c 0
 454.5 671.168945312 469.5 660.001953125 482.5 646.001953125 c 0
 495.5 632.001953125 507.5 614.501953125 518.5 593.501953125 c 0
 529.5 572.501953125 538.5 548.001953125 545.5 520.001953125 c 0
 552.5 492.001953125 558 459.001953125 562 421.001953125 c 0
 566 383.001953125 568 340.334960938 568 293.001953125 c 0
 568 269.001953125 566.166992188 246.168945312 562.5 224.501953125 c 0
 558.833984375 202.834960938 553.5 182.501953125 546.5 163.501953125 c 0
 539.5 144.501953125 529.166992188 129.501953125 515.5 118.501953125 c 0
 501.833984375 107.501953125 486 102.001953125 468 102.001953125 c 0xdf80
 420 102.001953125 393 130.001953125 387 186.001953125 c 1
 371.666992188 140.668945312 342.666992188 118.001953125 300 118.001953125 c 0
 260.666992188 118.001953125 230 130.334960938 208 155.001953125 c 0
 186 179.668945312 175 217.3359375 175 268.002929688 c 0
 175 293.3359375 177.833984375 316.668945312 183.5 338.001953125 c 0
 189.166992188 359.334960938 196.833984375 377.501953125 206.501953125 392.501953125 c 0
 216.16796875 407.501953125 227.501953125 420.168945312 240.501953125 430.501953125 c 0
 253.501953125 440.834960938 267.66796875 448.16796875 283.001953125 452.500976562 c 0
 296.2890625 456.255859375 309.827148438 458.133789062 323.616210938 458.133789062 c 0
 325.73828125 458.133789062 327.8671875 458.088867188 330.001953125 458 c 0
 346.001953125 457.333007812 362.001953125 453.666015625 378.001953125 446.999023438 c 0
 393.334960938 440.999023438 405.66796875 432.999023438 415.001953125 422.999023438 c 0
 424.333984375 412.999023438 426.666992188 403.999023438 422 395.999023438 c 0
 419.333984375 390.666015625 416.333984375 386.333007812 413 383 c 0
 409.666992188 379.666992188 405.666992188 377.333984375 401 376.000976562 c 0
 396.333984375 374.66796875 392 373.66796875 388 373.000976562 c 0
 384 372.333984375 379 372.500976562 373 373.500976562 c 0
 367 374.500976562 362.333984375 375.333984375 359 376.000976562 c 0
 355.666992188 376.66796875 350.666992188 378.000976562 344 380.000976562 c 0
 335.333984375 381.333984375 326.833984375 381.666992188 318.5 381 c 0
 310.166992188 380.333007812 302 377.5 294 372.5 c 0
 286 367.5 279 361.166992188 273 353.5 c 0
 267 345.833007812 262 335.666015625 258 322.999023438 c 0
 254 310.33203125 252 295.999023438 252 279.999023438 c 0
 252 271.33203125 252.5 263.165039062 253.5 255.498046875 c 0
 254.5 247.831054688 256.5 239.1640625 259.5 229.497070312 c 0
 262.5 219.830078125 267.166992188 212.163085938 273.5 206.49609375 c 0
 279.833984375 200.829101562 287.666015625 197.99609375 296.999023438 197.99609375 c 0xbf80
 318.33203125 197.99609375 333.33203125 206.163085938 341.999023438 222.49609375 c 0
 350.666015625 238.829101562 355.666015625 265.99609375 356.999023438 303.99609375 c 0
 356.999023438 314.663085938 365.666015625 323.330078125 382.999023438 329.997070312 c 0
 393.806640625 334.2421875 403.608398438 336.365234375 412.404296875 336.365234375 c 0
 418.802734375 336.365234375 424.666992188 335.2421875 430 332.997070312 c 0
 438.666992188 329.6640625 442.333984375 322.997070312 441.001953125 312.997070312 c 0
 438.333984375 289.44140625 437.001953125 269.3671875 437.001953125 252.774414062 c 0
 437.001953125 244.478515625 437.333984375 237.052734375 438.001953125 230.497070312 c 0
 440.001953125 210.830078125 443.333984375 197.497070312 448.001953125 190.497070312 c 0
 452.66796875 183.497070312 459.334960938 179.997070312 468.001953125 179.997070312 c 0
 473.334960938 179.997070312 478.001953125 184.330078125 482.001953125 192.997070312 c 0
 486.001953125 201.6640625 488.834960938 212.997070312 490.501953125 226.997070312 c 0
 492.169921875 240.997070312 493.3359375 253.330078125 494.002929688 263.997070312 c 0
 494.669921875 274.6640625 495.002929688 284.997070312 495.002929688 294.997070312 c 0
 495.002929688 328.997070312 493.502929688 360.330078125 490.502929688 388.997070312 c 0
 487.502929688 417.6640625 483.8359375 442.1640625 479.502929688 462.497070312 c 0
 475.169921875 482.830078125 469.337890625 501.163085938 462.00390625 517.49609375 c 0
 454.670898438 533.829101562 447.670898438 547.162109375 441.00390625 557.495117188 c 0
 434.337890625 567.828125 426.337890625 576.661132812 417.00390625 583.994140625 c 0
 407.670898438 591.327148438 399.50390625 596.827148438 392.50390625 600.494140625 c 0
 385.50390625 604.161132812 377.50390625 606.994140625 368.50390625 608.994140625 c 0
 359.50390625 610.994140625 352.670898438 612.161132812 348.00390625 612.494140625 c 0
 343.337890625 612.827148438 337.669921875 612.994140625 331.002929688 612.994140625 c 0
 304.3359375 612.994140625 279.502929688 604.661132812 256.502929688 587.994140625 c 0
 233.502929688 571.327148438 213.169921875 548.16015625 195.502929688 518.493164062 c 0
 177.8359375 488.826171875 164.002929688 451.993164062 154.002929688 407.993164062 c 0
 144.002929688 363.993164062 139.002929688 315.993164062 139.002929688 263.993164062 c 0
 139.002929688 218.66015625 142.3359375 177.827148438 149.002929688 141.494140625 c 0
 155.669921875 105.161132812 164.669921875 75.828125 176.002929688 53.4951171875 c 0
 187.3359375 31.162109375 200.502929688 12.3291015625 215.502929688 -3.00390625 c 0
 230.502929688 -18.3369140625 245.502929688 -29.00390625 260.502929688 -35.00390625 c 0
 275.502929688 -41.00390625 291.002929688 -44.00390625 307.002929688 -44.00390625 c 0
 324.3359375 -44.00390625 340.3359375 -42.3369140625 355.002929688 -39.00390625 c 0
 369.669921875 -35.6708984375 381.837890625 -31.6708984375 391.50390625 -27.00390625 c 0
 401.170898438 -22.3369140625 410.337890625 -16.00390625 419.005859375 -8.00390625 c 0
 427.671875 -0.00390625 434.338867188 7.3291015625 439.005859375 13.99609375 c 0
 443.673828125 20.6630859375 449.005859375 29.330078125 455.005859375 39.9970703125 c 0
 457.673828125 44.6640625 460.005859375 48.3310546875 462.005859375 50.998046875 c 0
 464.005859375 53.6650390625 466.338867188 56.83203125 469.005859375 60.4990234375 c 0
 471.673828125 64.166015625 474.005859375 66.8330078125 476.005859375 68.5 c 0
 478.005859375 70.1669921875 480.505859375 71.6669921875 483.505859375 73 c 0
 486.505859375 74.3330078125 489.505859375 75 492.505859375 75 c 0
 495.505859375 75 498.673828125 74.3330078125 502.005859375 73 c 0
 507.338867188 71 511.838867188 68.5 515.505859375 65.5 c 0
 519.173828125 62.5 522.005859375 58.5 524.005859375 53.5 c 0
 526.005859375 48.5 526.338867188 41.8330078125 525.005859375 33.5 c 0
 523.673828125 25.1669921875 521.005859375 15.6669921875 517.005859375 5 c 0xdf80
EndSplineSet
EndChar

StartChar: A
Encoding: 65 65 33
Width: 620
GlyphClass: 2
Flags: HMW
HStem: -5.55122 21G 251 81.0059
VStem: 43.5711 90.5231
LayerCount: 2
Fore
SplineSet
134.094726562 41 m 2
 127.426757812 20.3330078125 118.094726562 6.6708984375 106.094726562 0.00390625 c 0
 99.427734375 -3.7001953125 92.658203125 -5.5517578125 85.78515625 -5.5517578125 c 0
 80.287109375 -5.5517578125 74.7236328125 -4.3671875 69.09375 -1.9970703125 c 0
 52.080078125 5.78125 43.5732421875 21.3564453125 43.5732421875 44.7294921875 c 0
 43.5732421875 53.4111328125 44.7470703125 63.1689453125 47.0947265625 74.0029296875 c 0
 51.0947265625 95.3359375 70.427734375 147.3359375 105.094726562 230.002929688 c 1
 93.0947265625 238.002929688 87.0947265625 247.669921875 87.0947265625 259.002929688 c 0
 86.427734375 268.3359375 90.5947265625 277.168945312 99.5947265625 285.501953125 c 0
 108.594726562 293.834960938 120.426757812 300.334960938 135.094726562 305.001953125 c 1
 217.094726562 495.668945312 280.094726562 623.001953125 324.094726562 687.001953125 c 0
 334.094726562 700.334960938 342.926757812 710.001953125 350.594726562 716.001953125 c 0
 358.26171875 722.001953125 366.76171875 725.001953125 376.094726562 725.001953125 c 0
 378.397460938 725.244140625 380.661132812 725.365234375 382.887695312 725.365234375 c 0
 392.903320312 725.365234375 402.139648438 722.911132812 410.59375 718.001953125 c 0
 420.926757812 712.001953125 427.09375 701.668945312 429.09375 687.001953125 c 0
 443.09375 604.334960938 466.59375 487.16796875 499.59375 335.500976562 c 0
 532.59375 183.833984375 555.426757812 96.6669921875 568.09375 74 c 0
 573.649414062 63.443359375 576.426757812 53.697265625 576.426757812 44.76171875 c 0
 576.426757812 42.9755859375 576.31640625 41.2216796875 576.094726562 39.5 c 0
 574.76171875 29.1669921875 571.428710938 20.5 566.094726562 13.5 c 0
 560.762695312 6.5 554.4296875 1.3330078125 547.096679688 -2 c 0
 541.305664062 -4.4375 535.514648438 -5.65625 529.723632812 -5.65625 c 2
 509.094726562 -0.4990234375 l 2
 496.426757812 5.833984375 486.094726562 19.6669921875 478.094726562 41 c 0
 469.426757812 61.6669921875 452.760742188 131.666992188 428.09375 251 c 1
 342.760742188 247.666992188 266.426757812 240.666992188 199.094726562 230 c 1
 134.094726562 41 l 2
356.094726562 602.004882812 m 1
 326.76171875 557.337890625 285.094726562 462.671875 231.094726562 318.004882812 c 1
 299.094726562 326.004882812 359.426757812 330.671875 412.094726562 332.004882812 c 1
 356.094726562 602.004882812 l 1
EndSplineSet
EndChar

StartChar: B
Encoding: 66 66 34
Width: 620
GlyphClass: 2
Flags: HMW
HStem: -22.9961 21G 297.004 72 630.004 78.999
VStem: 68.0005 96.4978 421.997 90.0384 455.998 98.001
LayerCount: 2
Fore
SplineSet
259 -14 m 0xf4
 247.66796875 -14.6669921875 234.998046875 -15.6640625 220.998046875 -16.9970703125 c 0
 206.998046875 -18.330078125 195.665039062 -19.330078125 186.998046875 -19.9970703125 c 2
 160.998046875 -21.9970703125 l 2
 152.33203125 -22.6640625 144.498046875 -22.9970703125 137.498046875 -22.9970703125 c 0
 130.498046875 -22.9970703125 123.998046875 -22.330078125 117.998046875 -20.9970703125 c 2
 113.998046875 -20.9970703125 l 2
 100.665039062 -20.9970703125 89.83203125 -16.4970703125 81.4990234375 -7.4970703125 c 0
 73.783203125 0.8359375 69.92578125 12.1689453125 69.92578125 26.5029296875 c 0
 69.92578125 33.943359375 72.25 48.533203125 72.25 135.748046875 c 0
 72.25 152.249023438 72.1669921875 170.333984375 72 190.002929688 c 0
 71.3330078125 268.669921875 70 349.669921875 68 433.002929688 c 0
 66.6669921875 477.669921875 66 507.669921875 66 523.002929688 c 0
 66 538.3359375 66.5 559.002929688 67.5 585.002929688 c 0
 68.5 611.002929688 69 629.002929688 69 639.002929688 c 0
 69.6669921875 657.002929688 74.5 670.502929688 83.5 679.502929688 c 0
 92.5 688.502929688 104 693.002929688 118 693.002929688 c 2
 123 693.002929688 l 2
 133.66796875 696.3359375 144.66796875 699.168945312 156 701.501953125 c 0
 167.333007812 703.834960938 177.833007812 705.501953125 187.5 706.501953125 c 0
 197.16796875 707.501953125 207.66796875 708.168945312 219 708.501953125 c 0
 230.333007812 708.834960938 239.166015625 709.001953125 245.5 709.001953125 c 2
 266 709.001953125 l 1
 277 709.001953125 l 2
 322.33203125 709.001953125 362.5 700.668945312 397.5 684.001953125 c 0
 432.5 667.334960938 460.166015625 643.16796875 480.5 611.500976562 c 0
 502.921875 576.581054688 512.03515625 537.415039062 512.03515625 496.803710938 c 0xf8
 512.03515625 459.928710938 503.5234375 428.161132812 486.5 401.500976562 c 0
 468.83203125 373.833984375 444.33203125 353.666992188 413 341 c 1
 435.666015625 333.666992188 457.5 322.833984375 478.5 308.500976562 c 0
 499.5 294.16796875 517.33203125 278.16796875 532 260.500976562 c 0
 546.666015625 242.833984375 554 226.333984375 554 211.000976562 c 0
 554 185.66796875 547.666015625 160.500976562 535 135.500976562 c 0
 522.33203125 110.500976562 503.83203125 87.66796875 479.5 67.0009765625 c 0
 455.166015625 46.333984375 423.833007812 28.6669921875 385.5 14 c 0
 347.16796875 -0.6669921875 305 -10 259 -14 c 0xf4
274.998046875 630.002929688 m 0
 238.998046875 630.002929688 203.998046875 625.668945312 169.998046875 617.001953125 c 1
 169.998046875 604.334960938 169.33203125 584.001953125 167.998046875 556.001953125 c 0
 166.665039062 528.001953125 165.665039062 498.334960938 164.998046875 467.001953125 c 0
 164.6640625 451.3359375 164.497070312 435.502929688 164.497070312 419.502929688 c 0
 164.497070312 403.502929688 164.6640625 387.3359375 164.998046875 371.002929688 c 1
 196.33203125 369.669921875 225.998046875 369.002929688 253.998046875 369.002929688 c 0
 273.998046875 369.002929688 292.33203125 370.669921875 308.998046875 374.002929688 c 0
 325.665039062 377.3359375 339.498046875 381.668945312 350.498046875 387.001953125 c 0
 361.498046875 392.334960938 371.498046875 398.834960938 380.498046875 406.501953125 c 0
 389.498046875 414.168945312 396.33203125 422.001953125 400.998046875 430.001953125 c 0
 405.665039062 438.001953125 409.665039062 446.834960938 412.998046875 456.501953125 c 0
 416.33203125 466.168945312 418.6640625 474.8359375 419.997070312 482.502929688 c 0
 421.330078125 490.169921875 421.997070312 498.336914062 421.997070312 507.00390625 c 0
 421.997070312 524.336914062 418.497070312 540.336914062 411.497070312 555.00390625 c 0
 404.497070312 569.670898438 395.830078125 581.50390625 385.497070312 590.50390625 c 0
 375.1640625 599.50390625 363.33203125 607.170898438 349.998046875 613.50390625 c 0
 336.665039062 619.836914062 323.665039062 624.169921875 310.998046875 626.502929688 c 0
 298.33203125 628.8359375 286.33203125 630.002929688 274.998046875 630.002929688 c 0
260.998046875 297.001953125 m 1
 212.33203125 297.001953125 180.998046875 296.66796875 166.998046875 296.000976562 c 1
 169.665039062 188.66796875 171.665039062 112.334960938 172.998046875 67.001953125 c 1
 180.33203125 67.001953125 192.498046875 67.3349609375 209.498046875 68.001953125 c 0
 226.498046875 68.6689453125 239.33203125 69.001953125 247.998046875 69.001953125 c 0
 278.665039062 70.3349609375 307.498046875 75.66796875 334.498046875 85.0009765625 c 0
 361.498046875 94.333984375 383.33203125 105.500976562 399.998046875 118.500976562 c 0
 416.665039062 131.500976562 430.165039062 145.16796875 440.498046875 159.500976562 c 0
 450.83203125 173.833984375 455.998046875 187.000976562 455.998046875 199.000976562 c 0xf4
 455.998046875 207.66796875 452.33203125 216.334960938 444.998046875 225.001953125 c 0
 437.665039062 233.668945312 426.498046875 242.668945312 411.498046875 252.001953125 c 0
 396.498046875 261.334960938 375.998046875 270.001953125 349.998046875 278.001953125 c 0
 323.998046875 286.001953125 294.33203125 292.334960938 260.998046875 297.001953125 c 1
EndSplineSet
EndChar

StartChar: C
Encoding: 67 67 35
Width: 620
GlyphClass: 2
Flags: HMW
HStem: -31.0911 90.092 518.417 222.246 632.001 80.9961
VStem: 51.9985 100.998 465 103.001
LayerCount: 2
Fore
SplineSet
539.994140625 64 m 0xb8
 485.009765625 0.607421875 400.845703125 -31.091796875 287.490234375 -31.091796875 c 0
 284.01953125 -31.091796875 280.522460938 -31.0625 276.998046875 -31.0029296875 c 0
 249.666015625 -31.0029296875 223.666015625 -26.3359375 198.998046875 -17.0029296875 c 0
 174.331054688 -7.669921875 153.498046875 4.6630859375 136.498046875 19.99609375 c 0
 119.498046875 35.3291015625 104.33203125 53.162109375 90.998046875 73.4951171875 c 0
 77.666015625 93.828125 67.83203125 115.495117188 61.5 138.495117188 c 0
 55.166015625 161.495117188 52 184.662109375 52 207.995117188 c 0
 52 256.662109375 57 303.662109375 67 348.995117188 c 0
 77 394.328125 90.5 435.328125 107.5 471.995117188 c 0
 124.499023438 508.662109375 144.33203125 542.329101562 166.999023438 572.99609375 c 0
 189.666015625 603.663085938 213.833984375 629.163085938 239.5 649.49609375 c 0
 265.166992188 669.829101562 291.5 685.49609375 318.5 696.49609375 c 0
 345.5 707.49609375 371.333984375 712.99609375 396 712.99609375 c 0xb8
 420.666992188 712.99609375 443.333984375 710.329101562 464.001953125 704.99609375 c 1
 466.66796875 714.99609375 471.66796875 723.163085938 479.001953125 729.49609375 c 0
 486.333984375 735.829101562 495.001953125 739.329101562 505.001953125 739.99609375 c 0
 507.37109375 740.440429688 509.75 740.663085938 512.13671875 740.663085938 c 0
 520.490234375 740.663085938 528.944335938 737.940429688 537.5 732.49609375 c 0
 548.5 725.49609375 555.333984375 715.329101562 558 701.99609375 c 0
 560 691.99609375 562 682.163085938 564 672.49609375 c 0
 566 662.829101562 567.166992188 653.329101562 567.5 643.99609375 c 0
 567.833984375 634.663085938 568 626.99609375 568 620.99609375 c 2
 568 599.99609375 l 1
 568 584.99609375 l 2
 568 570.99609375 562.666992188 556.829101562 552 542.49609375 c 0
 541.333984375 528.163085938 530.666015625 520.330078125 519.999023438 518.997070312 c 0
 517.677734375 518.610351562 515.34765625 518.416992188 513.013671875 518.416992188 c 0xd8
 503.283203125 518.416992188 493.4453125 521.77734375 483.499023438 528.498046875 c 0
 471.166015625 536.831054688 464.999023438 547.998046875 464.999023438 561.998046875 c 0
 464.999023438 567.331054688 465.33203125 581.331054688 465.999023438 603.998046875 c 0
 465.33203125 604.665039062 462.166015625 606.83203125 456.498046875 610.499023438 c 0
 450.831054688 614.166015625 446.831054688 616.833007812 444.498046875 618.5 c 0
 442.166015625 620.166992188 438.33203125 622.333984375 432.999023438 625.000976562 c 0
 427.666015625 627.66796875 422.499023438 629.500976562 417.499023438 630.500976562 c 0
 412.499023438 631.500976562 407.666015625 632.000976562 402.999023438 632.000976562 c 0
 382.33203125 632.000976562 360.166015625 625.333984375 336.498046875 612.000976562 c 0
 312.831054688 598.66796875 290.1640625 579.66796875 268.498046875 555.000976562 c 0
 246.830078125 530.333984375 227.163085938 502.000976562 209.49609375 470.000976562 c 0
 191.830078125 438.000976562 177.99609375 401.833984375 167.99609375 361.500976562 c 0
 157.99609375 321.16796875 152.99609375 280.66796875 152.99609375 240.000976562 c 0
 152.99609375 210.66796875 158.663085938 182.000976562 169.99609375 154.000976562 c 0
 181.330078125 126.000976562 197.49609375 103.16796875 218.49609375 85.5009765625 c 0
 239.49609375 67.833984375 262.330078125 59.0009765625 286.99609375 59.0009765625 c 0
 308.330078125 59.0009765625 329.49609375 61.16796875 350.49609375 65.5009765625 c 0
 371.49609375 69.833984375 389.99609375 75.5009765625 405.99609375 82.5009765625 c 0
 421.99609375 89.5009765625 435.830078125 96.5009765625 447.49609375 103.500976562 c 0
 459.163085938 110.500976562 469.99609375 118.000976562 479.99609375 126.000976562 c 0
 488.663085938 132.000976562 496.163085938 136.66796875 502.49609375 140.000976562 c 0
 508.830078125 143.333984375 515.662109375 145.000976562 522.995117188 145.000976562 c 0
 530.328125 145.000976562 537.662109375 142.66796875 544.994140625 138.000976562 c 0
 556.21484375 129.2734375 561.826171875 119.234375 561.826171875 107.883789062 c 0
 561.826171875 94.95703125 554.548828125 80.3291015625 539.994140625 64 c 0xb8
EndSplineSet
EndChar

StartChar: D
Encoding: 68 68 36
Width: 620
GlyphClass: 2
Flags: HMW
HStem: -31 85.998 694.001 20G
VStem: 50.1877 98.6278 54.8135 102.002 473.815 95.9971
LayerCount: 2
Fore
SplineSet
149.815429688 348 m 0xe8
 150.482421875 319.333007812 151.645507812 276.1640625 153.3125 218.497070312 c 0
 154.979492188 160.830078125 156.1484375 117.330078125 156.815429688 87.9970703125 c 1
 184.1484375 75.9970703125 212.813476562 67.4970703125 242.813476562 62.4970703125 c 0
 272.813476562 57.4970703125 306.813476562 54.9970703125 344.813476562 54.9970703125 c 0
 363.48046875 54.9970703125 381.147460938 61.1640625 397.814453125 73.4970703125 c 0
 414.481445312 85.830078125 428.1484375 101.830078125 438.815429688 121.497070312 c 0
 449.482421875 141.1640625 457.982421875 162.831054688 464.315429688 186.498046875 c 0
 470.6484375 210.165039062 473.815429688 233.33203125 473.815429688 255.999023438 c 0
 473.815429688 381.33203125 422.482421875 476.999023438 319.815429688 542.999023438 c 0
 283.1484375 566.33203125 230.815429688 590.33203125 162.815429688 614.999023438 c 1
 161.815429688 615.999023438 l 1
 160.815429688 615.999023438 l 1
 159.815429688 615.999023438 l 1
 158.815429688 616.999023438 l 1
 157.815429688 616.999023438 l 1
 156.815429688 616.999023438 l 1
 156.815429688 617.999023438 l 1xd8
 155.815429688 617.999023438 l 1
 154.815429688 617.999023438 l 1
 153.815429688 618.999023438 l 1
 152.815429688 618.999023438 l 1
 151.815429688 618.999023438 l 1
 150.815429688 619.999023438 l 1
 149.815429688 619.999023438 l 1
 148.815429688 619.999023438 l 1
 148.815429688 620.999023438 l 1
 147.958007812 583.854492188 147.529296875 545.9140625 147.529296875 507.177734375 c 0
 147.529296875 455.533203125 148.291015625 402.473632812 149.815429688 348 c 0xe8
345.814453125 -31.0009765625 m 0
 312.481445312 -31.0009765625 279.982421875 -29.5 248.315429688 -26.5 c 0
 216.6484375 -23.5 191.481445312 -20 172.814453125 -16 c 0
 154.147460938 -12 137.814453125 -8.3330078125 123.814453125 -5 c 0
 109.814453125 -1.6669921875 101.481445312 0 98.814453125 0 c 0
 85.4814453125 0 74.4814453125 4.5 65.814453125 13.5 c 0
 58.302734375 21.2998046875 54.546875 31.7294921875 54.546875 44.7880859375 c 0
 54.546875 46.796875 54.6357421875 48.8671875 54.8134765625 51 c 0xd8
 56.3134765625 74.9990234375 57.0634765625 112.965820312 57.0634765625 164.901367188 c 0
 57.0634765625 182.21484375 56.98046875 201.081054688 56.8134765625 221.5 c 0
 56.146484375 303.166992188 54.4794921875 391.666992188 51.8125 487 c 0
 51.1455078125 524.333007812 50.6455078125 548.833007812 50.3125 560.5 c 0
 50.2294921875 563.416015625 50.1875 566.73828125 50.1875 570.466796875 c 0xe8
 50.1875 581.654296875 50.5625 596.498046875 51.3125 614.999023438 c 0
 52.3125 639.666015625 52.8125 654.666992188 52.8125 660 c 0
 53.4794921875 678 58.4794921875 691.5 67.8125 700.5 c 0
 77.1455078125 709.5 88.8125 714 102.8125 714 c 0
 111.479492188 714 122.479492188 713.333007812 135.8125 712 c 0
 149.145507812 710.666992188 166.3125 708 187.3125 704 c 0
 208.3125 700 229.8125 694.5 251.8125 687.5 c 0
 273.8125 680.5 297.645507812 670.666992188 323.3125 658 c 0
 348.979492188 645.333007812 373.3125 630.666015625 396.3125 613.999023438 c 0
 419.3125 597.33203125 441.479492188 576.499023438 462.8125 551.499023438 c 0
 484.145507812 526.499023438 502.645507812 499.166015625 518.3125 469.499023438 c 0
 533.979492188 439.83203125 546.479492188 404.499023438 555.8125 363.499023438 c 0
 565.145507812 322.499023438 569.8125 278.33203125 569.8125 230.999023438 c 0
 569.8125 207.666015625 566.645507812 183.999023438 560.3125 159.999023438 c 0
 553.979492188 135.999023438 544.3125 112.499023438 531.3125 89.4990234375 c 0
 518.3125 66.4990234375 503.145507812 45.9990234375 485.8125 27.9990234375 c 0
 468.479492188 9.9990234375 447.646484375 -4.333984375 423.313476562 -15.0009765625 c 0
 398.98046875 -25.66796875 373.147460938 -31.0009765625 345.814453125 -31.0009765625 c 0
EndSplineSet
EndChar

StartChar: E
Encoding: 69 69 37
Width: 620
GlyphClass: 2
Flags: HMW
HStem: -17.498 85.4132 -6.2352 90.7323 312.001 85.999 332.001 80.999 615.159 82.8417
VStem: 63.3136 97.4971
LayerCount: 2
Fore
SplineSet
506.30859375 -6 m 0x4c
 504.124023438 -5.87890625 501.376953125 -5.818359375 498.06640625 -5.818359375 c 0
 483.189453125 -5.818359375 456.939453125 -7.044921875 419.311523438 -9.4990234375 c 0
 373.311523438 -12.4990234375 322.811523438 -15.166015625 267.811523438 -17.4990234375 c 0
 238.1953125 -18.7548828125 212.009765625 -19.3828125 189.255859375 -19.3828125 c 0
 169.75390625 -19.3828125 152.772460938 -18.9208984375 138.311523438 -17.998046875 c 0
 122.978515625 -17.3310546875 107.645507812 -9.8310546875 92.3125 4.501953125 c 0
 76.9794921875 18.8349609375 67.9794921875 36.3349609375 65.3125 57.001953125 c 0
 63.3125 74.3349609375 62.3125 105.501953125 62.3125 150.501953125 c 0
 62.3125 195.501953125 62.6455078125 243.334960938 63.3125 294.001953125 c 0
 63.53515625 310.899414062 63.646484375 328.500976562 63.646484375 346.806640625 c 0
 63.646484375 383.391601562 63.2021484375 422.790039062 62.3134765625 465.001953125 c 0
 61.646484375 505.001953125 61.146484375 531.501953125 60.8134765625 544.501953125 c 0
 60.73046875 547.750976562 60.6884765625 551.385742188 60.6884765625 555.405273438 c 0
 60.6884765625 567.467773438 61.0634765625 583 61.8134765625 602.000976562 c 0
 62.8134765625 627.333984375 63.3134765625 643.000976562 63.3134765625 649.000976562 c 0
 63.98046875 667.000976562 68.98046875 680.66796875 78.3134765625 690.000976562 c 0
 87.646484375 699.333984375 99.3134765625 704.000976562 113.313476562 704.000976562 c 0
 114.2265625 704.036132812 115.127929688 704.053710938 116.018554688 704.053710938 c 0
 132.040039062 704.053710938 144.471679688 698.369140625 153.313476562 687.000976562 c 1
 191.313476562 692.333984375 235.813476562 695.666992188 286.813476562 697 c 0
 312.313476562 697.666015625 336.35546875 697.999023438 358.938476562 697.999023438 c 0
 381.521484375 697.999023438 402.646484375 697.666015625 422.3125 697 c 0
 461.645507812 695.666992188 492.978515625 693.666992188 516.311523438 691 c 0
 532.311523438 689 543.311523438 685 549.311523438 679 c 0
 555.311523438 673 558.64453125 664.666992188 559.311523438 654 c 0
 559.311523438 648 558.64453125 642.333007812 557.311523438 637 c 0
 555.978515625 631.666992188 553.811523438 626.833984375 550.811523438 622.500976562 c 0
 547.811523438 618.16796875 543.311523438 614.66796875 537.311523438 612.000976562 c 0
 531.311523438 609.333984375 524.311523438 608.666992188 516.311523438 610 c 0
 470.137695312 613.438476562 423.692382812 615.158203125 376.975585938 615.158203125 c 0
 360.2890625 615.158203125 343.567382812 614.938476562 326.811523438 614.5 c 0
 263.14453125 612.833007812 208.64453125 608.666015625 163.311523438 601.999023438 c 1
 160.64453125 532.666015625 159.311523438 464.666015625 159.311523438 397.999023438 c 1xac
 207.978515625 397.999023438 274.311523438 400.499023438 358.311523438 405.499023438 c 0
 442.311523438 410.499023438 489.64453125 412.999023438 500.311523438 412.999023438 c 0
 515.64453125 412.999023438 526.477539062 409.666015625 532.810546875 402.999023438 c 0
 539.143554688 396.33203125 542.310546875 386.999023438 542.310546875 374.999023438 c 0
 542.310546875 346.318359375 528.92578125 331.977539062 502.157226562 331.977539062 c 0
 501.548828125 331.977539062 500.93359375 331.985351562 500.311523438 332 c 0x1c
 488.311523438 332 436.811523438 328.666992188 345.811523438 322 c 0
 254.811523438 315.333007812 192.978515625 312 160.311523438 312 c 1
 160.311523438 297.333007812 160.478515625 278.166015625 160.811523438 254.499023438 c 0
 161.14453125 230.83203125 161.477539062 210.499023438 161.810546875 193.499023438 c 0
 162.143554688 176.499023438 162.4765625 158.999023438 162.809570312 140.999023438 c 0
 163.142578125 122.999023438 163.809570312 108.166015625 164.809570312 96.4990234375 c 0
 165.809570312 84.83203125 167.309570312 76.6650390625 169.309570312 71.998046875 c 0
 179.420898438 69.275390625 201.387695312 67.9140625 235.208984375 67.9140625 c 0xac
 259.36328125 67.9140625 289.563476562 68.6083984375 325.809570312 69.9970703125 c 0
 412.809570312 73.330078125 468.642578125 77.6630859375 493.309570312 82.99609375 c 0
 502.642578125 84.3291015625 510.642578125 84.8291015625 517.309570312 84.49609375 c 0
 523.9765625 84.1630859375 529.809570312 82.830078125 534.809570312 80.4970703125 c 0
 539.809570312 78.1640625 543.809570312 75.6640625 546.809570312 72.9970703125 c 0
 549.809570312 70.330078125 552.142578125 66.830078125 553.809570312 62.4970703125 c 0
 555.4765625 58.1640625 556.809570312 54.3310546875 557.809570312 50.998046875 c 0
 558.809570312 47.6650390625 559.309570312 44.33203125 559.309570312 40.9990234375 c 0
 559.309570312 28.33203125 554.809570312 16.9990234375 545.809570312 6.9990234375 c 0
 537.868164062 -1.82421875 526.682617188 -6.2353515625 512.252929688 -6.2353515625 c 0
 510.329101562 -6.2353515625 508.34765625 -6.1572265625 506.30859375 -6 c 0x4c
EndSplineSet
EndChar

StartChar: F
Encoding: 70 70 38
Width: 620
GlyphClass: 2
Flags: HMW
HStem: -21.0722 21G 322.534 84.6107 621.784 84.7164 694.192 20G
VStem: 65.2351 103.262 67.7521 93.745
LayerCount: 2
Fore
SplineSet
168.497070312 24 m 0xe8
 167.1640625 10 160.669921875 -1.166015625 149.002929688 -9.4990234375 c 0
 138.200195312 -17.21484375 126.112304688 -21.072265625 112.73828125 -21.072265625 c 0
 111.66796875 -21.072265625 110.588867188 -21.0478515625 109.501953125 -20.998046875 c 0
 96.1689453125 -20.998046875 85.1689453125 -16.498046875 76.501953125 -7.498046875 c 0
 68.990234375 0.302734375 65.234375 10.732421875 65.234375 23.791015625 c 0xe8
 65.234375 25.7998046875 65.3232421875 27.8701171875 65.5009765625 30.0029296875 c 0
 67.0009765625 52.001953125 67.7509765625 89.09375 67.7509765625 141.279296875 c 0
 67.7509765625 158.676757812 67.66796875 177.750976562 67.5009765625 198.502929688 c 0
 66.833984375 281.502929688 65.1669921875 367.002929688 62.5 455.002929688 c 0
 61.1669921875 499.669921875 60.5 529.669921875 60.5 545.002929688 c 0
 60.5 560.3359375 61 581.002929688 62 607.002929688 c 0
 63 633.002929688 63.5 650.669921875 63.5 660.002929688 c 0
 64.1669921875 678.002929688 69.1669921875 691.502929688 78.5 700.502929688 c 0
 87.8330078125 709.502929688 99.5 714.002929688 113.5 714.002929688 c 0
 115.213867188 714.129882812 116.888671875 714.193359375 118.524414062 714.193359375 c 0xd4
 134.063476562 714.193359375 146.055664062 708.462890625 154.5 697.001953125 c 1
 219.833007812 701.668945312 286 704.668945312 353 706.001953125 c 0
 369.749023438 706.334960938 385.73828125 706.501953125 400.966796875 706.501953125 c 0
 446.655273438 706.501953125 485.5 705.001953125 517.500976562 702.001953125 c 0
 532.833984375 700.668945312 543.666992188 696.8359375 550 690.502929688 c 0
 556.333007812 684.169921875 559.5 675.336914062 559.5 664.00390625 c 0
 559.5 651.336914062 555.833007812 640.669921875 548.5 632.002929688 c 0
 541.166992188 623.3359375 529.5 619.002929688 513.5 619.002929688 c 0
 476.166992188 620.857421875 437.704101562 621.78515625 398.112304688 621.78515625 c 0
 323.877929688 621.78515625 245.673828125 618.524414062 163.5 612.002929688 c 1
 163.5 600.669921875 163.166992188 582.502929688 162.5 557.502929688 c 0
 161.833007812 532.502929688 161.166015625 507.002929688 160.499023438 481.002929688 c 0
 160.165039062 468.002929688 159.998046875 454.919921875 159.998046875 441.752929688 c 0
 159.998046875 428.5859375 160.165039062 415.3359375 160.499023438 402.001953125 c 1
 190.783203125 405.430664062 224.005859375 407.145507812 260.166992188 407.145507812 c 0
 266.1953125 407.145507812 272.305664062 407.09765625 278.498046875 407.001953125 c 0
 321.831054688 406.334960938 361.1640625 404.501953125 396.497070312 401.501953125 c 0
 431.830078125 398.501953125 459.497070312 395.334960938 479.497070312 392.001953125 c 0
 495.497070312 389.334960938 506.497070312 385.001953125 512.497070312 379.001953125 c 0
 518.497070312 373.001953125 521.830078125 364.668945312 522.497070312 354.001953125 c 0
 522.497070312 348.001953125 521.997070312 342.501953125 520.997070312 337.501953125 c 0
 519.997070312 332.501953125 518.1640625 327.668945312 515.497070312 323.001953125 c 0
 512.830078125 318.334960938 508.497070312 314.834960938 502.497070312 312.501953125 c 0
 496.497070312 310.168945312 488.830078125 309.3359375 479.497070312 310.002929688 c 0
 458.830078125 313.3359375 430.497070312 316.168945312 394.497070312 318.501953125 c 0
 358.497070312 320.834960938 317.997070312 322.16796875 272.997070312 322.500976562 c 0
 270 322.5234375 267.038085938 322.534179688 264.110351562 322.534179688 c 0
 223.081054688 322.534179688 188.875976562 320.356445312 161.497070312 316 c 1xe4
 165.497070312 139.333007812 167.830078125 42 168.497070312 24 c 0xe8
EndSplineSet
EndChar

StartChar: G
Encoding: 71 71 39
Width: 620
GlyphClass: 2
Flags: HMW
HStem: -31.0616 90.0616 278 81.8571 643.002 80.999
VStem: 50.665 100.001
LayerCount: 2
Fore
SplineSet
538.669921875 244 m 0
 537.336914062 230 533.162109375 213.669921875 526.162109375 195.002929688 c 0
 519.162109375 176.3359375 510.495117188 156.502929688 500.162109375 135.502929688 c 0
 489.829101562 114.502929688 476.49609375 94.169921875 460.163085938 74.5029296875 c 0
 443.830078125 54.8359375 426.663085938 37.0029296875 408.663085938 21.0029296875 c 0
 390.663085938 5.0029296875 369.663085938 -7.830078125 345.663085938 -17.4970703125 c 0
 323.211914062 -26.5400390625 301.052734375 -31.0615234375 279.185546875 -31.0615234375 c 0
 277.676757812 -31.0615234375 276.168945312 -31.0400390625 274.663085938 -30.9970703125 c 0
 247.330078125 -30.9970703125 221.497070312 -26.330078125 197.1640625 -16.9970703125 c 0
 172.831054688 -7.6640625 151.998046875 4.6689453125 134.665039062 20.001953125 c 0
 117.33203125 35.3349609375 102.165039062 53.16796875 89.1650390625 73.5009765625 c 0
 76.1650390625 93.833984375 66.498046875 115.500976562 60.1650390625 138.500976562 c 0
 53.83203125 161.500976562 50.6650390625 184.66796875 50.6650390625 208.000976562 c 0
 50.6650390625 257.333984375 55.498046875 305.333984375 65.1650390625 352.000976562 c 0
 74.83203125 398.66796875 88.33203125 440.66796875 105.665039062 478.000976562 c 0
 122.998046875 515.333984375 142.998046875 549.500976562 165.665039062 580.500976562 c 0
 188.33203125 611.500976562 212.499023438 637.500976562 238.166015625 658.500976562 c 0
 263.833007812 679.500976562 290 695.66796875 316.666992188 707.000976562 c 0
 343.333984375 718.333984375 369.000976562 724.000976562 393.66796875 724.000976562 c 0
 421.66796875 724.000976562 452.834960938 717.500976562 487.16796875 704.500976562 c 0
 521.500976562 691.500976562 544.000976562 680.333984375 554.66796875 671.000976562 c 0
 564.446289062 661.22265625 569.334960938 649.518554688 569.334960938 635.888671875 c 0
 569.334960938 629.07421875 568.11328125 621.778320312 565.668945312 614.000976562 c 0
 563.001953125 605.333984375 556.668945312 599.000976562 546.668945312 595.000976562 c 0
 541.668945312 593.000976562 536.501953125 592.000976562 531.168945312 592.000976562 c 0
 525.8359375 592.000976562 520.3359375 593.000976562 514.669921875 595.000976562 c 0
 510.669921875 596.333984375 501.502929688 601.333984375 487.169921875 610.000976562 c 0
 472.836914062 618.66796875 458.169921875 626.334960938 443.169921875 633.001953125 c 0
 428.169921875 639.668945312 414.336914062 643.001953125 401.669921875 643.001953125 c 0
 381.002929688 643.001953125 358.8359375 636.168945312 335.168945312 622.501953125 c 0
 311.501953125 608.834960938 288.834960938 589.16796875 267.16796875 563.500976562 c 0
 245.500976562 537.833984375 225.833984375 508.666992188 208.166992188 476 c 0
 190.5 443.333007812 176.5 406.333007812 166.166992188 365 c 0
 155.833984375 323.666992188 150.666992188 282 150.666992188 240 c 0
 150.666992188 210.666992188 156.333984375 182 167.666992188 154 c 0
 179 126 195.166992188 103.166992188 216.166992188 85.5 c 0
 237.166992188 67.8330078125 260.333984375 59 285.666992188 59 c 0
 301.666992188 59 318.166992188 64.1669921875 335.166992188 74.5 c 0
 352.166992188 84.8330078125 367.333984375 98 380.666992188 114 c 0
 394 130 406.5 148 418.166992188 168 c 0
 429.833984375 188 439.833984375 207.333007812 448.166992188 226 c 0
 456.5 244.666992188 463 262 467.666992188 278 c 1
 425.666992188 276 384.5 272.333007812 344.166992188 267 c 0
 303.833984375 261.666992188 276.000976562 254.666992188 260.66796875 246 c 0
 255.299804688 243.158203125 250.043945312 241.737304688 244.900390625 241.737304688 c 0
 239.184570312 241.737304688 233.607421875 243.491210938 228.168945312 247 c 0
 217.8359375 253.666992188 212.002929688 262.666992188 210.669921875 274 c 0
 210.1796875 277.1015625 209.934570312 280.118164062 209.934570312 283.05078125 c 0
 209.934570312 304.064453125 222.512695312 320.713867188 247.668945312 333 c 0
 266.3359375 342.333007812 307.168945312 349.5 370.168945312 354.5 c 0
 415.168945312 358.071289062 453.111328125 359.857421875 483.99609375 359.857421875 c 0
 496.349609375 359.857421875 507.57421875 359.571289062 517.668945312 359 c 0
 534.3359375 358.333007812 545.8359375 355.5 552.168945312 350.5 c 0
 558.501953125 345.5 563.001953125 337.666992188 565.668945312 327 c 0
 566.024414062 323.7109375 566.202148438 320.587890625 566.202148438 317.630859375 c 0
 566.202148438 298.41015625 558.69140625 286.200195312 543.669921875 281 c 0
 543.669921875 279 542.836914062 273.666992188 541.169921875 265 c 0
 539.502929688 256.333007812 538.669921875 249.333007812 538.669921875 244 c 0
EndSplineSet
EndChar

StartChar: H
Encoding: 72 72 40
Width: 620
GlyphClass: 2
Flags: HMW
HStem: -21.0741 21G 311.999 86.001 694.074 20G
VStem: 77.6303 98.002 448.723 99.5773
LayerCount: 2
Fore
SplineSet
541.633789062 24 m 0
 540.30078125 10 533.799804688 -1.169921875 522.1328125 -9.5029296875 c 0
 511.329101562 -17.21875 499.528320312 -21.076171875 486.725585938 -21.076171875 c 0
 485.700195312 -21.076171875 484.668945312 -21.0517578125 483.6328125 -21.001953125 c 0
 470.299804688 -21.001953125 459.299804688 -16.501953125 450.6328125 -7.501953125 c 0
 443.12109375 0.2978515625 439.364257812 10.7275390625 439.364257812 23.7861328125 c 0
 439.364257812 25.794921875 439.454101562 27.865234375 439.631835938 29.998046875 c 0
 445.692382812 114.237304688 448.72265625 207.841796875 448.72265625 310.811523438 c 0
 448.72265625 321.11328125 448.692382812 331.508789062 448.631835938 341.998046875 c 1
 437.297851562 341.331054688 396.465820312 336.1640625 326.1328125 326.497070312 c 0
 255.799804688 316.830078125 205.6328125 311.997070312 175.6328125 311.997070312 c 1
 175.6328125 309.997070312 175.465820312 306.497070312 175.1328125 301.497070312 c 0
 174.799804688 296.497070312 174.6328125 292.997070312 174.6328125 290.997070312 c 0
 172.6328125 257.997070312 171.6328125 219.247070312 171.6328125 174.747070312 c 0
 171.6328125 130.247070312 172.6328125 79.9970703125 174.6328125 23.9970703125 c 0
 173.299804688 9.9970703125 166.6328125 -1.169921875 154.6328125 -9.5029296875 c 0
 143.522460938 -17.21875 131.5546875 -21.076171875 118.729492188 -21.076171875 c 0
 117.703125 -21.076171875 116.670898438 -21.0517578125 115.633789062 -21.001953125 c 0
 102.30078125 -21.001953125 91.30078125 -16.501953125 82.6337890625 -7.501953125 c 0
 75.1220703125 0.298828125 71.3662109375 10.728515625 71.3662109375 23.787109375 c 0
 71.3662109375 25.7958984375 71.455078125 27.8662109375 71.6328125 29.9990234375 c 0
 72.2998046875 39.33203125 72.7998046875 54.33203125 73.1328125 74.9990234375 c 0
 73.4658203125 95.666015625 73.6328125 123.333007812 73.6328125 158 c 0
 73.6328125 192.666992188 73.9658203125 224 74.6328125 252 c 0
 74.6328125 274.666992188 75.2998046875 307.166992188 76.6328125 349.5 c 0
 77.9658203125 391.833007812 78.798828125 423.166015625 79.1318359375 443.499023438 c 0
 79.2431640625 450.270507812 79.298828125 458.168945312 79.298828125 467.1953125 c 0
 79.298828125 485.2734375 79.076171875 507.875 78.630859375 535 c 0
 77.9638671875 565 77.630859375 584.166992188 77.630859375 592.5 c 0
 77.630859375 600.833007812 77.9638671875 612.333007812 78.630859375 627 c 0
 79.2978515625 641.666992188 79.96484375 652.666992188 80.6318359375 660 c 0
 81.298828125 678 86.1318359375 691.5 95.1318359375 700.5 c 0
 104.131835938 709.5 115.631835938 714 129.631835938 714 c 0
 130.71875 714.049804688 131.791992188 714.07421875 132.8515625 714.07421875 c 0
 146.088867188 714.07421875 157.182617188 710.216796875 166.1328125 702.500976562 c 0
 175.799804688 694.16796875 180.6328125 681.000976562 180.6328125 663.000976562 c 0
 180.6328125 656.333984375 179.799804688 642.000976562 178.1328125 620.000976562 c 0
 176.465820312 598.000976562 175.6328125 577.66796875 175.6328125 559.000976562 c 0
 175.6328125 541.66796875 175.965820312 515.16796875 176.6328125 479.500976562 c 0
 177.299804688 443.833984375 177.6328125 416.666992188 177.6328125 398 c 1
 212.299804688 398 247.965820312 400 284.633789062 404 c 0
 321.30078125 408 354.633789062 412 384.633789062 416 c 0
 414.633789062 420 435.633789062 422.666992188 447.633789062 424 c 1
 447.633789062 428.666992188 447.30078125 435.5 446.633789062 444.5 c 0
 445.965820312 453.5 445.633789062 460.333007812 445.633789062 465 c 0
 444.965820312 506.333007812 444.633789062 533.666015625 444.633789062 546.999023438 c 0
 444.633789062 560.33203125 445.133789062 580.999023438 446.133789062 608.999023438 c 0
 447.133789062 636.999023438 447.965820312 653.999023438 448.633789062 659.999023438 c 0
 448.633789062 677.999023438 453.465820312 691.499023438 463.133789062 700.499023438 c 0
 472.80078125 709.499023438 484.30078125 713.999023438 497.633789062 713.999023438 c 0
 498.719726562 714.048828125 499.793945312 714.073242188 500.852539062 714.073242188 c 0
 514.090820312 714.073242188 525.184570312 710.215820312 534.133789062 702.5 c 0
 543.801757812 694.166992188 548.633789062 681 548.633789062 663 c 0
 548.633789062 650.333007812 548.301757812 624.333007812 547.633789062 585 c 0
 546.967773438 545.666992188 546.467773438 511.166992188 546.133789062 481.5 c 0
 546.067382812 475.5703125 546.03515625 469.114257812 546.03515625 462.131835938 c 0
 546.03515625 434.18359375 546.567382812 397.806640625 547.633789062 353 c 0
 548.079101562 337.448242188 548.30078125 320.267578125 548.30078125 301.458007812 c 0
 548.30078125 263.825195312 547.411132812 219.672851562 545.633789062 169 c 0
 542.965820312 93 541.633789062 44.6669921875 541.633789062 24 c 0
EndSplineSet
EndChar

StartChar: I
Encoding: 73 73 41
Width: 620
GlyphClass: 2
Flags: HMW
HStem: -13.998 80.001 -6.39919 77.8992 612.001 89.001 625.002 85.3327
VStem: 255.043 101.995 263.109 100.596
LayerCount: 2
Fore
SplineSet
518.036132812 -11 m 0x68
 500.703125 -8.3330078125 472.213867188 -6.8310546875 432.546875 -6.498046875 c 0
 424.618164062 -6.431640625 416.743164062 -6.3984375 408.920898438 -6.3984375 c 0x68
 377.609375 -6.3984375 347.151367188 -6.931640625 317.546875 -7.998046875 c 0
 280.546875 -9.3310546875 240.879882812 -10.6640625 198.546875 -11.9970703125 c 0
 156.213867188 -13.330078125 126.713867188 -13.9970703125 110.046875 -13.9970703125 c 0
 92.7138671875 -13.9970703125 80.046875 -10.6640625 72.046875 -3.9970703125 c 0
 60.25 5.833984375 59.9638671875 17.4921875 59.9638671875 24.966796875 c 0
 59.9638671875 35.6865234375 63.32421875 44.865234375 70.0458984375 52.50390625 c 0
 77.37890625 60.8369140625 89.7119140625 65.3369140625 107.044921875 66.00390625 c 0
 135.043945312 67.3369140625 184.377929688 69.00390625 255.043945312 71.00390625 c 1x88
 260.421875 154.600585938 263.110351562 241.782226562 263.110351562 332.547851562 c 0
 263.110351562 365.559570312 262.754882812 399.044921875 262.043945312 433.004882812 c 0
 261.375976562 457.004882812 260.875976562 479.671875 260.543945312 501.004882812 c 0
 260.2109375 522.337890625 260.043945312 537.670898438 260.043945312 547.00390625 c 0
 260.043945312 556.336914062 260.7109375 570.836914062 262.043945312 590.50390625 c 0
 263.375976562 610.170898438 264.043945312 621.670898438 264.043945312 625.00390625 c 0
 233.709960938 625.669921875 206.375976562 626.002929688 182.041992188 626.002929688 c 0
 157.708007812 626.002929688 136.374023438 625.669921875 118.040039062 625.002929688 c 0
 101.374023438 625.002929688 88.541015625 628.669921875 79.541015625 636.002929688 c 0
 66.2666015625 646.818359375 65.966796875 659.26953125 65.966796875 666.641601562 c 0
 65.966796875 677.5234375 69.82421875 686.9765625 77.5400390625 695.000976562 c 0
 85.873046875 703.66796875 99.0400390625 708.000976562 117.040039062 708.000976562 c 0
 172.598632812 709.556640625 224.305664062 710.334960938 272.161132812 710.334960938 c 0x94
 367.860351562 710.334960938 448.153320312 707.223632812 513.040039062 701.001953125 c 0
 542.372070312 698.334960938 557.706054688 684.66796875 559.0390625 660.000976562 c 0
 559.0390625 654.000976562 558.206054688 648.16796875 556.5390625 642.500976562 c 0
 554.872070312 636.833984375 552.0390625 631.333984375 548.0390625 626.000976562 c 0
 544.0390625 620.66796875 538.706054688 616.500976562 532.0390625 613.500976562 c 0
 525.372070312 610.500976562 518.372070312 610.000976562 511.0390625 612.000976562 c 0
 491.0390625 615.333984375 442.0390625 619.000976562 364.0390625 623.000976562 c 1
 364.0390625 617.66796875 363.706054688 602.66796875 363.0390625 578.000976562 c 0
 362.372070312 553.333984375 362.0390625 533.666992188 362.0390625 519 c 2
 362.0390625 456 l 2
 362.0390625 428.666992188 362.372070312 401.666992188 363.0390625 375 c 0
 363.483398438 359.2265625 363.704101562 342.157226562 363.704101562 323.791992188 c 0x24
 363.704101562 287.047851562 362.81640625 245.1171875 361.038085938 198 c 0
 358.37109375 127.333007812 357.038085938 85.3330078125 357.038085938 72 c 1
 385.704101562 72 419.038085938 71.8330078125 457.038085938 71.5 c 0
 495.038085938 71.1669921875 515.37109375 71 518.038085938 71 c 0
 533.37109375 71 544.204101562 67.5 550.536132812 60.5 c 0
 556.870117188 53.5 560.036132812 44.3330078125 560.036132812 33 c 0
 560.036132812 27 559.704101562 21.5 559.036132812 16.5 c 0
 558.370117188 11.5 556.370117188 6.5 553.036132812 1.5 c 0
 549.704101562 -3.5 545.204101562 -7.1669921875 539.536132812 -9.5 c 0
 533.870117188 -11.8330078125 526.703125 -12.3330078125 518.036132812 -11 c 0x68
EndSplineSet
EndChar

StartChar: J
Encoding: 74 74 42
Width: 620
GlyphClass: 2
Flags: HMW
HStem: -35.001 101.001 625 82.999
VStem: 57.1686 89 320.168 93.9971
LayerCount: 2
Fore
SplineSet
411.165039062 215 m 0
 405.83203125 155 397.833007812 106.33203125 387.166015625 68.9990234375 c 0
 376.499023438 31.666015625 363.499023438 4.9990234375 348.166015625 -11.0009765625 c 0
 332.833007812 -27.0009765625 314.833007812 -35.0009765625 294.166015625 -35.0009765625 c 0
 271.499023438 -35.0009765625 249.166015625 -31.0009765625 227.166015625 -23.0009765625 c 0
 205.166015625 -15.0009765625 185.999023438 -4.333984375 169.666015625 8.9990234375 c 0
 153.333007812 22.33203125 138.166015625 36.83203125 124.166015625 52.4990234375 c 0
 110.166015625 68.166015625 98.4990234375 83.8330078125 89.166015625 99.5 c 0
 79.8330078125 115.166992188 72.5 129.166992188 67.1669921875 141.5 c 0
 61.833984375 153.833007812 58.833984375 163.666015625 58.1669921875 170.999023438 c 0
 56.833984375 176.999023438 56.5009765625 184.166015625 57.16796875 192.499023438 c 0
 57.8349609375 200.83203125 59.3349609375 208.665039062 61.66796875 215.998046875 c 0
 64.0009765625 223.331054688 68.0009765625 229.831054688 73.66796875 235.498046875 c 0
 79.3349609375 241.165039062 87.16796875 244.665039062 97.16796875 245.998046875 c 0
 100.723632812 246.64453125 104.11328125 246.967773438 107.3359375 246.967773438 c 0
 117.40625 246.967773438 125.849609375 243.811523438 132.66796875 237.499023438 c 0
 141.66796875 229.166015625 146.16796875 218.666015625 146.16796875 205.999023438 c 0
 146.16796875 198.666015625 147.500976562 189.833007812 150.16796875 179.5 c 0
 152.834960938 169.166992188 157.334960938 157.166992188 163.66796875 143.5 c 0
 170.000976562 129.833007812 177.833984375 117.333007812 187.166992188 106 c 0
 196.5 94.6669921875 209.666992188 85.1669921875 226.666992188 77.5 c 0
 243.666992188 69.8330078125 261.833984375 66 281.166992188 66 c 0
 305.166992188 66 318.833984375 124 322.166992188 240 c 0
 322.166992188 254.666992188 321.5 301.666992188 320.166992188 381 c 0
 319.500976562 420.666015625 319.16796875 460.749023438 319.16796875 501.249023438 c 0
 319.16796875 541.749023438 319.500976562 582.666015625 320.166992188 624 c 1
 275.368164062 625.200195312 233.688476562 625.799804688 195.12890625 625.799804688 c 0
 169.421875 625.799804688 145.1015625 625.533203125 122.16796875 625 c 0
 105.500976562 625 92.833984375 628.666992188 84.1669921875 636 c 0
 71.4384765625 646.76953125 71.0927734375 659.155273438 71.0927734375 666.639648438 c 0
 71.0927734375 677.521484375 74.9501953125 686.974609375 82.666015625 694.999023438 c 0
 90.9990234375 703.666015625 103.83203125 707.999023438 121.165039062 707.999023438 c 0
 176.724609375 709.5546875 228.39453125 710.333007812 276.174804688 710.333007812 c 0
 371.7265625 710.333007812 451.723632812 707.221679688 516.166015625 701 c 0
 545.499023438 698.333007812 561.166015625 684.666015625 563.166015625 659.999023438 c 0
 563.166015625 653.999023438 562.166015625 648.166015625 560.166015625 642.499023438 c 0
 558.166015625 636.83203125 555.499023438 631.33203125 552.166015625 625.999023438 c 0
 548.833007812 620.666015625 543.833007812 616.499023438 537.166015625 613.499023438 c 0
 530.499023438 610.499023438 522.83203125 609.999023438 514.165039062 611.999023438 c 0
 490.83203125 615.33203125 455.165039062 618.33203125 407.165039062 620.999023438 c 1
 407.165039062 601.666015625 407.83203125 572.333007812 409.165039062 533 c 0
 410.498046875 493.666992188 411.665039062 457.833984375 412.665039062 425.500976562 c 0
 413.665039062 393.16796875 414.165039062 357.16796875 414.165039062 317.500976562 c 0
 414.165039062 277.833984375 413.165039062 243.666992188 411.165039062 215 c 0
EndSplineSet
EndChar

StartChar: K
Encoding: 75 75 43
Width: 620
GlyphClass: 2
Flags: HMW
HStem: -21.0751 21G 694.072 20G
VStem: 66.7335 95.2646
LayerCount: 2
Fore
SplineSet
169.999023438 24 m 0
 168.666015625 10 162.170898438 -1.16796875 150.502929688 -9.5009765625 c 0
 139.701171875 -17.216796875 127.612304688 -21.07421875 114.239257812 -21.07421875 c 0
 113.168945312 -21.07421875 112.08984375 -21.0498046875 111.002929688 -21 c 0
 97.669921875 -21 86.669921875 -16.5 78.0029296875 -7.5 c 0
 70.4912109375 0.30078125 66.7353515625 10.73046875 66.7353515625 23.7890625 c 0
 66.7353515625 25.7978515625 66.82421875 27.8681640625 67.001953125 30.0009765625 c 0
 68.501953125 52 69.251953125 89.091796875 69.251953125 141.276367188 c 0
 69.251953125 158.673828125 69.1689453125 177.748046875 69.001953125 198.5 c 0
 68.3349609375 281.5 66.66796875 367 64.0009765625 455 c 0
 62.66796875 497.666992188 62.0009765625 526.5 62.0009765625 541.5 c 0
 62.0009765625 556.5 62.5009765625 578.166992188 63.5009765625 606.5 c 0
 64.5009765625 634.833007812 65.0009765625 652.666015625 65.0009765625 659.999023438 c 0
 65.66796875 677.999023438 70.66796875 691.499023438 80.0009765625 700.499023438 c 0
 89.333984375 709.499023438 101.000976562 713.999023438 115.000976562 713.999023438 c 0
 116.087890625 714.048828125 117.161132812 714.073242188 118.220703125 714.073242188 c 0
 131.458007812 714.073242188 142.551757812 710.215820312 151.501953125 702.5 c 0
 161.168945312 694.166992188 166.001953125 681 166.001953125 663 c 0
 166.001953125 647 165.334960938 612 164.001953125 558 c 0
 162.668945312 504 162.001953125 459.333007812 162.001953125 424 c 1
 186.001953125 447.333007812 222.001953125 482.666015625 270.001953125 529.999023438 c 0
 318.001953125 577.33203125 356.334960938 614.83203125 385.001953125 642.499023438 c 0
 413.668945312 670.166015625 432.001953125 687.333007812 440.001953125 694 c 0
 449.334960938 702.666992188 458.334960938 708.5 467.001953125 711.5 c 0
 475.668945312 714.5 483.168945312 715.166992188 489.501953125 713.5 c 0
 495.834960938 711.833007812 501.666992188 708.333007812 507.000976562 703 c 0
 514.510742188 694.911132812 518.267578125 685.946289062 518.267578125 676.10546875 c 0
 518.267578125 663.235351562 511.844726562 648.8671875 498.999023438 633 c 0
 488.999023438 621 453.666992188 584.5 392.999023438 523.5 c 0
 332.333007812 462.5 278.333007812 409.333007812 230.999023438 364 c 1
 253.666992188 340 292.166992188 302.5 346.499023438 251.5 c 0
 400.833007812 200.5 447.999023438 155.666992188 487.999023438 117 c 0
 527.999023438 78.3330078125 550.333007812 54 554.999023438 44 c 0
 556.999023438 37.666015625 557.999023438 31.666015625 557.999023438 25.9990234375 c 0
 557.999023438 20.33203125 556.999023438 14.9990234375 554.999023438 9.9990234375 c 0
 550.999023438 -0.0009765625 544.999023438 -7.66796875 536.999023438 -13.0009765625 c 0
 528.724609375 -18.5986328125 520.494140625 -21.3974609375 512.307617188 -21.3974609375 c 0
 498.069335938 -21.3974609375 483.967773438 -12.931640625 469.999023438 4 c 0
 463.331054688 12.6669921875 439.499023438 35.6669921875 398.499023438 73 c 0
 357.499023438 110.333007812 313.331054688 151.5 265.999023438 196.5 c 0
 218.666015625 241.5 183.999023438 277.333007812 161.999023438 304 c 1
 161.999023438 284 l 2
 161.999023438 272.666992188 164.666015625 186 169.999023438 24 c 0
EndSplineSet
EndChar

StartChar: L
Encoding: 76 76 44
Width: 620
GlyphClass: 2
Flags: HMW
HStem: -15.0049 86.9159
VStem: 62.1323 103.002 91.9323 91.7021
LayerCount: 2
Fore
SplineSet
515.134765625 10 m 0xc0
 469.801757812 1.3330078125 401.133789062 -5.005859375 309.133789062 -9.005859375 c 0
 217.133789062 -13.005859375 149.466796875 -15.005859375 106.1328125 -15.005859375 c 0
 92.80078125 -15.005859375 81.80078125 -10.505859375 73.1328125 -1.505859375 c 0
 65.62109375 6.294921875 61.865234375 16.724609375 61.865234375 29.783203125 c 0
 61.865234375 31.7919921875 61.955078125 33.8623046875 62.1328125 35.9951171875 c 0xc0
 62.1328125 41.328125 65.96484375 79.4951171875 73.6328125 150.495117188 c 0
 81.298828125 221.495117188 86.798828125 289.995117188 90.1328125 355.995117188 c 0
 91.33203125 373.995117188 91.931640625 400.994140625 91.931640625 436.993164062 c 0
 91.931640625 460.993164062 91.666015625 488.994140625 91.1328125 520.995117188 c 0
 89.798828125 600.995117188 89.1328125 644.328125 89.1328125 650.995117188 c 0
 89.798828125 668.995117188 94.966796875 682.662109375 104.6328125 691.995117188 c 0
 114.30078125 701.328125 125.80078125 705.995117188 139.133789062 705.995117188 c 0
 140.220703125 706.044921875 141.293945312 706.069335938 142.353515625 706.069335938 c 0
 155.590820312 706.069335938 166.684570312 702.211914062 175.634765625 694.49609375 c 0
 185.301757812 686.163085938 190.134765625 672.99609375 190.134765625 654.99609375 c 0
 190.134765625 635.663085938 189.466796875 609.330078125 188.134765625 575.997070312 c 0
 186.801757812 542.6640625 185.301757812 500.6640625 183.634765625 449.997070312 c 0xa0
 181.966796875 399.330078125 180.466796875 355.330078125 179.134765625 317.997070312 c 0
 178.466796875 289.997070312 175.966796875 249.330078125 171.634765625 195.997070312 c 0
 167.301757812 142.6640625 165.134765625 101.331054688 165.134765625 71.998046875 c 1
 170.005859375 71.9404296875 174.946289062 71.9111328125 179.955078125 71.9111328125 c 0
 232.541015625 71.9111328125 292.767578125 75.107421875 360.634765625 81.498046875 c 0
 434.966796875 88.498046875 484.466796875 95.3310546875 509.134765625 101.998046875 c 0
 517.134765625 103.998046875 524.301757812 103.665039062 530.634765625 100.998046875 c 0
 536.966796875 98.3310546875 541.966796875 94.3310546875 545.634765625 88.998046875 c 0
 549.301757812 83.6650390625 552.301757812 77.83203125 554.634765625 71.4990234375 c 0
 556.966796875 65.166015625 558.134765625 59.3330078125 558.134765625 54 c 0
 558.134765625 42 555.134765625 32.3330078125 549.134765625 25 c 0
 543.134765625 17.6669921875 531.801757812 12.6669921875 515.134765625 10 c 0xc0
EndSplineSet
EndChar

StartChar: M
Encoding: 77 77 45
Width: 620
GlyphClass: 2
Flags: HMW
HStem: -9.99414 21G<79.9995 86.6655>
VStem: 43.9975 83.001 256 104.999
LayerCount: 2
Fore
SplineSet
126.998046875 59 m 0
 127.04296875 57.578125 127.06640625 56.17578125 127.06640625 54.7939453125 c 0
 127.06640625 35.443359375 122.708984375 20.0166015625 113.998046875 8.505859375 c 0
 104.666015625 -3.8271484375 93.33203125 -9.994140625 80 -9.994140625 c 0
 56 -9.3271484375 44 15.33984375 44 64.0068359375 c 0
 44 72.0068359375 45 85.673828125 47 105.006835938 c 0
 49 124.33984375 51.5 149.672851562 54.5 181.005859375 c 0
 57.5 212.338867188 60 239.671875 62 263.004882812 c 0
 62.666015625 271.004882812 63.666015625 283.337890625 65 300.004882812 c 0
 69 349.337890625 72.166015625 387.837890625 74.5 415.504882812 c 0
 76.83203125 443.171875 80.33203125 477.671875 85 519.004882812 c 0
 89.666015625 560.337890625 93.833984375 592.837890625 97.5 616.504882812 c 0
 101.16796875 640.171875 105.66796875 656.671875 111 666.004882812 c 0
 117.666992188 680.004882812 127.833984375 690.171875 141.501953125 696.504882812 c 0
 152.791015625 701.736328125 163.740234375 704.352539062 174.349609375 704.352539062 c 0
 176.581054688 704.352539062 178.798828125 704.236328125 181.001953125 704.004882812 c 0
 211.001953125 704.004882812 229.66796875 691.671875 237.001953125 667.004882812 c 0
 245.001953125 637.671875 253.66796875 589.171875 263.001953125 521.504882812 c 0
 272.333984375 453.837890625 281.833984375 376.670898438 291.501953125 290.00390625 c 0
 301.16796875 203.336914062 308.001953125 146.00390625 312.001953125 118.00390625 c 1
 318.66796875 212.00390625 326.334960938 296.670898438 335.001953125 372.00390625 c 0
 341.001953125 427.336914062 349.169921875 483.00390625 359.501953125 539.00390625 c 0
 369.834960938 595.00390625 379.001953125 637.670898438 387.001953125 667.00390625 c 0
 389.669921875 677.00390625 395.169921875 685.170898438 403.501953125 691.50390625 c 0
 411.834960938 697.836914062 420.66796875 701.669921875 430.001953125 703.002929688 c 0
 436.221679688 703.891601562 441.998046875 704.3359375 447.330078125 704.3359375 c 0
 449.998046875 704.3359375 452.5546875 704.224609375 455 704.001953125 c 2
 459 704.001953125 l 1
 472.5 704.001953125 l 2
 476.166992188 704.001953125 481.166992188 703.168945312 487.5 701.501953125 c 0
 493.833984375 699.834960938 499 697.66796875 503 695.000976562 c 0
 507 692.333984375 510.666992188 688.166992188 514 682.5 c 0
 517.333984375 676.833007812 519.666015625 670 520.999023438 662 c 0
 523.666015625 642 531.333984375 544.333007812 544 369 c 0
 556.666992188 193.666992188 566 94.6669921875 572 72 c 0
 574.666992188 60.5712890625 576 50.33984375 576 41.3056640625 c 0
 576 18.720703125 567.666992188 3.6181640625 551 -4.0009765625 c 0
 545.208984375 -6.4384765625 539.41796875 -7.6572265625 533.626953125 -7.6572265625 c 2
 512.998046875 -2.5 l 2
 500.331054688 3.8330078125 490.998046875 17.666015625 484.998046875 38.9990234375 c 0
 470.998046875 83.666015625 458.666015625 278.333007812 447.998046875 623 c 1
 428.666015625 526.333007812 415.998046875 438.333007812 409.998046875 359 c 0
 403.998046875 283 395.831054688 210.833007812 385.498046875 142.5 c 0
 375.166015625 74.1669921875 366.998046875 32.333984375 360.998046875 17.0009765625 c 0
 353.666015625 1.0009765625 334.998046875 -6.9990234375 304.998046875 -6.9990234375 c 0
 303.331054688 -7.08203125 301.703125 -7.1240234375 300.115234375 -7.1240234375 c 0
 288.995117188 -7.1240234375 279.791015625 -5.08203125 272.499023438 -0.9990234375 c 0
 264.166015625 3.66796875 258.666015625 10.3349609375 255.999023438 19.001953125 c 0
 247.999023438 51.001953125 234.666015625 124.501953125 215.999023438 239.501953125 c 0
 197.33203125 354.501953125 180.33203125 464.668945312 164.999023438 570.001953125 c 1
 162.999023438 548.668945312 161.166015625 524.668945312 159.499023438 498.001953125 c 0
 157.83203125 471.334960938 156.33203125 448.16796875 154.999023438 428.500976562 c 0
 153.666015625 408.833984375 151.499023438 379.666992188 148.499023438 341 c 0
 145.499023438 302.333007812 143.33203125 273 141.999023438 253 c 0
 140.666015625 225 138.666015625 196.166992188 135.999023438 166.5 c 0
 133.33203125 136.833007812 131.166015625 113.5 129.498046875 96.5 c 0
 127.831054688 79.5 126.998046875 67 126.998046875 59 c 0
EndSplineSet
EndChar

StartChar: N
Encoding: 78 78 46
Width: 620
GlyphClass: 2
Flags: HMW
HStem: -14.1178 21G
VStem: 63.9102 82.7479 463.33 92.5787 472.911 83.18
LayerCount: 2
Fore
SplineSet
481.909179688 -14 m 0xd0
 480.416992188 -14.078125 478.955078125 -14.1181640625 477.5234375 -14.1181640625 c 0
 466.797851562 -14.1181640625 457.7578125 -11.9140625 450.40625 -7.5029296875 c 0
 442.073242188 -2.5029296875 436.240234375 4.330078125 432.907226562 12.9970703125 c 0
 426.907226562 26.330078125 410.907226562 55.6630859375 384.907226562 100.99609375 c 0
 358.907226562 146.329101562 332.07421875 193.49609375 304.407226562 242.49609375 c 0
 276.740234375 291.49609375 247.740234375 346.329101562 217.407226562 406.99609375 c 0
 187.07421875 467.663085938 164.241210938 519.330078125 148.908203125 561.997070312 c 1
 152.108398438 503.86328125 153.708007812 448.9296875 153.708007812 397.196289062 c 0
 153.708007812 384.262695312 153.608398438 371.529296875 153.408203125 358.99609375 c 0
 152.408203125 296.329101562 150.908203125 232.49609375 148.908203125 167.49609375 c 0
 147.408203125 118.748046875 146.658203125 84.3427734375 146.658203125 64.2802734375 c 0
 146.658203125 55.919921875 146.974609375 44.9990234375 146.974609375 44.8046875 c 0
 146.974609375 25.599609375 142.619140625 11.330078125 133.908203125 1.9970703125 c 0
 125.159179688 -7.3779296875 114.65234375 -12.0654296875 102.387695312 -12.0654296875 c 0
 101.569335938 -12.0654296875 100.743164062 -12.044921875 99.9091796875 -12.0029296875 c 0
 85.9091796875 -12.0029296875 76.4091796875 -6.3359375 71.4091796875 4.9970703125 c 0
 66.4091796875 16.330078125 63.9091796875 32.9970703125 63.9091796875 54.9970703125 c 0
 63.9091796875 68.330078125 64.9091796875 119.997070312 66.9091796875 209.997070312 c 0
 68.9091796875 299.997070312 70.2421875 378.6640625 70.9091796875 445.997070312 c 0
 71.076171875 462.83203125 71.1591796875 479.5 71.1591796875 496.001953125 c 0
 71.1591796875 545.5 70.4091796875 593.499023438 68.9091796875 639.998046875 c 0
 68.8134765625 641.903320312 68.765625 643.767578125 68.765625 645.590820312 c 0
 68.765625 656.528320312 70.48046875 665.997070312 73.9091796875 673.99609375 c 0
 77.9091796875 683.329101562 83.576171875 690.162109375 90.9091796875 694.495117188 c 0
 98.2421875 698.828125 105.909179688 701.828125 113.909179688 703.495117188 c 0
 121.909179688 705.162109375 130.576171875 705.329101562 139.909179688 703.99609375 c 0
 168.576171875 703.99609375 186.576171875 691.663085938 193.909179688 666.99609375 c 0
 207.909179688 622.99609375 246.576171875 541.99609375 309.909179688 423.99609375 c 0
 373.2421875 305.99609375 426.909179688 210.663085938 470.909179688 137.99609375 c 1
 472.6875 179.779296875 473.576171875 234.232421875 473.576171875 301.35546875 c 0
 473.576171875 334.904296875 473.354492188 371.618164062 472.91015625 411.497070312 c 0xd0
 471.577148438 531.1640625 468.577148438 609.997070312 463.91015625 647.997070312 c 0
 463.5234375 651.09375 463.330078125 654.096679688 463.330078125 657.005859375 c 0
 463.330078125 669.12890625 466.690429688 679.625976562 473.411132812 688.497070312 c 0
 481.744140625 699.497070312 492.577148438 704.997070312 505.91015625 704.997070312 c 0
 513.243164062 704.997070312 519.576171875 704.1640625 524.909179688 702.497070312 c 0
 530.2421875 700.830078125 534.409179688 698.830078125 537.409179688 696.497070312 c 0
 540.409179688 694.1640625 542.909179688 690.331054688 544.909179688 684.998046875 c 0
 546.909179688 679.665039062 548.409179688 674.83203125 549.409179688 670.499023438 c 0
 550.409179688 666.166015625 551.576171875 659.333007812 552.909179688 650 c 0
 554.2421875 639.333007812 555.2421875 585.833007812 555.909179688 489.5 c 0xe0
 556.030273438 471.981445312 556.090820312 454.34765625 556.090820312 436.59765625 c 0
 556.090820312 356.741210938 554.86328125 274.541992188 552.409179688 190 c 0
 549.409179688 86.6669921875 544.2421875 27 536.909179688 11 c 0
 530.2421875 -5.6669921875 511.909179688 -14 481.909179688 -14 c 0xd0
EndSplineSet
EndChar

StartChar: O
Encoding: 79 79 47
Width: 620
GlyphClass: 2
Flags: HMW
HStem: -24 83.998 636.997 81.001
VStem: 65.2358 96.3855 458.736 96.0643
LayerCount: 2
Fore
SplineSet
277.237304688 -24 m 0
 235.904296875 -23.3330078125 198.904296875 -10.8369140625 166.237304688 13.49609375 c 0
 133.569335938 37.8291015625 108.403320312 70.49609375 90.736328125 111.49609375 c 0
 73.7119140625 151.004882812 65.2001953125 194.072265625 65.2001953125 240.700195312 c 0
 65.2001953125 242.4609375 65.2119140625 244.2265625 65.236328125 245.997070312 c 2
 65.236328125 262.997070312 l 2
 65.236328125 292.997070312 65.4033203125 316.997070312 65.736328125 334.997070312 c 0
 66.0693359375 352.997070312 67.40234375 376.997070312 69.7353515625 406.997070312 c 0
 72.068359375 436.997070312 76.068359375 465.497070312 81.7353515625 492.497070312 c 0
 87.40234375 519.497070312 94.5693359375 544.997070312 103.236328125 568.997070312 c 0
 119.903320312 612.330078125 149.569335938 647.997070312 192.237304688 675.997070312 c 0
 234.904296875 703.997070312 282.237304688 717.997070312 334.237304688 717.997070312 c 0
 360.904296875 717.997070312 386.571289062 712.830078125 411.237304688 702.497070312 c 0
 435.905273438 692.1640625 457.905273438 677.331054688 477.237304688 657.998046875 c 0
 496.571289062 638.665039062 512.737304688 613.998046875 525.737304688 583.998046875 c 0
 538.737304688 553.998046875 546.905273438 520.331054688 550.237304688 482.998046875 c 0
 552.905273438 449.665039062 554.405273438 413.998046875 554.737304688 375.998046875 c 0
 554.780273438 371.251953125 554.799804688 366.498046875 554.799804688 361.736328125 c 0
 554.799804688 328.374023438 553.780273438 294.627929688 551.737304688 260.499023438 c 0
 549.405273438 221.499023438 544.905273438 190.666015625 538.237304688 167.999023438 c 0
 529.571289062 136.666015625 518.904296875 109.666015625 506.237304688 86.9990234375 c 0
 493.569335938 64.33203125 479.569335938 45.83203125 464.237304688 31.4990234375 c 0
 448.904296875 17.166015625 431.237304688 5.8330078125 411.237304688 -2.5 c 0
 391.237304688 -10.8330078125 370.737304688 -16.5 349.737304688 -19.5 c 0
 328.737304688 -22.5 304.569335938 -24 277.237304688 -24 c 0
277.237304688 59.99609375 m 0
 295.237304688 59.99609375 312.233398438 62.1640625 328.233398438 66.4970703125 c 0
 344.233398438 70.830078125 359.901367188 77.830078125 375.233398438 87.4970703125 c 0
 390.567382812 97.1640625 404.233398438 109.997070312 416.233398438 125.997070312 c 0
 428.233398438 141.997070312 437.567382812 160.6640625 444.233398438 181.997070312 c 0
 446.901367188 190.6640625 449.568359375 210.6640625 452.235351562 241.997070312 c 0
 454.901367188 273.330078125 457.069335938 310.663085938 458.736328125 353.99609375 c 0
 459.225585938 366.741210938 459.471679688 379.428710938 459.471679688 392.05859375 c 0
 459.471679688 422.370117188 458.059570312 452.349609375 455.236328125 481.99609375 c 0
 451.236328125 525.99609375 437.069335938 562.829101562 412.736328125 592.49609375 c 0
 388.403320312 622.163085938 358.569335938 636.99609375 323.237304688 636.99609375 c 0
 287.237304688 636.99609375 257.069335938 623.829101562 232.737304688 597.49609375 c 0
 208.404296875 571.163085938 190.904296875 534.330078125 180.237304688 486.997070312 c 0
 167.827148438 433.408203125 161.622070312 371.466796875 161.622070312 301.171875 c 0
 161.622070312 288.389648438 161.827148438 275.331054688 162.237304688 261.99609375 c 0
 162.904296875 240.663085938 164.737304688 220.99609375 167.737304688 202.99609375 c 0
 170.737304688 184.99609375 174.904296875 166.99609375 180.237304688 148.99609375 c 0
 185.569335938 130.99609375 192.569335938 115.49609375 201.237304688 102.49609375 c 0
 209.904296875 89.49609375 220.737304688 79.1630859375 233.737304688 71.49609375 c 0
 246.737304688 63.8291015625 261.237304688 59.99609375 277.237304688 59.99609375 c 0
EndSplineSet
EndChar

StartChar: P
Encoding: 80 80 48
Width: 620
GlyphClass: 2
Flags: HMW
HStem: -19.0771 21G 230.001 81.9374 630.003 80.998
VStem: 84.7126 94.3366 89.7886 102.314 454.046 92.0029
LayerCount: 2
Fore
SplineSet
192.102539062 21.7568359375 m 0xec
 192.102539062 8.837890625 186.583984375 -1.2421875 175.547851562 -8.4951171875 c 0
 164.814453125 -15.548828125 152.811523438 -19.0751953125 139.5390625 -19.0751953125 c 0
 138.384765625 -19.0751953125 137.220703125 -19.048828125 136.046875 -18.9951171875 c 0
 122.046875 -18.9951171875 110.546875 -14.828125 101.546875 -6.4951171875 c 0
 93.7080078125 0.7626953125 89.7890625 10.9287109375 89.7890625 24.0029296875 c 0xec
 89.7890625 25.939453125 89.875 27.939453125 90.046875 30.00390625 c 0
 90.7138671875 40.6708984375 91.046875 56.50390625 91.046875 77.50390625 c 0
 91.046875 98.50390625 90.8798828125 124.50390625 90.546875 155.50390625 c 0
 90.2138671875 186.50390625 89.7138671875 216.50390625 89.046875 245.50390625 c 0
 88.3798828125 274.50390625 87.546875 310.00390625 86.546875 352.00390625 c 0
 85.546875 394.00390625 85.046875 429.00390625 85.046875 457.00390625 c 0
 84.82421875 471.455078125 84.712890625 487.463867188 84.712890625 505.029296875 c 0xf4
 84.712890625 540.134765625 85.1572265625 581.458984375 86.0458984375 629.002929688 c 0
 82.712890625 632.3359375 80.712890625 634.002929688 80.0458984375 634.002929688 c 0
 74.712890625 642.002929688 72.8798828125 650.169921875 74.546875 658.502929688 c 0
 76.2138671875 666.8359375 79.880859375 674.3359375 85.5478515625 681.002929688 c 0
 91.21484375 687.669921875 97.3818359375 691.669921875 104.048828125 693.002929688 c 0
 128.048828125 698.3359375 163.215820312 702.668945312 209.548828125 706.001953125 c 0
 255.881835938 709.334960938 288.381835938 711.001953125 307.048828125 711.001953125 c 0
 352.381835938 711.001953125 392.881835938 703.001953125 428.548828125 687.001953125 c 0
 464.215820312 671.001953125 492.548828125 646.834960938 513.548828125 614.501953125 c 0
 534.548828125 582.168945312 545.381835938 543.668945312 546.048828125 499.001953125 c 0
 546.048828125 461.668945312 539.881835938 426.501953125 527.548828125 393.501953125 c 0
 515.215820312 360.501953125 498.548828125 332.001953125 477.548828125 308.001953125 c 0
 456.548828125 284.001953125 430.715820312 265.001953125 400.048828125 251.001953125 c 0
 369.381835938 237.001953125 336.048828125 230.001953125 300.048828125 230.001953125 c 0
 248.048828125 230.001953125 207.048828125 233.668945312 177.048828125 241.001953125 c 1
 178.381835938 213.001953125 180.048828125 186.168945312 182.048828125 160.501953125 c 0
 184.048828125 134.834960938 186.048828125 108.16796875 188.048828125 80.5009765625 c 0
 190.313476562 49.16796875 192.102539062 24.41796875 192.102539062 21.7568359375 c 0xec
307.047851562 630.005859375 m 0
 283.71484375 630.005859375 241.716796875 627.336914062 181.049804688 622.00390625 c 1
 181.049804688 608.670898438 180.3828125 584.00390625 179.049804688 548.00390625 c 0xf4
 177.716796875 512.00390625 176.716796875 475.00390625 176.049804688 437.00390625 c 0
 175.3828125 399.00390625 175.049804688 362.00390625 175.049804688 326.00390625 c 1
 200.673828125 316.62890625 230.399414062 311.94140625 264.2265625 311.94140625 c 0
 266.482421875 311.94140625 268.756835938 311.961914062 271.049804688 312.00390625 c 0
 290.3828125 312.00390625 307.8828125 313.336914062 323.549804688 316.00390625 c 0
 339.216796875 318.670898438 352.883789062 322.337890625 364.55078125 327.004882812 c 0
 376.217773438 331.671875 386.717773438 337.838867188 396.05078125 345.505859375 c 0
 405.383789062 353.172851562 413.216796875 360.83984375 419.549804688 368.506835938 c 0
 425.8828125 376.173828125 431.215820312 385.173828125 435.548828125 395.506835938 c 0
 439.881835938 405.83984375 443.21484375 415.172851562 445.547851562 423.505859375 c 0
 447.880859375 431.838867188 449.713867188 441.505859375 451.046875 452.505859375 c 0
 452.379882812 463.505859375 453.212890625 472.505859375 453.545898438 479.505859375 c 0
 453.87890625 486.505859375 454.045898438 495.005859375 454.045898438 505.005859375 c 0
 454.045898438 523.672851562 450.545898438 540.505859375 443.545898438 555.505859375 c 0
 436.545898438 570.505859375 427.87890625 582.505859375 417.545898438 591.505859375 c 0
 407.212890625 600.505859375 395.379882812 608.005859375 382.046875 614.005859375 c 0
 368.713867188 620.005859375 355.880859375 624.172851562 343.547851562 626.505859375 c 0
 331.21484375 628.838867188 319.047851562 630.005859375 307.047851562 630.005859375 c 0
EndSplineSet
EndChar

StartChar: Q
Encoding: 81 81 49
Width: 620
GlyphClass: 2
Flags: HMW
HStem: -24.1963 84.2021 637.005 80.9971
VStem: 60.8143 95.6075 265.602 73.1323 458.845 93.3379
LayerCount: 2
Fore
SplineSet
535.744140625 -206 m 0
 528.634765625 -210.443359375 521.225585938 -212.6640625 513.521484375 -212.6640625 c 0
 509.666015625 -212.6640625 505.737304688 -212.108398438 501.735351562 -210.997070312 c 0
 489.735351562 -207.6640625 479.068359375 -199.997070312 469.735351562 -187.997070312 c 0
 460.40234375 -175.997070312 444.40234375 -153.6640625 421.735351562 -120.997070312 c 0
 399.068359375 -88.330078125 377.068359375 -54.9970703125 355.735351562 -20.9970703125 c 1
 341.870117188 -23.130859375 326.938476562 -24.197265625 310.939453125 -24.197265625 c 0
 306.938476562 -24.197265625 302.870117188 -24.130859375 298.735351562 -23.9970703125 c 0
 269.40234375 -23.9970703125 242.069335938 -19.330078125 216.736328125 -9.9970703125 c 0
 191.403320312 -0.6640625 169.5703125 12.3359375 151.237304688 29.0029296875 c 0
 132.904296875 45.669921875 117.071289062 65.5029296875 103.73828125 88.5029296875 c 0
 90.4052734375 111.502929688 80.4052734375 136.169921875 73.73828125 162.502929688 c 0
 67.0712890625 188.8359375 63.0712890625 216.668945312 61.73828125 246.001953125 c 0
 61.1220703125 263.084960938 60.8134765625 279.766601562 60.8134765625 296.046875 c 0
 60.8134765625 403.024414062 74.1220703125 492.67578125 100.73828125 565.001953125 c 0
 118.071289062 609.001953125 147.73828125 645.501953125 189.73828125 674.501953125 c 0
 231.73828125 703.501953125 278.73828125 718.001953125 330.73828125 718.001953125 c 0
 358.071289062 718.001953125 383.571289062 713.334960938 407.23828125 704.001953125 c 0
 430.905273438 694.668945312 452.405273438 681.001953125 471.73828125 663.001953125 c 0
 491.071289062 645.001953125 507.23828125 620.668945312 520.23828125 590.001953125 c 0
 533.23828125 559.334960938 542.071289062 523.66796875 546.73828125 483.000976562 c 0
 550.368164062 447.220703125 552.18359375 405.2890625 552.18359375 357.20703125 c 0
 552.18359375 343.473632812 552.03515625 329.23828125 551.739257812 314.500976562 c 0
 550.40625 248.16796875 546.073242188 197.66796875 538.740234375 163.000976562 c 0
 524.740234375 91.0009765625 492.073242188 39.66796875 440.740234375 9.0009765625 c 1
 454.073242188 -10.33203125 468.240234375 -29.9990234375 483.240234375 -49.9990234375 c 0
 498.240234375 -69.9990234375 512.573242188 -88.666015625 526.240234375 -105.999023438 c 0
 539.907226562 -123.33203125 549.07421875 -134.999023438 553.741210938 -140.999023438 c 0
 558.408203125 -148.33203125 560.075195312 -156.33203125 558.7421875 -164.999023438 c 0
 557.409179688 -173.666015625 554.576171875 -181.833007812 550.243164062 -189.5 c 0
 545.91015625 -197.166992188 541.077148438 -202.666992188 535.744140625 -206 c 0
158.735351562 262.004882812 m 0
 160.735351562 224.004882812 167.901367188 189.837890625 180.234375 159.504882812 c 0
 192.567382812 129.171875 209.067382812 105.004882812 229.734375 87.0048828125 c 0
 250.401367188 69.0048828125 273.401367188 60.0048828125 298.734375 60.0048828125 c 2
 308.734375 60.0048828125 l 1
 292.734375 90.0048828125 281.401367188 113.337890625 274.734375 130.004882812 c 0
 268.646484375 146.33203125 265.602539062 160.706054688 265.602539062 173.127929688 c 0
 265.602539062 190.630859375 271.646484375 204.256835938 283.734375 214.005859375 c 0
 289.734375 218.672851562 296.234375 221.505859375 303.234375 222.505859375 c 0
 310.234375 223.505859375 316.901367188 221.505859375 323.234375 216.505859375 c 0
 329.567382812 211.505859375 334.734375 204.005859375 338.734375 194.005859375 c 0
 350.734375 160.672851562 368.067382812 124.33984375 390.734375 85.0068359375 c 1
 419.401367188 104.33984375 438.401367188 135.33984375 447.734375 178.006835938 c 0
 449.734375 188.006835938 451.901367188 208.173828125 454.234375 238.506835938 c 0
 456.567382812 268.83984375 458.067382812 306.672851562 458.734375 352.005859375 c 0
 458.80859375 357.044921875 458.845703125 362.059570312 458.845703125 367.049804688 c 0
 458.845703125 406.948242188 456.475585938 445.266601562 451.735351562 482.004882812 c 0
 446.40234375 529.337890625 431.90234375 567.004882812 408.235351562 595.004882812 c 0
 384.568359375 623.004882812 355.068359375 637.004882812 319.735351562 637.004882812 c 0
 283.068359375 637.004882812 252.568359375 624.004882812 228.235351562 598.004882812 c 0
 203.90234375 572.004882812 186.40234375 535.671875 175.735351562 489.004882812 c 0
 162.859375 437.5 156.420898438 382.5 156.420898438 324.004882812 c 0
 156.420898438 303.756835938 157.192382812 283.08984375 158.735351562 262.004882812 c 0
EndSplineSet
EndChar

StartChar: R
Encoding: 82 82 50
Width: 620
GlyphClass: 2
Flags: HMW
HStem: -19.0801 21G 694.06 20G
VStem: 66.0342 95 70.4892 102.598 70.5342 93.498 74.0342 81 451.034 92
LayerCount: 2
Fore
SplineSet
173.0859375 21.755859375 m 0xd2
 173.0859375 8.8369140625 167.571289062 -1.248046875 156.53515625 -8.5 c 0
 145.801757812 -15.5537109375 133.517578125 -19.080078125 119.681640625 -19.080078125 c 0
 118.477539062 -19.080078125 117.26171875 -19.0537109375 116.034179688 -19 c 0
 102.034179688 -19 90.5341796875 -14.8330078125 81.5341796875 -6.5 c 0
 74.1708984375 0.318359375 70.4892578125 9.703125 70.4892578125 21.6533203125 c 0xd2
 70.4892578125 24.30859375 70.6708984375 27.0908203125 71.0341796875 30 c 0
 73.701171875 64.6669921875 75.0341796875 94.1669921875 75.0341796875 118.5 c 0
 75.0341796875 142.833007812 74.701171875 202.666015625 74.0341796875 297.999023438 c 0xc6
 74.0341796875 310.666015625 74.701171875 337.833007812 76.0341796875 379.5 c 0
 76.7001953125 400.333984375 77.033203125 420.625976562 77.033203125 440.375976562 c 0
 77.033203125 460.125976562 76.7001953125 479.333984375 76.0341796875 498 c 0
 75.3671875 520.666992188 73.5341796875 551.333984375 70.5341796875 590.000976562 c 0xca
 67.5341796875 628.66796875 66.0341796875 652.000976562 66.0341796875 660.000976562 c 2
 66.0341796875 666.000976562 l 2xe2
 65.9892578125 666.845703125 65.966796875 667.68359375 65.966796875 668.513671875 c 0
 65.966796875 680.127929688 70.322265625 690.290039062 79.033203125 699.000976562 c 0
 87.1904296875 709.040039062 98.2998046875 714.059570312 112.361328125 714.059570312 c 0
 113.240234375 714.059570312 114.130859375 714.040039062 115.033203125 714.000976562 c 0
 128.366210938 714.000976562 139.033203125 711.333984375 147.033203125 706.000976562 c 1
 202.366210938 703.333984375 252.533203125 696.166992188 297.533203125 684.5 c 0
 342.533203125 672.833007812 380.033203125 658.333007812 410.033203125 641 c 0
 440.033203125 623.666992188 465.366210938 604 486.033203125 582 c 0
 506.700195312 560 521.3671875 538 530.034179688 516 c 0
 538.701171875 494 543.034179688 471.666992188 543.034179688 449 c 0
 543.034179688 432.333007812 540.8671875 417 536.534179688 403 c 0
 532.201171875 389 526.034179688 376.833007812 518.034179688 366.5 c 0
 510.034179688 356.166992188 499.701171875 347 487.034179688 339 c 0
 474.3671875 331 460.8671875 324.166992188 446.534179688 318.5 c 0
 432.201171875 312.833007812 415.201171875 307.833007812 395.534179688 303.5 c 0
 375.8671875 299.166992188 356.3671875 295.833984375 337.034179688 293.500976562 c 0
 317.701171875 291.16796875 296.034179688 289.000976562 272.034179688 287.000976562 c 1
 339.3671875 252.333984375 398.700195312 211.833984375 450.033203125 165.500976562 c 0
 501.366210938 119.16796875 535.033203125 79.66796875 551.033203125 47.0009765625 c 0
 553.033203125 41.0009765625 554.033203125 35.2509765625 554.033203125 29.7509765625 c 0
 554.033203125 24.2509765625 553.033203125 19.0009765625 551.033203125 14.0009765625 c 0
 547.033203125 4.0009765625 540.700195312 -3.9990234375 532.033203125 -9.9990234375 c 0
 524.700195312 -15.3759765625 516.918945312 -18.064453125 508.689453125 -18.064453125 c 0
 505.696289062 -18.064453125 502.643554688 -17.708984375 499.532226562 -16.998046875 c 0
 487.865234375 -14.3310546875 477.032226562 -6.3310546875 467.032226562 7.001953125 c 0
 456.365234375 21.001953125 441.198242188 38.1689453125 421.53125 58.501953125 c 0
 401.864257812 78.8349609375 378.197265625 101.501953125 350.530273438 126.501953125 c 0
 322.86328125 151.501953125 291.36328125 176.168945312 256.030273438 200.501953125 c 0
 220.697265625 224.834960938 186.364257812 244.334960938 153.03125 259.001953125 c 1
 155.03125 220.334960938 158.698242188 174.66796875 164.03125 122.000976562 c 0xca
 166.907226562 93.6025390625 173.0859375 31.578125 173.0859375 21.755859375 c 0xd2
166.036132812 498 m 0
 166.036132812 490.666992188 165.538085938 480.833984375 164.538085938 468.500976562 c 0
 163.538085938 456.16796875 162.705078125 445.16796875 162.038085938 435.500976562 c 0
 161.37109375 425.833984375 160.204101562 412.500976562 158.537109375 395.500976562 c 0
 156.870117188 378.500976562 155.703125 366.333984375 155.036132812 359.000976562 c 1xc6
 163.036132812 357.4765625 173.321289062 356.71484375 185.891601562 356.71484375 c 0
 195.3203125 356.71484375 206.03515625 357.143554688 218.036132812 358.000976562 c 0
 245.369140625 359.333984375 268.369140625 360.833984375 287.036132812 362.500976562 c 0
 305.703125 364.16796875 324.536132812 366.500976562 343.536132812 369.500976562 c 0
 362.536132812 372.500976562 378.036132812 376.000976562 390.036132812 380.000976562 c 0
 402.036132812 384.000976562 413.036132812 389.000976562 423.036132812 395.000976562 c 0
 433.036132812 401.000976562 440.203125 408.16796875 444.536132812 416.500976562 c 0
 448.869140625 424.833984375 451.036132812 434.333984375 451.036132812 445.000976562 c 0
 451.036132812 463.66796875 444.203125 481.66796875 430.536132812 499.000976562 c 0
 416.869140625 516.333984375 399.536132812 531.666992188 378.536132812 545 c 0
 357.536132812 558.333007812 333.703125 570.5 307.036132812 581.5 c 0
 280.369140625 592.5 254.869140625 601.333007812 230.536132812 608 c 0
 206.203125 614.666992188 183.036132812 620 161.036132812 624 c 1xe2
 163.036132812 575.333007812 164.703125 533.333007812 166.036132812 498 c 0
EndSplineSet
EndChar

StartChar: S
Encoding: 83 83 51
Width: 620
GlyphClass: 2
Flags: HMW
HStem: -29 85<258.494 279.827 258.494 283.164> 645.001 79.001
VStem: 89.8291 100.001 461.827 99.0029
LayerCount: 2
Fore
SplineSet
68.8310546875 66 m 0
 62.3916015625 79.3740234375 59.169921875 90.9111328125 59.169921875 100.60546875 c 0
 59.169921875 103.958984375 59.5556640625 107.091796875 60.326171875 110.00390625 c 0
 63.326171875 121.336914062 70.4931640625 130.00390625 81.826171875 136.00390625 c 0
 89.826171875 139.336914062 96.1591796875 141.669921875 100.826171875 143.002929688 c 0
 105.493164062 144.3359375 110.66015625 144.668945312 116.327148438 144.001953125 c 0
 121.994140625 143.334960938 127.494140625 140.66796875 132.827148438 136.000976562 c 0
 138.16015625 131.333984375 144.16015625 124.666992188 150.827148438 116 c 0
 162.827148438 98 179.327148438 83.5 200.327148438 72.5 c 0
 221.327148438 61.5 245.16015625 56 271.827148438 56 c 0
 287.827148438 56 304.494140625 58.1669921875 321.827148438 62.5 c 0
 339.16015625 66.8330078125 356.16015625 73.5 372.827148438 82.5 c 0
 389.494140625 91.5 404.494140625 102 417.827148438 114 c 0
 431.16015625 126 441.827148438 140.166992188 449.827148438 156.5 c 0
 457.827148438 172.833007812 461.827148438 190 461.827148438 208 c 0
 461.827148438 218 461.16015625 227 459.827148438 235 c 0
 458.494140625 243 455.994140625 251.666992188 452.327148438 261 c 0
 448.66015625 270.333007812 443.66015625 278.833007812 437.327148438 286.5 c 0
 430.994140625 294.166992188 422.161132812 301.833984375 410.828125 309.500976562 c 0
 399.495117188 317.16796875 386.162109375 324.000976562 370.829101562 330.000976562 c 0
 355.49609375 336.000976562 336.829101562 341.500976562 314.829101562 346.500976562 c 0
 292.829101562 351.500976562 268.162109375 355.333984375 240.829101562 358.000976562 c 0
 216.829101562 360.66796875 194.99609375 367.000976562 175.329101562 377.000976562 c 0
 155.662109375 387.000976562 139.829101562 399.16796875 127.829101562 413.500976562 c 0
 115.829101562 427.833984375 106.49609375 442.833984375 99.8291015625 458.500976562 c 0
 93.162109375 474.16796875 89.8291015625 490.000976562 89.8291015625 506.000976562 c 0
 89.8291015625 528.66796875 93.662109375 550.500976562 101.329101562 571.500976562 c 0
 108.99609375 592.500976562 120.829101562 612.333984375 136.829101562 631.000976562 c 0
 152.829101562 649.66796875 172.162109375 665.834960938 194.829101562 679.501953125 c 0
 217.49609375 693.168945312 244.663085938 704.001953125 276.330078125 712.001953125 c 0
 307.997070312 720.001953125 341.830078125 724.001953125 377.830078125 724.001953125 c 0
 395.830078125 724.001953125 420.497070312 722.501953125 451.830078125 719.501953125 c 0
 483.163085938 716.501953125 504.49609375 712.668945312 515.829101562 708.001953125 c 0
 528.49609375 703.334960938 537.663085938 696.001953125 543.330078125 686.001953125 c 0
 547.91796875 677.90625 550.211914062 669.373046875 550.211914062 660.403320312 c 0
 550.211914062 658.293945312 550.084960938 656.16015625 549.831054688 654.001953125 c 0
 549.1640625 646.001953125 546.497070312 639.668945312 541.830078125 635.001953125 c 0
 537.163085938 630.334960938 531.49609375 627.66796875 524.829101562 627.000976562 c 0
 518.162109375 626.333984375 512.162109375 626.166992188 506.829101562 626.5 c 0
 501.49609375 626.833007812 495.829101562 628 489.829101562 630 c 0
 488.49609375 630 486.49609375 630.666992188 483.829101562 632 c 0
 471.829101562 634.666992188 462.329101562 636.833984375 455.329101562 638.500976562 c 0
 448.329101562 640.16796875 437.162109375 641.66796875 421.829101562 643.000976562 c 0
 406.49609375 644.333984375 389.163085938 645.000976562 369.830078125 645.000976562 c 0
 339.163085938 645.000976562 310.330078125 640.500976562 283.330078125 631.500976562 c 0
 256.330078125 622.500976562 233.997070312 609.000976562 216.330078125 591.000976562 c 0
 198.663085938 573.000976562 189.830078125 553.000976562 189.830078125 531.000976562 c 0
 189.830078125 505.000976562 201.163085938 483.000976562 223.830078125 465.000976562 c 0
 246.497070312 447.000976562 278.497070312 437.333984375 319.830078125 436.000976562 c 0
 357.163085938 434.000976562 390.163085938 428.16796875 418.830078125 418.500976562 c 0
 447.497070312 408.833984375 470.497070312 397.166992188 487.830078125 383.5 c 0
 505.163085938 369.833007812 519.663085938 353.833007812 531.330078125 335.5 c 0
 542.997070312 317.166992188 550.830078125 299 554.830078125 281 c 0
 558.830078125 263 560.830078125 244.333007812 560.830078125 225 c 0
 560.830078125 194.333007812 555.663085938 165.5 545.330078125 138.5 c 0
 534.997070312 111.5 520.6640625 87.8330078125 502.331054688 67.5 c 0
 483.998046875 47.1669921875 462.498046875 29.6669921875 437.831054688 15 c 0
 413.1640625 0.3330078125 386.331054688 -10.6669921875 357.331054688 -18 c 0
 328.331054688 -25.3330078125 298.498046875 -29 267.831054688 -29 c 0
 221.1640625 -29 179.831054688 -19.8330078125 143.831054688 -1.5 c 0
 107.831054688 16.8330078125 82.8310546875 39.3330078125 68.8310546875 66 c 0
EndSplineSet
EndChar

